<svg width="256" height="256" viewBox="0 0 256 256" fill="none" xmlns="http://www.w3.org/2000/svg">
<path fill-rule="evenodd" clip-rule="evenodd" d="M88.3984 189.426H101.399V202.427L110.591 211.619L107.284 214.928H92.2375L67.4677 189.426H70.0129L79.2062 180.234L88.3984 189.426ZM131.21 214.928H124.88L128.045 211.764L131.21 214.928ZM186.175 189.524H189.06L163.655 214.928H148.807L145.597 211.717L154.788 202.525V189.524H167.79L176.983 180.332L186.175 189.524ZM130.986 41.3957L127.999 44.3811L142.346 58.7281V79.0167H162.636L176.983 93.3638L191.329 79.0167H203.598L214.866 89.8299V90.1169L211.619 93.3638H191.329V113.654L176.983 128.001L191.329 142.348V162.636H211.619L213.783 164.801L201.502 177.082H191.329L176.983 162.735L162.636 177.082H142.346V197.37L128.144 211.574L113.842 197.273V176.983H93.5532L79.2062 162.636L64.8592 176.983H55.3825L42.9861 164.221L44.5694 162.636H64.8592V142.348L79.1114 128.095L93.3635 142.348V162.636H113.652L127.999 176.983L142.346 162.636H162.636V142.348L176.983 128.001L162.636 113.654V93.3638H142.346L127.999 79.0167L113.652 93.3638H93.3635V113.654L79.1114 127.906L64.8592 113.654V93.3638H44.5694L41.1328 89.9272V89.8299L51.4912 79.0167H64.6695L79.0165 93.3638L93.3635 79.0167H113.652V58.7281L127.999 44.3811L125.014 41.3957H130.986ZM137.193 105.808H150.192V118.807L159.386 128.001L150.192 137.193V150.194H137.193L127.999 159.386L118.807 150.194H105.806V137.193L96.6141 128.001L105.806 118.807V105.808H118.807L127.999 96.6143L137.193 105.808ZM52.4166 150.194H41.1328V105.808H52.4166V118.807L61.6087 128.001L52.4166 137.193V150.194ZM214.866 150.194H203.773V137.193L194.579 128.001L203.773 118.807V105.808H214.866V150.194ZM88.2087 66.5741L79.0165 75.7675L69.8244 66.5741H63.4121L87.5338 41.3957H107.416L110.403 44.3811L101.21 53.5745V66.5741H88.2087ZM190.631 66.5741H186.175L176.983 75.7675L167.79 66.5741H154.788V53.5745L145.597 44.3811L148.582 41.3957H164.392L190.631 66.5741Z" fill="black"/>
<path fill-rule="evenodd" clip-rule="evenodd" d="M95.7788 73.08L110.671 82.0143L119.605 96.9061L104.713 87.9718L95.7788 73.08Z" fill="black"/>
<path fill-rule="evenodd" clip-rule="evenodd" d="M218.557 218.463H37.4438V37.5384H218.557V218.463ZM45.9562 46.0508V209.951H210.044V46.0508H45.9562Z" fill="black"/>
<path fill-rule="evenodd" clip-rule="evenodd" d="M256 127.934L127.933 256L0 128.067L128.066 0L256 127.934ZM12.0377 128.067L127.933 243.962L243.961 127.934L128.066 12.0389L12.0377 128.067Z" fill="black"/>
<path d="M31.3254 107.344H24.7964V150.11H31.3254V107.344Z" fill="black"/>
<path d="M231.071 105.423H224.542V148.19H231.071V105.423Z" fill="black"/>
<path d="M150.064 225.287H107.297V231.816H150.064V225.287Z" fill="black"/>
<path d="M150.055 24.8926H107.288V31.4216H150.055V24.8926Z" fill="black"/>
<path d="M186.04 39.4342L216.281 69.675L211.665 74.2912L181.424 44.0503L186.04 39.4342Z" fill="black"/>
<path d="M43.8305 181.524L74.0713 211.765L69.4552 216.381L39.2144 186.141L43.8305 181.524Z" fill="black"/>
<path d="M39.2715 69.9158L69.5123 39.675L74.1297 44.2911L43.8888 74.532L39.2715 69.9158Z" fill="black"/>
<path d="M181.809 211.383L212.049 181.142L216.666 185.76L186.425 216L181.809 211.383Z" fill="black"/>
</svg>
