<svg viewBox="0 0 1588 1671" xmlns="http://www.w3.org/2000/svg" xml:space="preserve" style="fill-rule:evenodd;clip-rule:evenodd;stroke-linejoin:round;stroke-miterlimit:2"><path d="M308.058 201.629c-.965 2.171-.685 12.761 1.191 14.494-2.507 1.482-2.641 8.799.165 9.994-.618-.035-1.902.002-2.407-.26.237 1.861-5.278 21.668-4.442 21.92.169-.424.127-.791-.126-1.102-.901 2.443-3.291 8.853-2.905 10.012-2.675 1.944-1.558 3.132-2.191 5.999-.034-.426-.648-1.804-.245-2.197-.316 1.281-.694-1.837-.729-2.026l-3.281 8.926 1.398.336c-1.177 1.584-3.386 3.03-3.745 6.65-.106.333.616-2.286.678-1.825-.072.984.093.977.495-.02-2.325 7.038-.18-.004.228 2.726-.452-.346-1.127-.8-1.392-.351.944.025-.725-.993-.441-.755-.6 1.729-1.877 2.661-2.684 5.169.603-1.953 1.704-3.855 2.5-5.614-.125.396-.355.369-.693-.084-.828 1.038-2.192 4.474-2.621 5.989-.282.621-.516 4.407-4.051 6.33-3.12 2.99-4.509 5.214-5.782 7.994-.879-.324.15-.322-.024.048-1.297-.037-.536-.846-1.893.944.144-.519-1.339 2.495-.786 1.677-.774.931.299-.414-.596.86-.12-.97-1.95 1.849-1.621 1.598-4.694 2.81-4.382 3.356-10.332 5.77.25.302.562.334.934.097-.471.944-1.893.837-1.305.153-.467.503-.324.449-1.44.249.248.407.37.216.858.296-1.778 1.43.246.008-.781-.021.454-.022-.479 1.281-.447 1.176.752-.017.187-.796.657.185-1.015.248-.2-.22-1.532-.174.7.791-.173.595-.811.848l1.806.664c-.456.371-1.314.795-1.931 1.418.315-.319.693-.55 1.132-.698.114-.018-1.288 1.528-1.27 1.527-.42.319-9.035 3.988-10.289 3.567.433.246.86.15 1.281-.286-.507.775-1.24 1.264-2.201 1.464.242-.073.427-.038.557.102.162.033-1.173.28-1.003.234.031.065.209.043.213.041-.411-.242-.076.138-.1.175-.241-.198-1.07-.957-1.456-1.541-.005.005-.159 1.381-.7 1.876-.025-.577.384-1.64.563-2.006-1.678 1.781.386 1.754-2.299 2.772 1.577-.517 3.017-.156-.757 1.152 2.011-1.168-4.945 3.789-1.123-.076-2.12 1.464-2.364 1.05-3.357 1.078.065-.064-.905 1.242-1.474 1.633-.47.208 1.549-1.68 1.582-1.758-.088.079-.142.091-.164.034-.956 1.003-3.088 1.991-3.725 1.419-.19-.417.906-.085.75-.036 0 .265-6.155 3.127-4.024 1.94a5.25 5.25 0 0 1-1.211.689c1.902-1.239-13.77 2.678 2.909-1.423-2.03.272-2.475.225-1.336-.142-2.047.11-1.809 1.293-3.112 1.71a1.34 1.34 0 0 1 .504-1.127c-1.615.996-2.307 2.082-4.733 2.635-.075-.16.034-.239.323-.237-.395.236-.655-.582-.738-.95.492.807.137 1.144-1.064 1.012.036-.101.931-1.219.98-1.29-2.343.983-5.939 5.462-3.622-.778l-2.24 2.111c1.575-2.989 3.95-5.603 4.976-8.878-.445 3.419 1.249-1.331 3.369-5.106.069-.035.995-2.854 1.081-2.818-.005.099-.241.885.137 1.008.613-2.158 1.718-10.151-1.609-6.3.838-.84 5.09-7.855 3.632-3.104a21.9 21.9 0 0 0 4.075-6.857c.163.875-.208 1.246.774 1.198 2.749.16 3.163-12.196 4.164-14.305-.359 1.398 10.533-3.815 3.039-3.798 3.054-1.2 4.588-1.112 5.602-3.052-3.973-2.345 4.852-3.714.009-5.84 2.615-1.856 3.268-4.302 1.033-5.963 3.359-.011 2.449-2.338 1.519-5.125 1.144.197 2.187-.047 3.128-.729a11.975 11.975 0 0 0-2.032-2.893c1.799.478 4.676 2.108 5.713.369-.363.671-.27.95.277.833.464-.577.591-1.132-.065-1.937.167-.017 1.315-.386 1.192-.246.751-.906.639-1.99-.34-3.251 2.211-.291 3.373-1.492 3.485-3.604-1.355 1.207-2.886 1.995-4.59 2.364 3.778-1.996 8.358-9.225 2.2-11.537 4.352-1.118 6.103-5.316 5.917-9.079 3.159 1.598 3.215-2.368 6.681-3.053-.592-1.082-.44-1.045-1.383-2.236.109-.122.222-.284.383-.34.046.011 1.006.765 1.083.725.438-.875 2.5-9.758 1.431-9.422 10.193-7.635 25.495-8.537 38.103-11.904-1.862.449-.953 1.252-1.456 1.964ZM214.3 271.492c-.927 2.706-3.411 7.939-4.614 8.389-.07.715.577.14.761.754a7.402 7.402 0 0 0-2.386 2.612c-.565.999 1.066-2.318 1.111-2.392-.838 2.001-1.197 2.464-1.079 1.386-1.879 2.041.872.8 1.067 2.278-.053-.237-1.365-.821-1.202-1.118.125.316.879.953 1.202 1.118-.336.03-.445.047-.328.052-.019.002-.021.002-.005-.001-.713-.018-.436-.038-1.08-.138.672.158-1.371 2.35-1.233 2.291a14.05 14.05 0 0 0 .565-2.314c-.584 1.51-4.478 5.459-3.244 5.643-1.564 1.482-2.321 3.268-3.23 4.907-.709 1.202-2.209 2.916-.419 3.417-1.074.094.196.628-.727 1.127.406-.261.593-.598.905-.203-1.595 1.548-1.108-.239-2.464 2.926-.595-.173-.596.871-.552-.603.131-1.397-.076 1.051-.204 1.232-.941-.304-.799-1.078.427-2.32-.004.807.014.502.054-.913-.377.829-3.443 6.933-3.36 7.364.077-.09-2.347 1.516-2.929 2.376-7.28-10.96-11.459-25.049-16.055-36.617l-1.598.908c4.392-1.442.401-10.58-2.979-10.059 2.523-1.707-5.524-15.413-5.247-15.538 1.284 2.283-.137-1.754.019-1.344-.351 1.124-.36 2.601-.854 3.671l-1.9-2.222c2.724-1.154 3.653-1.319 1.506-4.44l.201 1.332c-1.801-2.373-.946-5.763-3.975-8.387 1.807-.492.565-.811 1.381-2.392a.609.609 0 0 0 0-.014c.21.074.45.29.98 1.161-.445-.738.72.178.453.395 1.073.186 4.945-1.185 5.954-1.687.145-.017-.908-1.097-.695-.417.396-.774 2.74-1.349 3.053-1.487-.423.151-.628.033-.616-.354 1.202-.297 3.175.217 4.06.346-1.642.81-5.155 2.195-6.855 2.71 3.07-.628 4.214-1.543 6.762-1.948-1.333-.38 2.863-.989 3.313-1.089-1.131.16-2.484-.208-3.582-.31-.027.038 9.206-1.677 10.375-1.942 5.655-1.288 8.591-1.657 14.622-3.539-.372.433 1.407-.752 2.215-.903-.614.95 3.066-.621 2.277-.454 4.11-.321 7.479-2.448 13.082-2.593-.102-.352-.353-.497-.753-.432 1.307-1.286 5.915-1.94 7.218-1.056-1.519-1.031 1.577.537-1.995-.517-.374-.46 3.289-1.229 1.799-.301 2.035-.689 7.968-3.389 9.818-2.086-.305-.33-.688-.339-1.147-.028.098.099 5.594-1.457 6.432-1.633-.645.313-1.108.213-1.385-.3 2.492-.6 2.938-.819 1.339-.656 1.532-.378 4.303-1.745 1.815.235 1.478-.743 4.746-.807 5.991-1.664-.563.254-1.105.545-1.627.874 1.147-.144 4.258-1.508 4.742-.943.074.285.183-1.24.304-.118.317-.833 1.018-1.493 1.853-1.712-1.64 1.833-3.116 4.577-4.073 7.278-.579.402-11.961 15.89-11.662 19.171v-.034c.183.038.049-.565.602-.462-.211.417-.716.679-.407 1.116-.283-.186-.539-.303-.588-.297-.34-1.182-3.775 5.225-3.267 2.563-3.265 1.546-5.461 10.144-7.417 13.665-1.845 3.323-8.773 9.801-5.248 12.728-.949.44-4.734 3.238-5.277 3.952Zm-56.944-66.224a6.172 6.172 0 0 1-1.995.613c-3.317.676-7.713 2.519-9.92-5.563-.386.312-.432.724-.139 1.236-1.872-2.118-4.656-9.046-4.153-11.869-.544 3.059-.192-4.024.298 3.281 1.061-2.003-7.436-14.802-6.659-17.9-1.417-2.189-.973-2.918-2.037-5.379.752.864.857 1.654.313 2.371-.644-1.185-1.191-2.376-1.598-3.647-.033-.147.393 1.441.317 1.435-.718-.919-1.129-3.599-1.494-4.823-.071-.119-.011-.132-.038-.22.484.639.914 1.316 1.287 2.029-1.385-3.119-2.413-6.349-3.882-9.381.967.705 1.459 1.643 1.476 2.814.004-1.748-1.497-3.94-2.202-5.7.326.196.596.455.81.777-.305-.755-1.584-4.264-.652-1.306-1.524-1.322-4.895-7.658-3.776-6.159-.785-1.755-2.33-4.114-3.035-5.379.398.336.326-.263.498.137.04-.08.085-.1.135-.058-.037-.057-.008-.096.089-.118-.251-.176-.248-.272-.52-.902.578.047.637.263 1.021.235-1.957-1.626-2.489-3.669-3.574-6.272l.626 1.2c-1.455-3.515-1.235-2.556.716-4.707-.885-.448-1.615-.151-2.191.891.029 3.74.026-.284.021-.281.526-6.454 7.928 1.544 6.793-5.621 2.06-.88 4.812-2.759 5.32-4.207-.034-1.255 1.091-1.171 2.725-1.759-.196.079-1.499.487-1.539.619 2.168-.343 11.708-3.258 11.047-4.092.917.448.125-.026.719.638-.267-.341.721 1.376-1.082-1.441.256.198.941.901.171.091.198.143.372.311.522.503-.196-.307-.048-.191.446.351-.319-.356-1.296-1.282-.272-.297-.413-.341-.68-.744-1.056-1.104-.011.003.421.339.189.111.476.311 1.061.963 1.419 1.381-1.013-.933-.134-.175-1.556-1.514.048-.016.29.235.031-.012.011-.004.655.512.675.533-.015-.016-.139-.175-.093-.11.015.009-.483-.456-.413-.476 3.497 2.623 19.774-13.634 24.228-10.17 3.695.044 4.97-1.605 8.527-2.637 4.565-1.324 5.885-1.709 7.412-2.593 8.871 4.771 23.246-1.836 33.437 1.736a144.318 144.318 0 0 1-2.091-1.571c2.567 2.444 3.884-.273 3.774-.169a.736.736 0 0 1 .21-.513c.082.199.248.277.189.025 0 .133-.188.49-.31.788-.042.028.766-.903.009.083l.193-.521c.009-.005.098.358.108.383-.049-.348-.184-.185.009-.7l.301 1.165c-.191.019-.181-.747-.316-.609.254.946.081.357.006.144-.027.073.127.335.144.41-.015.027-.177-.37-.148-.405-.031.566.235.063-.184.296.375 1.144.584.876.789 1.325 3.708.67 6.551 1.601 10.439 2.399-1.81.516-3.385-.651-5.05-1.133 1.4.474 8.086 1.494 8.075 1.482-2.312 1.208 1.405-1.446 1.467-1.465-1.473 4.613 8.388 6.479 12.019 8.184 4.533 2.128 18.889 11.57 21.484 8.586 1.987 3.973 5.009 5.949 7.324 9.654l2.058-2.232c.555.582-3.448 2.329-.597 4.214 1.657 1.095 4.22 1.159 6.001 1.662.94.265 3.256-.124 3.619-.06 1.675.298 2.794 5.144 4.854 2.195a143.781 143.781 0 0 0-3.425 6.649c1.616 1.709-2.704 6.479-2.996 8.761-3.812.588-9.819 16.893-11.321 20.119.173-.225 1.638.073 1.528.544-6.225.002-5.528 9.607-12.781 11.402l2.332.051c-4.067 1.066-8.234.183-12.744 1.433-4.142 1.148-7.146 4.065-12.114 4.015 1.698-.233 1.456-.716 3.331-.954-2.491.175-6.7 1.008-7.455.742-.414.994-.47.872-1.675 1.019 2.6.04-7.45 1.405-1.2.001-3.849-.257-8.766 1.333-12.455 2.288 4.078-.159-6.722 2.393 2.761.053-3.866.549 1.133-.217 1.521-.665-.437.504-2.425 1.133.257.492-1.497.421-4.599 1.162-5.546 1.165-1.936.007-.22 2.364-1.569 2.682-.859-3.439 1.641-3.992 4.306-4.463-3.378.362-4.856.149-4.393 4.23-.205-.52-.513-.614-.925-.282.2.001.388.048.565.141-1.359.288-.016.488-1.296.732-1.245-.288-1.113-.409-2.686.13-.347-1.648-.572-2.791-2.289-2.437 2.411.115-5.354 1.711-5.215 1.683a65.551 65.551 0 0 1 5.147-.305c-.979 1.507-12.345 2.168-13.235 2.736-3.176-.621-8.1.664-8.657 2.88-.554-.234-.457-.733-1.01-.512l1.151-2.517c-6.168 1.742-11.901 3.693-18.198 5.022l1.379-.067c-.14.024-3.767.933-3.629.901-1.054.243.005-.02-1.717.244 1.892-1.593-3.996.812-4.738.925 2.194-.683-2.617.069-2.777.26Zm1.363 113.438c-.078.007-1.147-.815-1.144-.911-.28.744-2.867.356-2.719.308-.799-.205-5.844-2.184-5.032-1.812-3.63-1.249-2.636-.173-3.213-2.187-1.068.038 1.509 1.347-.967.293.371-.24.707-.492.917-.64-5.204.477-14.396-10.85-16.714-10.747-.409-1.828-6.662-5.014-8.508-6.584-4.538-3.862-11.269-11.805-14.999-16.519.34.898 1.138 1.307 1.641 2.063-1.51-1.128-3.226-3.605-4.512-6.216.528.358 1.028.75 1.502 1.177-1.918-2.998-8.377-16.063-9.531-14.963 1.143-2.117-3.029-5.12-2.626-7.226 1.125.357.179-.369.54-.314 6.81 1.014 20.986-4.665 27.973-6.31.15-.035 6.404-1.886 7.208-1.772 6.211.878 1.053-1.018 4.341 3.062 1.156 1.434 2.582 8.689 3.633 8.945-.271-.704-6.263-7.504.554 3.631l.036-1.043c1.509 2.283 2.442 6.921 4.343 10.044-.319-.386-.61-.791-.872-1.217.134 1.182 1.891 5.452 1.231 3.814-.617 2.438 1.235 2.654 2.761 2.284-4.89 2.076 2.328 2.079 4.972 2.239-1.741 1.965-2.027 2.306-4.103 3.978.369.559.984.751 1.846.574-1.262 1.273 2.283 2.913 4.396 4.26-7.725 6.223 3.539 7.743 6.269 14.169-1.245-1.896-4.507-4.161-3.953.07a33.282 33.282 0 0 1-1.648-.713c.509 2.208.258 3.45.342 6.867.629.395 1.19-.105 1.445-.008.241 1.028-.286 1.972.077 3.303.292-.327.248-.963.373-1.351.317.714.157.375.113.699.068.145.735-.122.602-.053-.118-.364-.436-.544-.436-.999 1.317-.949-.067 2.302.037 2.146-.095-.138-.148-.408-.27-.475.005.089-.039.126-.135.111.366-.075.015.664-.076.819.428-.421.103.211.628.98-.486-.596-.268-1.24.146-1.703.014.082.069 1.339-.181.363.022-.077-.101.603-.108.231-.105.308 1.895 3.008 2.162 4.247-.154-1.228.576-1.583.923.48.861-.741-.802-.471.063.68-.026-.089.019-.22-.017-.007-.001-.001-.003 0-.003.002.008.079-.022-.388.032-.128-.117-.049-1.156-.605-1.029-.592.27.548 1.784 1.793 1.69 2.651Zm-68.57-100.377c-1.645.403 1.648 1.09.997.812-.065-.089-8.3 3.836-8.31.005.09.553-.103.87-.576.953-.074-.182-1.177-4.245.235-2.279-.025-.066-.467-4.156-.595-4.153.52-.039.76.293.719.996.11-.964-.379-3.25.11-3.424-.961.002-1.208-2.972-.927-2.422.264-2.819-.402-4.19 1.04-5.626-.331-.415-1.002.082-.732-.865.236.207.683.538.911.829.214-.91-.085-1.205-.899-.884.664-3.076 3.562-11.218 3.128-15.159 1.861-.66 5.22-6.855 4.51-7.795-.69-3.578 9.657-19.297 9.134-21.546-.587.198-.863-.175-1.145-.429.456-.311 1.762.406 2.312.591-.267-.089.621-1.44.235-.946-.317-.174-.341-.446-.075-.816.232-.687-.554 1.584-.714 1.551.236-.125 1.151-1.99 1.25-2.156.035.393-.409 1.499-.351 1.782.581-.444 1.38-2.272 1.906-3.196.588 1.028.015-.011-.208.481.548 1.181 4.393 4.172 3.037 5.859-.141 3.278 1.135 6.641 2.718 7.848-1.815 2.51-.366 1.907.752 3.362 1.011.409 4.885 15.236 5.66 17.085-.024-.371 1.14-1.159 1.405-.778-3.214 3.563-.924 5.031 2.997 7.231-1.26-.042-2.584.598-3.844.681 1.716 2.108 3.31 4.126 4.374 6.533a6.13 6.13 0 0 1-.897-1.223c.434 3.326 1.331 3.909 1.167 4.434-.218 1.492.857 3.469 1.553 4.79.192-.24.413-.269.664-.082-.03-.053-.948-1.381-1.18-1.214.439.084.649-.09.63-.52-.095-.184 1.888 3.557 1.988 2.599.411.972-.903-.455.005 1.323-.5-.018-2.512-1.892-2.705-2.446.183.771 1.383.874 1.421 1.525-.518-.407-1.402.61 1.237 1-2.661-2.847-12.775 3.721-15.936 3.183-.822-.411-8.118.954-13.039 1.438.151.271.372.402.664.39-.619.687-4.951 1.776-4.626.678Zm201.143-43.019c.699-.547-.1 2.395.159 2.183-.652-.235 7.425-15.12 8.255-16.096.053.571.354.969.901 1.194.124-.524-.918-1.197-.797-1.823-.395.268 6.089 15.589 6.707 17.406-6.043 1.174-12.105 2.247-18.153 3.389.144-.312 1.89-4.863 2.928-6.253Zm58.431 10.308c6.011-2.083 8.942-2.844 13.33-5.075-13.336 1.828 11.835-6.797-.674-7.563 2.917-1.326-6.016-.404-7.542-.434-.397-.345-3.141-.612.145-2.309-4.508-.702-9.415.466-16.641 2.027.009-.265.006.007.006-.222 1.866-.433 3.727-.882 5.586-1.348-1.874.271-3.734.62-5.579 1.05.079-2.793-2.357-8.026-3.266-11.076.493 1.115.911 2.252 1.309 3.402-.704-2.996-1.99-8.323-4.726-9.864 0-.972 2.708 4.04 2.087 2.608-.788-1.063-1.348-1.797-2.14-2.519.083.619.603 1.562-.242-.11.032.108.448 1.502.114 1.835.022-.838-.809-1.506-.86-2.383.242.42.242.305.001-.346.064.191.165.351.303.482-1.273-5.591-4.914-10.854-7.807-15.926.68 1.069 1.368 2.133 2.065 3.191-1.737-3.063-3.863-5.305-5.387-8.35-3.242-6.472-3.325-6.827-.213-13.103 3.744-7.553 7.636-15.037 11.453-22.553-.628 1.31-1.243 2.626-1.876 3.933 15.83-32.334 31.26-66.175 51.006-95.794l-1.346.502.977-1.866c-1.186 1.019-3.075 1.243-4.393 2.106.402-.83-.836-4.275-.713-5.539-10.007 19.719-16.578 32.887-28.489 49.732 2.351-3.408-.873.253-1.505 1.39-1.423 2.563-2.124 6.038-3.749 8.471-1.02 1.526-2.557 1.68-3.035 2.37-2.371 3.426-4.193 7.619-6.68 11.815-3.72-2.511-7.081 7.968-8.723 11.226 0-.006.654-.209.654-.172-.814 1.422-2.368 1.531-2.602 1.557-1.486 1.287-.665 1.32-2.273 1.329-.356.967-4.395 12.003-3.056 12.112-.253.114 1.161-1.179 1.069-1.112-.289.235-.405 1.204-.411 1.16-.911.047-2.662-.581-3.491-.747.016-.179.652.953-.395 1.481-.042-.313-.078-1.643-.078-1.651-.749 1.392-.346 1.559-1.339 2.884 1.516.638 1.113 1.305 2.563 2.04-.98.642-3.093 2.849-4.154 3.04.029.362.533.087.461.61-2.725.132-.518 1.682-.142 2.636-.296.447-1.857 2.007-2.564 2.707-2.429-2.107-1.864-1.979-1.893-3.569-.064-.037-.943.375-.877.463.85-.542.432-.579.948-.559-.724-.595-3.536-1.52-4.746-1.668-.193-2.071-2.027-3.883-3.632-5.714-.599.675-1.332-1.038-.233 1.531-.816-1.765-7.795-6.019-9.045-6.709-2.137-1.18-1.809-3.864-6.083-2.123.322-5.562-3.423-4.907-7.873-6.212 1.125-1.861.851-1.51.972-2.78-4.571 1.403-5.722-3.096-8.965-1.773.199-3.984-3.068-2.582-3.981-5.36a17.91 17.91 0 0 1-3.394 7.227 16.515 16.515 0 0 1-1.076-7.333c.14 1.59-4.618-1.853-2.624-1.291 1.284.714-5.436-2.037-9.241-3.397a38.983 38.983 0 0 1 5.809-.14c-3.735-1.484-5.681-3.873-8.286-.82-.487-4.068-4.573-2.887-7.132-3.582-.681-.184-19.333-3.234-19.36-3.282.345.168.69.332 1.038.494-.317.507-.741.026-1.229.036.442-.009.968.342.863.707-2.619-.747-3.487-1.691-4.534-.187.027-.041.007-.035-.057.016-1.008-2.183-2.363-2.216-4.736-2.591-.773-.123-2.881.606-4.706.817-2.918.338-5.825.581-8.733 1-2.36.34-6.056 5.098-5.995 1-1.255 3.227-4.934-2.521-9.486-.571-.104-.858-3.01 1.625-3.713 2.014-3.558 1.973-4.901 1.575-4.728 5.027-1.204-3.187-8.022-6.997-12.212-2.056-.266.313-.022 4.979-.602 7.069-2.041-1.843-2.083-3.498-5.124-3.841-1.738 1.878-8.35 2-10.805 2.914-2.234.833-.749.473-2.181 1.015-1.355.512-10.671 3.465-7.533 2.472-6.426 2.032-15.357 7.5-17.253 9.153-3.106 2.43-5.185 5.361-8.295 7.727-4.131-10.41-7.339-17.416-11.202-28.509l.804 1.182c-1.848-5.525-4.712-10.488-6.908-15.868-.477.192 2.083 6.373 2.056 7.212-.839-4.329-4.794-9.688-3.289-11.317-2.346-6.041-5.1-12.075-7.556-18.145 1.455 4.174 3.413 8.155 4.921 12.31l-.898-1.849c.381.791 2.981 6.264 2.864 5.965-.012.91.317 1.554-.268 2.509-.388-.938.243-1.54.165-2.469l-.451 1.773c-1.818-4.402-3.002-10.983-5.607-14.691a39.922 39.922 0 0 1 1.807 3.362c-3.017-6.409-5.312-13.131-7.851-19.735l1.276 2.752c-1.937-5.004-3.482-8.46-6.416-11.566 2.616.552 4.25 3.664 4.782 6.505-2.44-6.266-6.644-8.174-11.912-12.704.633 1.495.509 3.321 1.056 4.852l-1.732-.319c.158.061 1.825.831 1.844.831l-1.331-.223c1.269 1.979 3.201 7.678 5.377 6.349-.843 2.805-1.596 5.283-.618 6.719-.171.101-1.68.411-1.966.404 4.071 8.049 5.594 15.986 7.331 23.948 1.942 8.905 6.848 18.668 7.739 27.547l1.504-1.58c.27.195.539.389.809.582-4.65 1.695 2.436 22.71 3.997 27.081-.014-.037.02-.082.086.097-.025.009.531-1.519.446-1.235.469.751-.106 2.103-.26 2.949l-1.919-1.127c2.585 5.933 5.435 9.436 3.222 15.048-1.334 3.385-4.117 4.267-5.316 6.448-.34.618-2.045 8.435-3.067 11.477-1.706-1.089-3.477-2.744-3.098.447-1.222-.977-6.383 4.777-7.786 8.69-1.117 3.116-.694 5.338-1.473 6.814-.856 1.625-1.842-.037-3.067 2.617-1.267 2.745.378 4.334-.094 7.256-7.927-2.202-.473 22.004-7.552 23.456 1.394 2.163 1.215 4.322 3.073 6.026-.584 2.685-2.589-5.824.061 1.804-7.283-.274-6.559 3.039-7.16 9.678-.492 5.431 1.079 12.019-.017 17.199-2.148 10.155 4.046 2.062-3.363 6.147-3.081 1.698-9.098 1.898-12.815 2.645-7.044 1.415-17.301 1.024-23.429 4.379-6.033 3.303-6.291 8.713-7.896 14.192 1.929-.111 3.467.693 4.614 2.416C1.432 252.35 4.172 260.033 0 265.594c2.858 1.12 5.757-.38 9.16-1.257-1.907 1.964-4.415 3.997-4.35 7.051 3.25-.052 16.671 1.166 18.585-3.378a5.514 5.514 0 0 0-.062 1.155c1.248-2.116 5.03-8.355 4.469-2.284 2.452-5.185 3.223-1.176 3.805 1.837 2.927-.708 9.963-6.501 10.996-8.686 1.537 1.876 1.008 3.213.805 6.475 3.561-.701 10.031-3.217 13.689-3.1 5.724.183 1.915-2.032 6.244 3.865 1.359 1.851.165.518 2.673.827-5.498 4.583 15.979 30.754 20.545 36.207 1.093 1.306 34.988 32.308 36.033 30.214-1.598-.953-3.057-1.454-4.529-2.295 9.889 6.47 19.75 11.319 30.842 15.339a23483.43 23483.43 0 0 1-7.392-3.176c3.011 1.016 11.907 5.096 12.518 5.237 3.259.745 9.398.765 12.027 2.855 2.219 1.765-.87 6.869 3.833 5.903-3.592 2.932 6.65 21.302 6.897 25.858-.27-1.127-.54-2.244-.748-3.383 1.157 1.665 1.854 4.752 2.731 7.142.277-.232 1.54.05 1.826-.189 0 2.595-2.007 4.301.089 8.863-.324-.851-.521-1.992-.808-2.921 2.269 2.874 3.953 3.926 7.344 7.247-2.98-6.004 3.296-20.832 8.864-24.384-1.048.722-1.021.381.083-1.019-.111.595-.407.977-.885 1.144-.008-.611 1.403-3.014 1.803-3.824.69 1.594.388 2.748-1.001 3.699 1.774-1.191 2.545-4.356 4.364-6.664a.784.784 0 0 1-.113-.078c-1.604 1.807-2.588 3.64-3.116 5.818.11-.349-.046-2.938-.078-2.917-.082.136-.133.096-.151-.12.295.566-.537 2.134-.675 2.549.124-.385-.052-3.847.675-2.549.017.029 2.878-3.125 2.577-3.378.524.432.042.092.022.803 1.202 2.478.176-.734.354-.498-.1-.082-.069-.061.091.064-.573-.256-.864-1.337-1.183-1.486 3.275 1.318 4.863-5.148 6.355-8.252l.728 1.724c.889-2.044 1.945-4.026 2.915-6.034 1.526 1.16 6.666-.054 9.991-.501a10.82 10.82 0 0 1-3.902.111c1.336-.395 4.012-1.09 5.356-.982-2.563.463-5.798.8-8.264.758 4.565-.535 9.234-1.95 11.412-2.561-.344 1.433-3.474 2.68.116 1.771-3.408 1.303-7.422 1.569-11.217 2.056 5.885-.583 10.359-1.863 15.644-2.958-.929-.3-.128-.833-1.935-.439.521-.961.595-.269-.1-1.073.192-.039 1.162-.31.887.048.166-.215.719-.855.819-.93a.496.496 0 0 0 .04-.029c-.039.026 1.39 2.642 1.6 2.981 3.788-3.05 12.096-2.73 17.459-4.773-.931.399-1.89.705-2.876.915 5.689-2.14 14.286-8.654 19.9-9.899-6.2 2.713-11.864 5.643-18.304 7.958 3.362-2.016 7.179-2.478 10.604-4.211-.075.047 8.804-4.191 10.271-5.298 3.513 1.192 8.218-3.427 12.062-5.871-2.141 1.116.744-.626 1.361-1.13-.22.206-.39.366-.655.537.941.067 1.987-.625 3.232-.582-.181.12-.376.21-.586.269.225-.055 1.956-.633.735-.257 2.135-.928 8.628-7.64 9.291-7.446 2.153-.637 10.427-4.875 10.427-7.298 1.272-1.906 1.899-2.333 2.537-4.594a6.831 6.831 0 0 1-1.266 1.714c.121-.616.13-.82.677-1.193-.053-.133.353-1.77.126-1.492.415.62.852-.162.463.971-.794 2.206 5.737-2.79 4.009-3.116-1.958 2.827-1.662 2.437-3.797 2.524.006-.017 4.149-.725 2.502-3.98.43-.175 4.803-4.003 4.739-3.936.875-.851.626-.988.305-2.071 0 .7 2.088-5.159.592-.205 1.908-4.3 7.579-8.318 9.933-11.286 1.638-2.063 1.596-5.841 3.334-8.822 3.048.281 2.302-3.643 5.026-4.353.204-4.46 3.549-16.462 7.484-19.177-.474-.432-.975-.224-1.504.624 1.279-.922 1.063-1.319.542-2.092.237-.042 2.054-5.021 2.45-5.505-.221.658-.4 1.327-.54 2.008.248-1.54.765-2.153 1.276-3.429-.722-.266.219-.063-.962-2.02.258.607.417 1.242.479 1.904-.043-.058-.692-.313-.797-.156-.069-1.127-.263-2.928.603-3.187-.83.23-.127-.33-.275-1.363.906.788.123 1.846-.024 2.764.811-1.277.576-1.255.545-2.092.18.355.051.612.468.47.132-1.884 1.694-4.808.94-7.1.491 1.604-.724 4.711-2.552 4.436.469-2.37 4.008-.426 1.335-5.632.949.739.686 1.807.75 2.859.027-.788-.693-3.472-.616-3.591 1.917 1.068 1.083 3.249 1.162 4.959 1.108.035-.228-4.626-.999-5.089 2.296-.346 1.312-2.971 1.399-3.565.141.91-.16 1.91.069.533.24.578.166.924-.223 1.037-.164-1.949 2.348-6.471-.276-6.214-.233-2.518.312-4.79 2.248-5.479-.152-.355-.594-.387.359-.136-.595-1.43-.401-3.692-.388-4.049.008-.018.415.475.503.257-1.536-1.238-.853-12.553-.944-14.105.554 4.051-1.478-11.084.197-4.379-.255-1.684-.511-7.454-1.384-8.88.445.728.442 5.983.644 7.071.126-2.591-3.108-8.886-.853-11.087 2.168-2.115 6.067 2.675 7.208-1.902Z" style="fill:#231f20;fill-rule:nonzero" transform="scale(4.16667)"/></svg>
