<svg width="255" height="256" viewBox="0 0 255 256" fill="none" xmlns="http://www.w3.org/2000/svg">
<path d="M201.854 128.708C201.241 130.094 201.419 136.854 202.612 137.96C201.018 138.906 200.932 143.577 202.717 144.34C202.324 144.317 201.507 144.341 201.186 144.174C201.337 145.362 197.83 158.005 198.362 158.166C198.469 157.896 198.442 157.661 198.282 157.463C197.709 159.022 196.189 163.114 196.434 163.854C194.734 165.095 195.444 165.853 195.041 167.683C195.02 167.411 194.629 166.532 194.886 166.281C194.685 167.099 194.444 165.108 194.422 164.988C193.726 166.886 193.031 168.786 192.336 170.685C192.632 170.757 192.928 170.828 193.225 170.9C192.476 171.911 191.072 172.834 190.843 175.145C190.776 175.357 191.235 173.686 191.275 173.98C191.229 174.608 191.334 174.603 191.589 173.967C190.111 178.46 191.475 173.965 191.734 175.707C191.447 175.486 191.018 175.197 190.849 175.483C191.449 175.499 190.388 174.849 190.569 175.001C190.187 176.105 189.375 176.7 188.862 178.301C189.246 177.054 189.946 175.84 190.452 174.717C190.372 174.97 190.226 174.953 190.011 174.663C189.485 175.326 188.617 177.519 188.345 178.487C188.165 178.883 188.016 181.3 185.769 182.527C183.785 184.436 182.902 185.856 182.092 187.63C181.533 187.423 182.188 187.425 182.077 187.661C181.252 187.637 181.736 187.121 180.873 188.263C180.965 187.932 180.022 189.856 180.374 189.334C179.881 189.928 180.564 189.07 179.995 189.883C179.918 189.264 178.755 191.063 178.964 190.903C175.979 192.697 176.178 193.045 172.394 194.586C172.553 194.779 172.752 194.799 172.988 194.648C172.689 195.251 171.785 195.182 172.158 194.746C171.862 195.067 171.952 195.032 171.243 194.905C171.401 195.164 171.478 195.043 171.788 195.094C170.658 196.006 171.945 195.099 171.292 195.08C171.58 195.066 170.987 195.898 171.008 195.831C171.486 195.82 171.126 195.323 171.425 195.949C170.78 196.107 171.298 195.809 170.451 195.838C170.896 196.343 170.341 196.218 169.936 196.379C170.319 196.521 170.7 196.662 171.084 196.803C170.794 197.04 170.248 197.311 169.856 197.708C170.056 197.505 170.297 197.357 170.576 197.263C170.648 197.251 169.757 198.238 169.768 198.237C169.501 198.441 164.023 200.783 163.226 200.514C163.501 200.671 163.773 200.61 164.041 200.332C163.718 200.827 163.252 201.139 162.641 201.266C162.795 201.22 162.913 201.242 162.995 201.331C163.098 201.353 162.249 201.51 162.357 201.481C162.377 201.522 162.49 201.508 162.493 201.507C162.232 201.353 162.445 201.595 162.429 201.619C162.276 201.492 161.749 201.008 161.504 200.635C161.5 200.638 161.402 201.517 161.058 201.833C161.043 201.464 161.303 200.786 161.416 200.552C160.349 201.689 161.662 201.672 159.955 202.322C160.957 201.992 161.873 202.222 159.473 203.057C160.752 202.311 156.329 205.476 158.759 203.008C157.411 203.943 157.256 203.679 156.625 203.697C156.666 203.656 156.049 204.489 155.687 204.739C155.389 204.872 156.672 203.667 156.693 203.617C156.637 203.667 156.603 203.675 156.589 203.638C155.981 204.279 154.626 204.909 154.221 204.544C154.1 204.278 154.797 204.49 154.697 204.521C154.697 204.69 150.784 206.517 152.139 205.76C151.9 205.942 151.643 206.088 151.369 206.199C152.578 205.409 142.613 207.909 153.218 205.291C151.928 205.465 151.645 205.435 152.369 205.2C151.067 205.271 151.219 206.026 150.39 206.292C150.379 206.002 150.486 205.762 150.711 205.573C149.684 206.208 149.244 206.902 147.701 207.255C147.654 207.152 147.723 207.102 147.907 207.103C147.655 207.254 147.49 206.732 147.437 206.497C147.75 207.012 147.524 207.227 146.761 207.143C146.784 207.078 147.353 206.365 147.384 206.319C145.894 206.947 143.608 209.806 145.081 205.823C144.606 206.272 144.132 206.722 143.657 207.17C144.658 205.262 146.168 203.594 146.821 201.503C146.538 203.686 147.615 200.654 148.963 198.244C149.007 198.221 149.595 196.422 149.65 196.445C149.647 196.508 149.497 197.01 149.737 197.088C150.127 195.711 150.83 190.609 148.714 193.067C149.247 192.531 151.951 188.053 151.024 191.085C152.154 189.785 153.018 188.327 153.615 186.708C153.718 187.267 153.482 187.504 154.107 187.473C155.855 187.575 156.118 179.688 156.754 178.342C156.526 179.234 163.452 175.906 158.687 175.917C160.629 175.151 161.604 175.207 162.249 173.969C159.723 172.472 165.334 171.598 162.254 170.241C163.917 169.056 164.332 167.495 162.911 166.435C165.047 166.428 164.468 164.942 163.877 163.163C164.605 163.289 165.268 163.133 165.866 162.698C165.527 162.018 165.096 161.403 164.574 160.851C165.718 161.156 167.547 162.197 168.207 161.087C167.976 161.515 168.035 161.693 168.383 161.618C168.678 161.25 168.759 160.896 168.341 160.382C168.448 160.371 169.178 160.135 169.099 160.225C169.577 159.647 169.506 158.955 168.883 158.15C170.289 157.964 171.028 157.197 171.099 155.849C170.238 156.62 169.264 157.123 168.181 157.358C170.583 156.084 173.495 151.469 169.579 149.994C172.347 149.28 173.46 146.6 173.342 144.198C175.35 145.218 175.386 142.686 177.59 142.249C177.213 141.558 177.31 141.582 176.71 140.822C176.78 140.744 176.852 140.641 176.954 140.605C176.983 140.612 177.594 141.093 177.643 141.068C177.921 140.509 179.232 134.839 178.553 135.053C185.034 130.179 194.763 129.604 202.78 127.454C201.596 127.741 202.174 128.254 201.854 128.708ZM142.239 173.304C141.649 175.032 140.07 178.372 139.305 178.66C139.26 179.116 139.672 178.749 139.789 179.141C139.159 179.562 138.654 180.117 138.272 180.808C137.912 181.446 138.949 179.328 138.978 179.281C138.445 180.559 138.217 180.854 138.292 180.166C137.097 181.469 138.846 180.677 138.97 181.62C138.937 181.469 138.102 181.096 138.206 180.906C138.286 181.108 138.765 181.515 138.97 181.62C138.757 181.639 138.687 181.65 138.762 181.653C138.75 181.655 138.748 181.655 138.759 181.653C138.305 181.641 138.481 181.628 138.072 181.565C138.499 181.665 137.2 183.065 137.288 183.027C137.449 182.545 137.569 182.052 137.647 181.55C137.276 182.514 134.8 185.035 135.585 185.152C134.59 186.098 134.109 187.238 133.531 188.284C133.08 189.052 132.126 190.146 133.264 190.466C132.581 190.526 133.389 190.866 132.802 191.185C133.06 191.018 133.179 190.803 133.377 191.055C132.363 192.044 132.673 190.903 131.811 192.923C131.432 192.813 131.432 193.479 131.46 192.538C131.543 191.647 131.411 193.209 131.33 193.325C130.732 193.131 130.822 192.637 131.602 191.844C131.599 192.359 131.61 192.164 131.636 191.261C131.396 191.79 129.447 195.687 129.499 195.962C129.548 195.904 128.007 196.929 127.637 197.478C123.008 190.482 120.351 181.489 117.429 174.104C117.09 174.298 116.751 174.491 116.412 174.684C119.205 173.763 116.667 167.93 114.518 168.263C116.122 167.173 111.006 158.424 111.182 158.344C111.998 159.802 111.095 157.225 111.194 157.486C110.971 158.204 110.965 159.147 110.651 159.83C110.249 159.357 109.845 158.884 109.443 158.411C111.175 157.675 111.766 157.569 110.4 155.577C110.443 155.861 110.486 156.144 110.528 156.427C109.383 154.913 109.927 152.749 108.001 151.074C109.15 150.76 108.36 150.556 108.879 149.547C108.886 149.629 108.886 149.626 108.879 149.538C109.012 149.585 109.165 149.723 109.502 150.279C109.219 149.808 109.96 150.392 109.79 150.531C110.472 150.65 112.934 149.775 113.576 149.454C113.668 149.443 112.999 148.754 113.134 149.188C113.386 148.694 114.876 148.327 115.075 148.239C114.806 148.335 114.676 148.26 114.684 148.013C115.448 147.823 116.702 148.151 117.265 148.234C116.221 148.751 113.987 149.635 112.906 149.964C114.858 149.563 115.586 148.979 117.206 148.72C116.358 148.477 119.026 148.089 119.313 148.025C118.593 148.127 117.733 147.892 117.035 147.827C117.018 147.851 122.889 146.757 123.632 146.587C127.228 145.765 129.094 145.53 132.929 144.328C132.693 144.605 133.824 143.848 134.338 143.752C133.947 144.358 136.287 143.355 135.785 143.462C138.399 143.257 140.541 141.899 144.104 141.807C144.039 141.582 143.879 141.49 143.625 141.531C144.456 140.71 147.386 140.293 148.214 140.857C147.248 140.199 149.217 141.2 146.946 140.527C146.708 140.233 149.037 139.742 148.09 140.335C149.384 139.895 153.156 138.171 154.332 139.003C154.139 138.793 153.895 138.787 153.603 138.985C153.665 139.049 157.16 138.055 157.693 137.943C157.283 138.143 156.988 138.079 156.812 137.751C158.397 137.368 158.68 137.229 157.664 137.333C158.638 137.091 160.4 136.219 158.818 137.483C159.758 137.008 161.835 136.968 162.627 136.42C162.269 136.583 161.924 136.768 161.593 136.978C162.322 136.886 164.3 136.016 164.608 136.376C164.655 136.558 164.724 135.585 164.801 136.301C165.003 135.769 165.448 135.348 165.979 135.208C164.936 136.378 163.998 138.13 163.389 139.854C163.021 140.111 155.784 149.997 155.974 152.092V152.07C156.091 152.094 156.005 151.709 156.357 151.775C156.223 152.041 155.902 152.209 156.098 152.488C155.918 152.369 155.755 152.294 155.724 152.298C155.508 151.543 153.324 155.633 153.647 153.934C151.571 154.921 150.175 160.409 148.931 162.657C147.758 164.778 143.353 168.913 145.594 170.782C144.991 171.063 142.584 172.849 142.239 173.304ZM106.031 131.031C105.63 131.234 105.207 131.364 104.762 131.422C102.653 131.854 99.8581 133.03 98.4548 127.871C98.2094 128.07 98.1801 128.333 98.3665 128.66C97.1761 127.308 95.4059 122.886 95.7258 121.084C95.3799 123.036 95.6037 118.515 95.9153 123.178C96.5899 121.9 91.1871 113.729 91.6811 111.752C90.7802 110.354 91.0625 109.889 90.3859 108.318C90.8641 108.87 90.9308 109.374 90.5849 109.832C90.1755 109.075 89.8277 108.315 89.5689 107.504C89.5479 107.41 89.8188 108.423 89.7704 108.42C89.3139 107.833 89.0526 106.122 88.8205 105.341C88.7753 105.265 88.8135 105.257 88.7963 105.201C89.1041 105.608 89.3775 106.041 89.6146 106.496C88.734 104.505 88.0803 102.443 87.1463 100.507C87.7612 100.957 88.074 101.556 88.0848 102.304C88.0873 101.188 87.1329 99.7887 86.6847 98.6652C86.892 98.7903 87.0636 98.9556 87.1997 99.1612C87.0058 98.6792 86.1925 96.4393 86.7851 98.3275C85.8161 97.4836 83.6727 93.4391 84.3842 94.396C83.885 93.2757 82.9026 91.7698 82.4544 90.9623C82.7074 91.1768 82.6617 90.7944 82.771 91.0498C82.7965 90.9987 82.8251 90.9859 82.8569 91.0128C82.8333 90.9764 82.8518 90.9515 82.9135 90.9374C82.7539 90.8251 82.7558 90.7638 82.5828 90.3617C82.9503 90.3917 82.9878 90.5295 83.232 90.5117C81.9877 89.4737 81.6494 88.1696 80.9595 86.508C81.0918 86.7633 81.2246 87.0187 81.3575 87.274C80.4324 85.0302 80.5723 85.6424 81.8128 84.2693C81.2501 83.9833 80.7859 84.1729 80.4197 84.8381C80.4381 87.2255 80.4362 84.6568 80.433 84.6587C80.7675 80.5389 85.474 85.6443 84.7523 81.0706C86.0622 80.5089 87.812 79.3094 88.135 78.3851C88.1134 77.584 88.8287 77.6376 89.8677 77.2623C89.7431 77.3127 88.9146 77.5731 88.8891 77.6574C90.2677 77.4384 96.3336 75.5777 95.9134 75.0453C96.4964 75.3313 95.9928 75.0287 96.3705 75.4526C96.2008 75.2349 96.829 76.3309 95.6825 74.5327C95.8453 74.6591 96.2809 75.1078 95.7913 74.5908C95.9172 74.6821 96.0278 74.7893 96.1232 74.9119C95.9986 74.7159 96.0927 74.79 96.4068 75.1359C96.2039 74.9087 95.5827 74.3176 96.2338 74.9463C95.9712 74.7287 95.8014 74.4714 95.5624 74.2416C95.5554 74.2435 95.8301 74.458 95.6825 74.3125C95.9852 74.511 96.3572 74.9272 96.5848 75.194C95.9407 74.5985 96.4996 75.0823 95.5954 74.2276C95.6259 74.2174 95.7798 74.3776 95.6151 74.2199C95.6221 74.2174 96.0316 74.5467 96.0443 74.5602C96.0348 74.5499 95.956 74.4484 95.9852 74.4899C95.9947 74.4957 95.6781 74.1989 95.7226 74.1861C97.9462 75.8605 108.296 65.4829 111.128 67.6942C113.477 67.7222 114.288 66.6696 116.55 66.0109C119.452 65.1657 120.292 64.9199 121.263 64.3556C126.903 67.4012 136.044 63.1836 142.524 65.4638C142.077 65.1338 141.635 64.7993 141.194 64.461C142.826 66.0211 143.664 64.2867 143.594 64.3531C143.594 64.2299 143.639 64.1207 143.727 64.0256C143.779 64.1526 143.885 64.2024 143.847 64.0416C143.847 64.1265 143.728 64.3544 143.65 64.5446C143.624 64.5625 144.137 63.9682 143.656 64.5976C143.888 63.9675 143.684 64.5222 143.779 64.265C143.784 64.2618 143.841 64.4935 143.847 64.5095C143.816 64.2873 143.73 64.3914 143.853 64.0626C143.917 64.3103 143.98 64.5586 144.044 64.8063C143.923 64.8184 143.929 64.3295 143.844 64.4176C144.005 65.0214 143.895 64.6454 143.847 64.5095C143.83 64.5561 143.928 64.7233 143.939 64.7712C143.929 64.7884 143.826 64.535 143.845 64.5127C143.825 64.874 143.994 64.5529 143.728 64.7016C143.966 65.4319 144.099 65.2608 144.229 65.5474C146.587 65.9751 148.395 66.5694 150.867 67.0788C149.716 67.4082 148.715 66.6632 147.656 66.3556C148.546 66.6581 152.798 67.3092 152.791 67.3016C151.32 68.0727 153.684 66.3785 153.723 66.3664C152.787 69.3111 159.057 70.5022 161.366 71.5906C164.248 72.949 173.376 78.9762 175.026 77.0714C176.29 79.6075 178.211 80.8689 179.683 83.2339C180.12 82.759 180.555 82.2841 180.992 81.8092C181.345 82.1807 178.799 83.2959 180.612 84.4991C181.666 85.1981 183.295 85.239 184.428 85.5601C185.025 85.7292 186.498 85.4809 186.729 85.5218C187.794 85.712 188.505 88.8054 189.815 86.9229C189.053 88.3183 188.327 89.7335 187.638 91.1672C188.665 92.2582 185.918 95.303 185.733 96.7597C183.309 97.1351 179.489 107.543 178.534 109.603C178.644 109.459 179.576 109.649 179.506 109.95C175.548 109.951 175.991 116.082 171.379 117.228C171.873 117.239 172.367 117.25 172.862 117.261C170.276 117.941 167.626 117.378 164.758 118.175C162.125 118.908 160.215 120.77 157.056 120.738C158.135 120.59 157.982 120.281 159.174 120.129C157.59 120.241 154.914 120.773 154.434 120.603C154.17 121.238 154.135 121.16 153.369 121.254C155.022 121.279 148.631 122.15 152.606 121.254C150.158 121.09 147.032 122.105 144.686 122.715C147.279 122.613 140.412 124.242 146.442 122.749C143.983 123.099 147.162 122.61 147.409 122.324C147.131 122.646 145.867 123.047 147.572 122.638C146.62 122.907 144.648 123.38 144.046 123.382C142.815 123.386 143.906 124.891 143.048 125.094C142.502 122.899 144.092 122.546 145.786 122.245C143.638 122.476 142.698 122.34 142.993 124.945C142.862 124.613 142.667 124.553 142.405 124.765C142.532 124.766 142.651 124.796 142.764 124.855C141.9 125.039 142.754 125.167 141.94 125.322C141.148 125.138 141.232 125.061 140.232 125.405C140.011 124.353 139.868 123.624 138.776 123.85C140.309 123.923 135.372 124.942 135.461 124.924C136.549 124.816 137.64 124.751 138.733 124.729C138.111 125.691 130.884 126.113 130.318 126.476C128.298 126.079 125.167 126.9 124.813 128.314C124.461 128.165 124.523 127.846 124.171 127.987C124.415 127.452 124.659 126.916 124.903 126.381C120.981 127.493 117.336 128.738 113.332 129.586C113.624 129.572 113.917 129.558 114.209 129.544C114.12 129.559 111.813 130.139 111.901 130.119C111.231 130.274 111.904 130.106 110.809 130.275C112.012 129.258 108.268 130.793 107.797 130.865C109.192 130.429 106.133 130.909 106.031 131.031ZM106.898 203.443C106.848 203.448 106.168 202.923 106.17 202.862C105.992 203.336 104.347 203.089 104.441 203.058C103.933 202.927 100.725 201.664 101.242 201.901C98.9336 201.104 99.5657 201.791 99.1988 200.505C98.5197 200.53 100.158 201.365 98.5839 200.692C98.8198 200.539 99.0335 200.378 99.167 200.284C95.858 200.588 90.0133 193.358 88.5394 193.424C88.2794 192.257 84.3034 190.223 83.1296 189.221C80.2442 186.756 75.9643 181.685 73.5926 178.676C73.8088 179.249 74.3162 179.51 74.636 179.993C73.6759 179.273 72.5848 177.692 71.7671 176.025C72.1028 176.254 72.4207 176.504 72.7221 176.776C71.5025 174.863 67.3956 166.523 66.6618 167.225C67.3886 165.874 64.7359 163.957 64.9921 162.612C65.7074 162.84 65.1059 162.377 65.3355 162.412C69.6656 163.059 78.6793 159.434 83.122 158.384C83.2174 158.362 87.194 157.18 87.7052 157.253C91.6544 157.813 88.3748 156.603 90.4654 159.207C91.2005 160.123 92.1072 164.754 92.7754 164.917C92.6031 164.468 88.7931 160.127 93.1277 167.235C93.1353 167.013 93.143 166.791 93.1506 166.569C94.1101 168.027 94.7033 170.987 95.9121 172.981C95.7092 172.734 95.5242 172.476 95.3576 172.204C95.4428 172.958 96.56 175.684 96.1403 174.639C95.748 176.195 96.9256 176.333 97.8959 176.097C94.7866 177.422 99.3762 177.424 101.057 177.526C99.9503 178.78 99.7685 178.998 98.4485 180.065C98.6831 180.422 99.0741 180.545 99.6222 180.432C98.8198 181.244 101.074 182.291 102.417 183.151C97.5055 187.123 104.668 188.094 106.404 192.196C105.612 190.985 103.538 189.539 103.89 192.24C103.537 192.098 103.187 191.947 102.842 191.785C103.166 193.195 103.006 193.987 103.06 196.169C103.46 196.421 103.816 196.102 103.978 196.163C104.132 196.82 103.797 197.422 104.027 198.272C104.213 198.063 104.185 197.657 104.265 197.409C104.466 197.865 104.364 197.649 104.336 197.856C104.38 197.948 104.804 197.778 104.719 197.822C104.644 197.589 104.442 197.475 104.442 197.184C105.279 196.578 104.399 198.654 104.465 198.554C104.405 198.466 104.371 198.294 104.294 198.251C104.297 198.308 104.269 198.331 104.208 198.322C104.441 198.274 104.218 198.746 104.16 198.844C104.432 198.576 104.225 198.979 104.559 199.47C104.25 199.09 104.389 198.679 104.652 198.383C104.661 198.435 104.696 199.238 104.537 198.615C104.551 198.566 104.472 199 104.468 198.762C104.401 198.959 105.673 200.682 105.843 201.473C105.745 200.689 106.209 200.463 106.43 201.78C106.977 201.307 105.92 201.479 106.47 202.214C106.453 202.157 106.482 202.073 106.459 202.209C106.458 202.209 106.457 202.209 106.457 202.21C106.462 202.261 106.443 201.963 106.477 202.129C106.403 202.097 105.742 201.743 105.823 201.751C105.995 202.101 106.957 202.895 106.898 203.443ZM63.2976 139.368C62.2516 139.626 64.3454 140.064 63.9315 139.887C63.8902 139.83 58.654 142.335 58.6476 139.89C58.7048 140.243 58.5821 140.445 58.2814 140.498C58.2343 140.382 57.533 137.788 58.4308 139.043C58.4149 139.001 58.1338 136.39 58.0525 136.392C58.3831 136.368 58.5357 136.579 58.5096 137.028C58.5796 136.413 58.2686 134.954 58.5796 134.843C57.9685 134.844 57.8115 132.945 57.9901 133.296C58.158 131.497 57.7345 130.622 58.6514 129.705C58.441 129.44 58.0143 129.757 58.186 129.153C58.336 129.285 58.6203 129.496 58.7652 129.682C58.9013 129.101 58.7112 128.913 58.1936 129.118C58.6158 127.154 60.4585 121.957 60.1825 119.441C61.3659 119.02 63.5017 115.065 63.0502 114.465C62.6115 112.181 69.1906 102.147 68.858 100.712C68.4848 100.838 68.3093 100.6 68.13 100.438C68.4199 100.239 69.2504 100.697 69.6001 100.815C69.4303 100.758 69.9949 99.8959 69.7495 100.211C69.5479 100.1 69.5327 99.9265 69.7018 99.6904C69.8493 99.2518 69.3496 100.701 69.2478 100.68C69.3979 100.601 69.9797 99.4101 70.0426 99.3042C70.0649 99.555 69.7826 100.261 69.8194 100.442C70.1889 100.158 70.6969 98.9914 71.0314 98.4015C71.4053 99.0578 71.0409 98.3945 70.8991 98.7086C71.2476 99.4625 73.6924 101.372 72.8302 102.449C72.7405 104.541 73.5519 106.688 74.5584 107.458C73.4044 109.061 74.3257 108.676 75.0366 109.604C75.6794 109.866 78.1427 119.33 78.6355 120.51C78.6202 120.274 79.3603 119.771 79.5288 120.014C77.4852 122.288 78.9413 123.225 81.4345 124.63C80.6333 124.603 79.7914 125.011 78.9903 125.064C80.0814 126.41 81.0949 127.698 81.7715 129.235C81.5496 128.998 81.3594 128.739 81.2011 128.454C81.4771 130.577 82.0474 130.949 81.9432 131.284C81.8045 132.237 82.4881 133.499 82.9306 134.342C83.0527 134.189 83.1932 134.17 83.3528 134.29C83.3338 134.256 82.75 133.408 82.6025 133.515C82.8817 133.568 83.0152 133.457 83.0031 133.183C82.9427 133.065 84.2036 135.453 84.2672 134.842C84.5285 135.462 83.693 134.551 84.2704 135.686C83.9524 135.675 82.6731 134.479 82.5504 134.125C82.6667 134.617 83.4298 134.683 83.4539 135.098C83.1246 134.839 82.5625 135.488 84.2405 135.737C82.5485 133.919 76.1175 138.112 74.1076 137.769C73.5849 137.506 68.9458 138.378 65.8168 138.687C65.9128 138.86 66.0533 138.943 66.239 138.936C65.8454 139.374 63.0909 140.069 63.2976 139.368ZM191.194 111.908C191.638 111.558 191.13 113.436 191.295 113.301C190.88 113.151 196.016 103.649 196.544 103.026C196.578 103.391 196.769 103.645 197.117 103.789C197.196 103.454 196.533 103.024 196.61 102.625C196.359 102.796 200.482 112.576 200.875 113.736C197.032 114.485 193.178 115.17 189.332 115.899C189.424 115.7 190.534 112.795 191.194 111.908ZM228.347 118.488C232.169 117.158 234.033 116.672 236.823 115.248C228.343 116.415 244.348 110.909 236.394 110.42C238.249 109.574 232.569 110.162 231.599 110.143C231.346 109.923 229.602 109.753 231.691 108.669C228.825 108.221 225.704 108.967 221.11 109.963C221.116 109.794 221.114 109.968 221.114 109.821C222.3 109.545 223.483 109.258 224.665 108.961C223.474 109.134 222.291 109.357 221.118 109.631C221.168 107.848 219.619 104.508 219.041 102.561C219.355 103.273 219.621 103.999 219.874 104.733C219.426 102.82 218.608 99.4197 216.869 98.436C216.869 97.8155 218.591 101.015 218.196 100.101C217.695 99.4223 217.339 98.9537 216.835 98.4928C216.888 98.888 217.218 99.4899 216.681 98.4226C216.701 98.4916 216.966 99.3814 216.754 99.594C216.768 99.059 216.239 98.6326 216.207 98.0728C216.361 98.3409 216.361 98.2675 216.207 97.8519C216.248 97.9739 216.312 98.076 216.4 98.1596C215.591 94.5907 213.276 91.2311 211.436 87.9934C211.868 88.6758 212.306 89.355 212.749 90.0303C211.645 88.0751 210.293 86.644 209.324 84.7002C207.262 80.5689 207.21 80.3422 209.188 76.336C211.569 71.5146 214.044 66.7373 216.471 61.9395C216.071 62.7757 215.68 63.6158 215.278 64.4501C225.343 43.81 235.154 22.2079 247.71 3.30089C247.424 3.40749 247.139 3.5141 246.854 3.62134C247.061 3.22429 247.268 2.82724 247.475 2.43019C246.721 3.08066 245.52 3.22365 244.682 3.77454C244.938 3.24472 244.15 1.04563 244.229 0.23877C237.866 12.8262 233.687 21.2319 226.114 31.9847C227.609 29.8093 225.559 32.1462 225.157 32.872C224.252 34.5081 223.806 36.7263 222.773 38.2794C222.125 39.2535 221.147 39.3518 220.843 39.7923C219.336 41.9792 218.177 44.6558 216.596 47.3343C214.231 45.7314 212.093 52.4206 211.049 54.5003C211.049 54.4965 211.465 54.3669 211.465 54.3905C210.948 55.2982 209.96 55.3678 209.811 55.3844C208.866 56.2059 209.388 56.227 208.365 56.2328C208.139 56.85 205.571 63.8948 206.422 63.9643C206.261 64.0371 207.161 63.2117 207.102 63.2545C206.918 63.4045 206.845 64.0231 206.841 63.995C206.261 64.025 205.148 63.6241 204.621 63.5181C204.631 63.4039 205.036 64.1265 204.37 64.4635C204.343 64.2637 204.32 63.4147 204.32 63.4096C203.844 64.2982 204.1 64.4048 203.469 65.2506C204.433 65.6579 204.177 66.0836 205.099 66.5528C204.475 66.9626 203.132 68.3714 202.457 68.4934C202.476 68.7244 202.796 68.5489 202.75 68.8827C201.018 68.967 202.421 69.9564 202.66 70.5654C202.472 70.8508 201.479 71.8466 201.03 72.2934C199.485 70.9484 199.845 71.0301 199.826 70.0152C199.785 69.9915 199.226 70.2545 199.268 70.3107C199.809 69.9647 199.543 69.9411 199.871 69.9539C199.411 69.5741 197.623 68.9836 196.853 68.8891C196.731 67.5671 195.565 66.4105 194.544 65.2417C194.163 65.6725 193.697 64.5791 194.396 66.219C193.877 65.0923 189.439 62.3768 188.645 61.9363C187.286 61.1831 187.494 59.4698 184.777 60.5811C184.982 57.0307 182.6 57.4488 179.771 56.6158C180.486 55.4278 180.312 55.6519 180.389 54.8412C177.482 55.7368 176.751 52.8649 174.688 53.7094C174.815 51.1662 172.738 52.0612 172.157 50.2879C171.783 51.9891 171.064 53.5268 169.999 54.9012C169.418 53.3928 169.19 51.8333 169.315 50.2202C169.404 51.2352 166.379 49.0374 167.646 49.3961C168.463 49.8519 164.19 48.0958 161.771 47.2277C162.999 47.1058 164.231 47.0758 165.464 47.1383C163.089 46.191 161.852 44.666 160.196 46.6149C159.886 44.0181 157.288 44.772 155.661 44.3283C155.228 44.2109 143.368 42.2639 143.351 42.2333C143.57 42.3405 143.789 42.4452 144.011 42.5486C143.809 42.8723 143.54 42.5652 143.229 42.5716C143.51 42.5659 143.845 42.7899 143.778 43.0229C142.113 42.5461 141.561 41.9435 140.895 42.9036C140.912 42.8774 140.9 42.8812 140.859 42.9138C140.218 41.5203 139.356 41.4992 137.847 41.2598C137.356 41.1813 136.016 41.6467 134.855 41.7814C133 41.9971 131.151 42.1522 129.302 42.4197C127.802 42.6367 125.452 45.674 125.49 43.058C124.692 45.118 122.353 41.4488 119.459 42.6935C119.393 42.1458 117.545 43.7308 117.098 43.9792C114.836 45.2386 113.982 44.9845 114.092 47.1881C113.326 45.1537 108.991 42.7216 106.327 45.8757C106.157 46.0755 106.313 49.054 105.944 50.3881C104.646 49.2116 104.619 48.1552 102.686 47.9362C101.581 49.135 97.3764 49.2129 95.8154 49.7964C94.3949 50.3281 95.3392 50.0983 94.4286 50.4443C93.5671 50.7711 87.6435 52.6561 89.6388 52.0223C85.5529 53.3194 79.8741 56.8098 78.6685 57.865C76.6936 59.4162 75.3717 61.2871 73.3942 62.7974C70.7675 56.1523 68.7277 51.6801 66.2714 44.599C66.4418 44.8505 66.6122 45.102 66.7826 45.3535C65.6076 41.8267 63.7865 38.6586 62.3902 35.2243C62.0869 35.3469 63.7147 39.2925 63.6975 39.828C63.164 37.0647 60.6493 33.6438 61.6062 32.6039C60.1145 28.7477 58.3634 24.896 56.8017 21.0212C57.7269 23.6857 58.9719 26.2269 59.9307 28.8792C59.7406 28.4854 59.5499 28.0928 59.3598 27.6989C59.602 28.2038 61.2552 31.6975 61.1808 31.5066C61.1732 32.0875 61.3824 32.4986 61.0104 33.1082C60.7637 32.5095 61.1649 32.1252 61.1153 31.5322C61.0193 31.9094 60.9239 32.2867 60.8286 32.6639C59.6726 29.854 58.9198 25.653 57.2634 23.2861C57.6805 23.9831 58.0633 24.6981 58.4124 25.4322C56.494 21.341 55.0347 17.0501 53.4203 12.8345C53.6912 13.4199 53.9614 14.0059 54.2317 14.5912C53 11.397 52.0176 9.19086 50.1521 7.20817C51.8154 7.56054 52.8544 9.54706 53.1927 11.3606C51.6412 7.36074 48.9681 6.14278 45.6185 3.2511C46.021 4.20542 45.9421 5.37103 46.2899 6.34833C45.923 6.28067 45.5562 6.21236 45.1886 6.1447C45.2891 6.18364 46.3491 6.67516 46.3611 6.67516C46.0788 6.62792 45.7965 6.58069 45.5148 6.53281C46.3217 7.79609 47.5502 11.434 48.9338 10.5856C48.3978 12.3762 47.919 13.958 48.5408 14.8746C48.4321 14.9391 47.4726 15.137 47.2907 15.1325C49.8793 20.2705 50.8477 25.3371 51.9521 30.4195C53.187 36.1039 56.3064 42.3361 56.873 48.0039C57.1922 47.6681 57.5107 47.3317 57.8293 46.9953C58.001 47.1198 58.172 47.2436 58.3437 47.3668C55.387 48.4488 59.8926 61.8636 60.8852 64.6537C60.8763 64.6301 60.8979 64.6014 60.9398 64.7157C60.9239 64.7214 61.2775 63.746 61.2234 63.9273C61.5216 64.4067 61.156 65.2697 61.0581 65.8098C60.6518 65.5704 60.2449 65.3304 59.8379 65.0904C61.4816 68.8776 63.2937 71.1138 61.8866 74.6961C61.0384 76.8569 59.2688 77.4199 58.5065 78.8121C58.2903 79.2066 57.2061 84.1965 56.5563 86.1384C55.4716 85.4432 54.3455 84.3868 54.5865 86.4237C53.8094 85.8001 50.5278 89.4731 49.6357 91.9709C48.9255 93.96 49.1945 95.3784 48.6991 96.3206C48.1549 97.3579 47.5279 96.2969 46.749 97.9911C45.9434 99.7433 46.9894 100.758 46.6892 102.623C41.6489 101.217 46.3885 116.669 41.8873 117.596C42.7737 118.977 42.6599 120.355 43.8413 121.442C43.4699 123.156 42.1951 117.725 43.8801 122.594C39.2492 122.419 39.7095 124.534 39.3274 128.772C39.0146 132.239 40.0135 136.444 39.3166 139.751C37.9508 146.233 41.8892 141.067 37.1782 143.675C35.2192 144.758 31.3933 144.886 29.0298 145.363C24.5509 146.266 18.029 146.017 14.1326 148.158C10.2965 150.267 10.1325 153.72 9.11193 157.218C10.3385 157.147 11.3164 157.66 12.0457 158.76C6.8871 161.085 8.62932 165.99 5.97656 169.54C7.79381 170.254 9.63714 169.297 11.8009 168.737C10.5884 169.991 8.99366 171.289 9.03499 173.238C11.1015 173.205 19.6352 173.982 20.8522 171.082C20.8134 171.326 20.8001 171.572 20.8128 171.819C21.6063 170.468 24.0111 166.486 23.6544 170.361C25.2135 167.051 25.7037 169.61 26.0738 171.534C27.9349 171.082 32.4087 167.384 33.0656 165.989C34.0429 167.187 33.7065 168.04 33.5774 170.122C35.8417 169.675 39.9556 168.069 42.2815 168.143C45.9211 168.26 43.4992 166.846 46.2518 170.611C47.1159 171.792 46.3567 170.941 47.9514 171.139C44.4555 174.064 58.1116 190.77 61.0149 194.251C61.7099 195.085 83.2619 214.874 83.9264 213.538C82.9103 212.929 81.9826 212.61 81.0466 212.073C87.3345 216.203 93.6046 219.298 100.657 221.864C99.0907 221.189 97.524 220.513 95.9572 219.837C97.8718 220.486 103.528 223.09 103.917 223.18C105.989 223.656 109.892 223.668 111.564 225.002C112.975 226.129 111.011 229.387 114.001 228.771C111.717 230.642 118.23 242.368 118.387 245.277C118.215 244.557 118.043 243.844 117.911 243.117C118.647 244.18 119.09 246.151 119.648 247.676C119.824 247.528 120.627 247.708 120.809 247.556C120.809 249.212 119.533 250.301 120.865 253.213C120.659 252.67 120.534 251.942 120.352 251.349C121.794 253.183 122.865 253.855 125.021 255.975C123.126 252.142 127.117 242.677 130.657 240.409C129.991 240.87 130.008 240.653 130.71 239.759C130.64 240.139 130.451 240.383 130.147 240.489C130.142 240.099 131.039 238.565 131.294 238.048C131.733 239.066 131.541 239.802 130.657 240.409C131.785 239.649 132.276 237.629 133.432 236.155C133.407 236.141 133.383 236.124 133.36 236.106C132.34 237.259 131.715 238.429 131.379 239.82C131.449 239.597 131.35 237.944 131.329 237.958C131.277 238.044 131.245 238.019 131.233 237.881C131.421 238.242 130.892 239.243 130.804 239.508C130.883 239.262 130.771 237.052 131.233 237.881C131.244 237.899 133.063 235.886 132.872 235.725C133.205 236 132.899 235.783 132.886 236.237C133.65 237.819 132.998 235.769 133.111 235.919C133.047 235.867 133.067 235.88 133.169 235.96C132.805 235.797 132.62 235.107 132.417 235.012C134.499 235.853 135.509 231.725 136.458 229.744C136.612 230.11 136.766 230.477 136.92 230.844C137.486 229.54 138.157 228.275 138.774 226.993C139.744 227.733 143.012 226.958 145.127 226.673C144.294 226.848 143.466 226.871 142.646 226.744C143.495 226.492 145.197 226.048 146.051 226.117C144.422 226.413 142.365 226.628 140.797 226.601C143.699 226.259 146.668 225.356 148.053 224.966C147.834 225.881 145.844 226.677 148.127 226.097C145.96 226.928 143.407 227.098 140.994 227.409C144.736 227.037 147.581 226.22 150.941 225.521C150.351 225.329 150.86 224.989 149.711 225.241C150.042 224.627 150.089 225.069 149.648 224.556C149.77 224.531 150.386 224.358 150.212 224.586C150.317 224.449 150.669 224.04 150.732 223.993C150.744 223.985 150.761 223.972 150.758 223.974C150.733 223.991 151.642 225.661 151.775 225.877C154.184 223.93 159.466 224.134 162.876 222.83C162.284 223.085 161.675 223.28 161.048 223.414C164.665 222.048 170.131 217.89 173.701 217.095C169.759 218.827 166.157 220.697 162.062 222.175C164.2 220.888 166.627 220.593 168.805 219.487C168.757 219.517 174.403 216.812 175.336 216.105C177.569 216.866 180.561 213.918 183.005 212.358C181.644 213.07 183.478 211.958 183.871 211.636C183.731 211.768 183.623 211.87 183.454 211.979C184.053 212.022 184.718 211.58 185.509 211.607C185.394 211.684 185.27 211.742 185.137 211.779C185.28 211.744 186.38 211.375 185.604 211.615C186.962 211.023 191.09 206.738 191.512 206.862C192.881 206.455 198.142 203.75 198.142 202.203C198.951 200.987 199.349 200.714 199.755 199.271C199.541 199.68 199.274 200.046 198.95 200.365C199.027 199.972 199.033 199.842 199.38 199.603C199.347 199.519 199.605 198.474 199.46 198.651C199.724 199.047 200.002 198.548 199.755 199.271C199.25 200.679 203.403 197.49 202.304 197.282C201.059 199.086 201.247 198.837 199.89 198.893C199.893 198.882 202.528 198.43 201.481 196.352C201.754 196.241 204.535 193.797 204.494 193.84C205.05 193.297 204.892 193.209 204.688 192.518C204.688 192.965 206.015 189.225 205.064 192.387C206.277 189.642 209.883 187.077 211.38 185.183C212.422 183.866 212.395 181.454 213.5 179.551C215.438 179.731 214.964 177.226 216.696 176.773C216.825 173.926 218.952 166.264 221.454 164.531C221.153 164.255 220.834 164.388 220.498 164.929C221.311 164.341 221.174 164.087 220.843 163.594C220.993 163.567 222.149 160.389 222.401 160.08C222.26 160.5 222.146 160.927 222.057 161.362C222.215 160.379 222.544 159.987 222.869 159.173C222.409 159.003 223.008 159.133 222.257 157.883C222.421 158.271 222.522 158.676 222.561 159.099C222.534 159.062 222.121 158.899 222.055 158.999C222.011 158.28 221.887 157.13 222.438 156.965C221.91 157.112 222.357 156.754 222.263 156.095C222.839 156.598 222.341 157.273 222.248 157.859C222.764 157.044 222.614 157.058 222.594 156.524C222.709 156.75 222.627 156.914 222.892 156.824C222.976 155.621 223.969 153.755 223.49 152.292C223.802 153.315 223.029 155.299 221.867 155.123C222.165 153.61 224.416 154.851 222.716 151.528C223.319 152 223.152 152.682 223.193 153.353C223.21 152.85 222.752 151.137 222.801 151.061C224.02 151.743 223.49 153.135 223.54 154.226C224.245 154.249 223.395 151.273 222.905 150.978C224.365 150.757 223.739 149.081 223.794 148.702C223.884 149.283 223.693 149.921 223.838 149.042C223.991 149.411 223.944 149.632 223.696 149.704C223.592 148.46 225.189 145.574 223.521 145.738C223.373 144.13 223.719 142.68 224.95 142.24C224.854 142.014 224.573 141.993 225.179 142.153C224.8 141.241 224.924 139.797 224.932 139.569C224.937 139.557 225.196 139.872 225.252 139.733C224.275 138.943 224.709 131.72 224.651 130.729C225.004 133.315 223.712 123.654 224.777 127.934C224.615 126.859 224.452 123.176 223.897 122.265C224.18 122.73 224.178 126.084 224.306 126.779C224.386 125.125 222.33 121.107 223.764 119.702C225.142 118.352 227.621 121.409 228.347 118.488Z" fill="black"/>
</svg>
