<svg width="256" height="256" viewBox="0 0 256 256" fill="none" xmlns="http://www.w3.org/2000/svg">
<path fill-rule="evenodd" clip-rule="evenodd" d="M109.34 118.129C109.521 118.327 109.97 118.146 110.033 117.833C116.865 83.5058 117.424 44.5891 145.375 18.7034C171.536 -5.52494 211.528 -6.50971 236.741 18.7034C261.954 43.9165 262.267 85.1727 236.741 110.069C209.429 136.708 171.542 138.337 137.506 145.139C137.189 145.202 136.945 145.607 137.12 145.76C147.124 154.49 159.682 161.825 163.131 164.099C163.784 164.529 163.828 164.999 163.282 165.426C161.099 167.136 154.915 171.6 150.355 176.209C145.457 181.017 141.482 186.626 139.744 188.887C139.205 189.589 138.693 189.684 138.295 189.113C135.392 184.939 126.504 167.608 114.889 154.311C114.758 154.161 114.223 154.142 114.082 154.287C107.525 161.002 92.655 176.517 77.8817 193.84C57.1389 218.164 35.1393 248.069 30.2467 254.772C29.5942 255.667 29.0515 255.691 28.6752 254.9C27.2526 251.908 23.2303 244.138 17.2686 238.176C11.3191 232.226 3.56807 228.208 0.563385 226.778C-0.240127 226.396 -0.191895 225.821 0.757902 225.116C7.601 220.033 37.1369 197.921 61.2062 177.165C78.3953 162.342 93.8163 147.507 100.548 140.916C100.713 140.753 100.666 140.124 100.483 139.965C87.4825 128.683 71.0222 120.401 66.5229 117.271C65.8095 116.775 65.8678 116.16 66.6363 115.554C69.0283 113.67 74.6757 109.442 79.2031 105.057C83.7735 100.441 87.9585 94.7682 89.7712 92.4234C90.3341 91.6952 90.9505 91.7323 91.4985 92.5634C94.0278 96.3986 100.081 108.002 109.34 118.129ZM125.903 130.488C125.2 130.503 124.99 130.268 124.976 129.606C124.771 120.143 124.441 62.588 154.706 32.4336C173.092 14.1145 205.107 13.6311 223.46 31.9841C241.813 50.3366 241.599 82.6239 223.01 100.738C192.453 130.518 135.454 130.287 125.903 130.488Z" fill="black"/>
</svg>
