<svg width="256" height="256" viewBox="0 0 256 256" fill="none" xmlns="http://www.w3.org/2000/svg">
<path d="M160.076 71.5697C157.646 74.5784 147.76 78.2723 146.141 82.6212C139.388 78.2622 130.104 72.3986 123.326 72.2836C135.39 68.182 139.366 69.073 146.324 71.7575C151.75 72.0878 160.732 71.3692 165.153 69.801C163.919 70.4153 162.503 68.5617 160.076 71.5697ZM126.221 74.2067L126.218 74.1827C126.141 74.0283 126.284 73.9033 126.387 74.053L126.221 74.2067ZM245.356 38.2734C248.386 33.6905 243.984 29.1029 242.686 27.4351C241.389 25.7666 240.383 20.0166 238.734 19.1677C237.084 18.3201 232.246 20.8949 231.804 22.2212C231.362 23.5467 226.705 27.5046 223.039 31.9104C187.746 42.1036 194.043 37.1778 184.726 46.8135C184.726 46.8135 181.991 47.4927 179.948 47.7728C176.746 48.2106 174.546 50.6892 171.489 53.1217C171.489 53.1217 169.135 49.8075 168.33 49.0569C167.356 48.1498 163.162 44.8423 159.238 46.5635C155.017 48.4145 123.289 49.5315 123.289 49.5315C123.289 49.5315 113.586 46.4546 101.901 48.3416C100.833 48.5141 96.058 50.0121 95.034 50.2654C93.5326 50.6364 91.929 50.2708 90.5841 50.8443C90.5841 50.8443 101.726 53.8978 103.73 56.4941C102.001 56.4279 99.9785 59.1111 96.314 60.2976C84.7411 57.1211 74.5532 57.2895 61.3479 56.9754C57.4435 56.8825 49.7362 58.3584 40.5276 61.1565C35.5724 62.6626 33.5971 57.7628 27.4346 61.2602C21.968 64.3624 6.99068 70.3511 9.23468 70.8404C16.0242 72.3217 21.9954 69.4968 19.2728 71.8992C14.4159 76.184 4.61767 78.6613 0 86.668C4.94588 84.148 10.1097 83.2262 15.1391 84.7476C20.7715 86.4521 24.7334 88.4669 29.0162 89.3726C38.158 91.3058 43.1453 90.2757 50.0965 93.0143C53.9007 94.513 60.0271 94.0986 63.8045 94.6701C66.5211 95.0805 66.4629 100.02 74.6388 104.824C68.9061 103.845 62.0084 98.2577 60.1688 98.4462C53.3833 106.843 50.134 107.365 33.9641 112.575C28.6379 114.291 22.7154 117.954 14.9459 120.883C33.92 122.715 36.5577 128.239 47.8639 126.948C36.4534 134.679 28.3631 148.095 13.2788 152.765C21.3036 153.35 37.1205 149.192 44.0811 145.644C42.7188 148.672 34.3043 155.97 30.438 158.033C33.8805 157.769 44.5103 158.943 47.8793 152.071C43.4334 161.138 31.8972 168.675 19.4112 174.641C25.3979 174.249 33.6833 171.642 41.9361 166.047C37.6961 173.375 22.4039 187.579 8.54484 194.897C18.2916 192.699 24.1539 193.825 29.2502 191.66C34.2081 189.553 40.9675 186.089 45.1065 182.812C50.6106 178.453 54.4582 170.617 65.7965 161.747C52.7042 180.807 48.3044 189.769 39.9401 196.207C42.3458 195.699 49.8499 196.138 53.1761 193.929C51.6875 197.952 36.8959 212.344 22.2916 222.184C33.3852 218.835 54.62 204.493 61.4348 197.869C61.2798 199.171 56.6761 210.166 51.4976 216.053C55.636 213.735 70.1461 202.431 72.7397 197.738C75.7471 192.295 98.3508 162.381 101.614 158.476C101.329 160.835 78.3741 198.833 77.6662 206.468C77.3246 210.153 72.8754 216.51 71.9563 220.679C70.7464 226.17 70.2832 231.855 67.4469 237.214C74.3928 233.077 94.4899 203.347 102.9 191.891C102.501 196.915 100.022 204.476 99.2486 211.062C98.925 213.82 97.9544 220.787 96.169 223.874C94.5647 226.65 94.2706 231.89 93.8221 235.188C99.0032 230.557 108.178 221.909 111.342 216.47C112.999 213.62 118.076 207.167 120.205 199.669C122.223 202.875 122.249 202.43 122.86 204.92C123.35 206.915 121.436 210.318 121.409 213.557C121.37 218.118 120.292 222.343 120.553 224.504C128.417 215.373 131.943 196.767 134.024 186.124C134.423 195.034 136.055 197.571 136.572 200.177C137.226 203.478 136.347 208.498 136.132 216.552C144.369 199.646 145.163 199.196 145.99 188.102C148.038 192.927 148.171 202.665 148.724 209.273C149.002 212.581 157.101 217.407 160.663 218.853C156.071 209.068 155.904 186.661 155.904 186.661C155.904 186.661 155.145 173.031 159.32 168.237C161.101 166.191 165.756 166.358 168.431 164.663C177.378 158.996 189.251 160.404 193.007 163.735C196.008 166.398 198.902 171.961 193.801 176.759C198.955 174.398 204.972 171.078 210.386 165.971C210.386 165.971 212.859 173.179 209.917 178.849C214.116 174.211 221.158 174.15 224.635 168.798C227.166 164.9 233.732 175.915 235.061 175.993C236.039 176.05 242.326 171.952 243.58 171.02C244.835 170.089 246.09 159.669 249.37 157.422C252.65 155.175 253.76 152.893 255.181 151.423C256.602 149.953 255.794 149.365 255.546 148.781C255.3 148.196 252.7 147.221 251.09 147.188C249.481 147.158 248.74 147.673 246.8 147.327C253.859 139.253 250.339 126.143 245.869 120.344C246.201 125.993 243.025 134.127 238.81 139.817C237.499 141.589 237.576 138.39 233.951 143.814C233.398 144.641 229.688 141.489 225.364 142.247C227.526 135.174 224.076 123.698 218.723 118.241C218.964 128.988 217.125 135.761 215.465 136.674C214.758 137.063 212.994 137.63 211.9 141.03C211.9 141.03 208.102 138.968 206.363 138.483C204.623 137.998 202.975 137.357 202.058 134.426C201.14 131.497 189.44 128.806 186.243 130.466C180.689 133.351 176.643 131.419 172.028 132.497C168.035 133.431 164.04 137.607 162.76 135.004C162.063 131.381 164.954 121.309 166.795 112.74C167.848 107.837 167.343 102.669 168.697 101.395C174.685 95.7624 190.534 93.7249 193.203 92.1086C195.871 90.4923 201.191 85.6406 204.727 85.2817L212.874 76.4267C214.43 82.7101 217.608 80.6894 217.699 82.3218C218.069 89.0123 220.674 96.4362 219.613 99.3493C226.717 93.8412 227.602 69.7368 227.602 69.7368C232.461 69.8404 237.426 67.7916 239.402 64.1131C240.967 68.3551 242.437 66.3538 243.467 67.4801C248.294 72.7555 246.493 78.0931 244.951 83.1787C257.64 69.7181 253.178 58.8557 249.236 53.2661C249.236 53.2661 250.344 48.3129 249.378 44.0562C249.062 42.6645 247.517 38.8556 245.356 38.2734Z" fill="black"/>
</svg>
