<svg width="256" height="256" viewBox="0 0 256 256" fill="none" xmlns="http://www.w3.org/2000/svg">
<path fill-rule="evenodd" clip-rule="evenodd" d="M117.723 163.25H138.239V157.523H123.539V107.019L131.275 97.9605L123.539 99.3597V91.6009H117.723H68.0133V42.1087L111.882 25L143.845 25.0706L188.893 42.5832L188.944 91.6009H138.36V115.544L172.076 119.083L175.307 97.8651H188.951L189.053 184.781L138.182 230.929V185.094H117.545V230.931L68.0133 185.094V97.8651H80.7758L84.0074 119.083L117.723 115.544V163.25ZM198.637 124.1V99.3519L221.964 102.808L223.612 114.368L234.642 117.704L222.889 153.928L235.289 148.305L246.172 103.132L198.637 93.5623V46.5502L255.905 68.8135L252.171 151.9L239.567 150.302L238.147 161.477L229.653 163.619L229.97 167.624L237.676 166.428L237.991 173.495L232.565 176.925L233.394 189.007L227.564 206.971L198.637 189.262V135.797L210.451 121.963L198.637 124.1ZM0.643407 83.1286L0 68.8135L58.2697 46.0884V93.5623L10.7335 103.132L21.6174 148.305L34.0169 153.928L22.2642 117.704L33.2946 114.368L34.9425 102.808L58.2697 99.3519V189.262L28.3406 206.817L22.5115 189.007L23.3403 176.925L17.9132 173.495L18.2291 166.428L25.9344 167.624L26.2517 163.926L17.7579 161.477L16.3383 150.302L3.73341 151.9L0.83273 87.3569L5.13849 82.3158L0.643407 83.1286Z" fill="black"/>
</svg>
