<svg width="256" height="256" viewBox="0 0 256 256" fill="none" xmlns="http://www.w3.org/2000/svg">
<path d="M230.009 237.041C229.977 238.197 228.885 238.666 228.323 238.617C202.298 236.307 176.219 234.883 150.14 234.342C141.946 234.171 133.799 233.942 125.555 233.944C92.8475 233.96 60.0454 235.505 27.3215 238.298C26.7834 238.344 25.7156 238.274 25.7079 236.65C25.7019 235.446 25.7097 237.912 25.7079 236.667C25.7049 234.993 26.7864 234.543 27.3257 234.497C57.9581 231.899 88.6789 230.519 119.457 230.348C121.759 230.336 124.061 230.33 126.366 230.331C160.347 230.347 194.431 231.846 228.439 234.843C228.962 234.889 230.015 235.444 230.009 236.697C230.003 237.95 230.045 235.787 230.009 237.041Z" fill="black"/>
<path fill-rule="evenodd" clip-rule="evenodd" d="M127.025 91.2163C127.025 91.2163 95.865 76.1539 79.4034 70.441C64.6838 65.3318 36.1064 64.1272 18.0568 80.3088C4.83679 92.1611 -2.94015 108.768 1.04626 129.54C5.16167 150.984 17.5879 167.579 22.131 177.713C29.0467 193.144 30.3481 209.534 30.3481 209.534L46.0202 208.944C46.0202 208.944 38.6093 168.22 25.1493 143.698C14.409 124.132 23.4317 82.6218 62.4687 87.5613C87.3917 90.7152 128.045 107.967 128.045 107.967L127.025 91.2163Z" fill="black"/>
<path fill-rule="evenodd" clip-rule="evenodd" d="M127.133 106.164C127.133 106.164 132.293 90.2954 115.046 87.8152C60.1173 79.9164 44.7145 108.212 46.3593 128.347C48.0816 149.428 60.1412 158.235 65.7706 179.009C70.4826 196.399 70.5758 210.699 70.5758 210.699L84.2078 210.428C84.2078 210.428 86.4647 192.222 76.1036 161.214C71.3498 146.986 54.3017 122.448 73.9883 109.6C81.3794 104.776 95.3835 99.6777 111.077 103.967C124.528 107.643 128.152 120.585 128.152 120.585L127.133 106.164Z" fill="black"/>
<path fill-rule="evenodd" clip-rule="evenodd" d="M25.9828 187.656C25.9828 187.656 27.6281 192.253 24.7979 194.698C23.2493 196.035 23.4966 199.006 24.1583 200.108C26.8935 204.66 27.3689 204.471 26.0389 205.357C23.5485 207.016 30.7036 209.752 35 210.616C39.2964 211.48 42 208.5 42 208.5C42 208.5 47.1194 203.679 46.2272 203.725C42.5597 203.912 49.1344 197.67 46.2463 193.17C45.0095 191.243 41.6316 190.598 40.7669 186.522C39.7809 181.875 33.0508 188.564 33.0508 188.564L25.9828 187.656Z" fill="black"/>
<path fill-rule="evenodd" clip-rule="evenodd" d="M66.7348 182.697C66.7348 182.697 67.9203 186.405 64.0336 191.723C62.6953 193.554 62.5937 196.615 63.618 197.621C64.6422 198.627 67.0687 202.684 65.9113 203.053C63.0506 203.965 73.435 206.033 78.5 207.5C83.5656 208.968 90.2012 201.719 90.2012 201.719C90.2048 202.146 88.5523 201.023 88.2561 199.669C87.8572 197.844 91.1162 196.431 90.1409 191.685C89.8387 190.213 87.5902 189.386 84.9463 187.794C82.5025 186.323 81.8629 183.116 81.8629 183.116L66.7348 182.697Z" fill="black"/>
<path fill-rule="evenodd" clip-rule="evenodd" d="M128.975 91.1512C128.975 91.1512 160.135 76.0888 176.597 70.3759C191.316 65.2667 219.893 64.0621 237.943 80.2437C251.163 92.096 258.94 108.703 254.954 129.475C250.838 150.919 238.412 167.514 233.869 177.648C226.953 193.079 225.652 209.469 225.652 209.469L209.98 208.879C209.98 208.879 217.391 168.154 230.851 143.633C241.591 124.067 232.569 82.5567 193.532 87.4962C168.608 90.6501 127.955 107.902 127.955 107.902L128.975 91.1512Z" fill="black"/>
<path fill-rule="evenodd" clip-rule="evenodd" d="M128.867 106.099C128.867 106.099 123.707 90.2303 140.954 87.7501C195.882 79.8513 211.285 108.147 209.641 128.282C207.918 149.362 195.859 158.17 190.229 178.944C185.517 196.334 185.424 210.634 185.424 210.634L171.792 210.363C171.792 210.363 169.535 192.157 179.896 161.148C184.65 146.921 201.698 122.383 182.012 109.535C174.62 104.711 160.617 99.6126 144.923 103.902C131.472 107.578 127.848 120.52 127.848 120.52L128.867 106.099Z" fill="black"/>
<path fill-rule="evenodd" clip-rule="evenodd" d="M230.017 188.021C230.017 188.021 228.372 192.618 231.202 195.063C232.751 196.4 232.503 199.371 231.842 200.473C229.107 205.025 228.631 204.836 229.961 205.722C232.451 207.381 221.796 208.136 217.5 209C213.204 209.864 209.773 209 209.773 209C209.773 209 208.881 204.044 209.773 204.089C213.44 204.277 206.866 198.035 209.754 193.535C210.99 191.608 214.368 190.963 215.233 186.888C216.219 182.24 222.949 188.929 222.949 188.929L230.017 188.021Z" fill="black"/>
<path fill-rule="evenodd" clip-rule="evenodd" d="M189.265 182.632C189.265 182.632 188.08 186.34 191.967 191.658C193.306 193.489 193.406 196.55 192.382 197.556C191.358 198.562 188.932 202.619 190.089 202.988C192.95 203.9 181.565 204.033 176.5 205.5C171.434 206.968 165.799 201.653 165.799 201.653C165.795 202.08 167.448 200.958 167.744 199.604C168.143 197.779 164.884 196.366 165.859 191.62C166.161 190.147 168.411 189.321 171.054 187.729C173.498 186.258 174.137 183.052 174.137 183.052L189.265 182.632Z" fill="black"/>
<path fill-rule="evenodd" clip-rule="evenodd" d="M127.738 180.969L138.227 180.877C138.227 180.877 138.73 184.23 140.222 185.939C142.077 188.064 142.356 188.843 142.231 190.113C141.952 192.947 139.755 195.091 138.299 198.472C136.895 201.733 138.171 201.551 139.218 201.938C140.112 202.268 135.404 206.81 135.404 206.81H120.072C120.072 206.81 115.31 202.129 116.316 201.948C118.131 201.624 117.183 198.842 117.121 198.712C115.529 195.394 113.875 193.577 113.736 189.646C113.687 188.265 115.462 186.625 116.288 184.734C117.062 182.962 117.457 180.557 117.457 180.557L127.738 180.969Z" fill="black"/>
<path fill-rule="evenodd" clip-rule="evenodd" d="M128.031 118.006L132.649 119.153C132.649 119.153 134.632 114.891 136.094 114.067C137.424 113.317 137.719 109.872 137.715 109.329C137.705 107.825 136.475 103.581 135.374 100.262C135.331 100.133 135.288 100.001 135.246 99.8664C135.132 98.7956 134.694 94.8731 133.672 93.7796C133.459 92.8049 133.333 92.1647 133.333 92.1647H122.728C122.728 92.1647 122.603 92.8049 122.389 93.7796C121.367 94.8731 120.93 98.7956 120.816 99.8664C120.774 100.001 120.731 100.133 120.688 100.262C119.587 103.581 118.356 107.825 118.347 109.329C118.343 109.872 118.638 113.317 119.968 114.067C121.429 114.891 123.413 119.153 123.413 119.153L128.031 118.006Z" fill="black"/>
<path fill-rule="evenodd" clip-rule="evenodd" d="M139.897 101.423C139.763 101.794 139.694 102.147 139.676 102.335C138.912 110.415 137.067 130.07 137.067 134.934V138.484H140.187C145.484 138.484 165.827 135.794 170.21 135.223C170.728 135.155 171.547 135.959 171.474 136.428C171.141 138.562 170.218 144.268 170.218 148.265C170.218 152.028 171.037 156.942 171.411 159.248C171.52 159.928 170.749 160.87 170.26 160.807C165.968 160.251 145.322 157.538 140.002 157.538H137.067V160.83C137.067 165.235 138.826 183.544 139.665 191.07C139.685 191.251 139.787 191.396 139.925 191.511H115.804C115.942 191.396 116.044 191.251 116.064 191.07C116.903 183.544 118.662 165.235 118.662 160.83V157.538H115.727C110.382 157.538 89.5633 160.277 85.4109 160.815C84.9582 160.873 84.1949 160.005 84.2869 159.443C84.6428 157.267 85.51 152.139 85.51 148.265C85.51 144.29 84.5975 138.628 84.26 136.462C84.1842 135.972 84.9653 135.15 85.4228 135.21C89.5866 135.754 110.206 138.484 115.542 138.484H118.662V134.934C118.661 130.07 116.817 110.415 116.053 102.335C116.035 102.147 115.966 101.794 115.832 101.423H139.897Z" fill="#010101"/>
<path fill-rule="evenodd" clip-rule="evenodd" d="M139.897 101.423C139.763 101.794 139.694 102.147 139.676 102.335C138.912 110.415 137.067 130.07 137.067 134.934V138.484H140.187C145.484 138.484 165.827 135.794 170.21 135.223C170.728 135.155 171.547 135.959 171.474 136.428C171.141 138.562 170.218 144.268 170.218 148.265C170.218 152.028 171.037 156.942 171.411 159.248C171.52 159.928 170.749 160.87 170.26 160.807C165.968 160.251 145.322 157.538 140.002 157.538H137.067V160.83C137.067 165.235 138.826 183.544 139.665 191.07C139.685 191.251 139.787 191.396 139.925 191.511H115.804C115.942 191.396 116.044 191.251 116.064 191.07C116.903 183.544 118.662 165.235 118.662 160.83V157.538H115.727C110.382 157.538 89.5633 160.277 85.4109 160.815C84.9582 160.873 84.1949 160.005 84.2869 159.443C84.6428 157.267 85.51 152.139 85.51 148.265C85.51 144.29 84.5975 138.628 84.26 136.462C84.1842 135.972 84.9653 135.15 85.4228 135.21C89.5866 135.754 110.206 138.484 115.542 138.484H118.662V134.934C118.661 130.07 116.817 110.415 116.053 102.335C116.035 102.147 115.966 101.794 115.832 101.423H139.897Z" stroke="black" stroke-width="0.8" stroke-miterlimit="2" stroke-linejoin="round"/>
<path fill-rule="evenodd" clip-rule="evenodd" d="M133.47 17.143C133.757 17.3527 134.008 17.6101 134.081 17.9481C134.18 18.4073 134.047 19.0129 134.003 19.5827C133.66 24.0158 133.257 28.3946 133.131 32.8976L133.13 32.9035C137.769 32.7919 142.384 32.3284 147.003 31.9605L147.396 31.9289L147.534 31.9176L147.898 31.9444C148.248 32.0836 148.569 32.2854 148.719 32.6169C148.815 32.8307 148.816 33.0905 148.816 33.0905L148.805 33.4542C148.786 33.5527 148.768 33.6513 148.75 33.7504C148.483 35.2399 148.194 36.746 148.157 38.2546C148.157 38.2546 148.215 39.3272 148.347 40.2935C148.474 41.2275 148.628 42.158 148.8 43.0867L148.812 43.488L148.816 43.5979L148.719 43.9497C148.513 44.265 148.253 44.5403 147.898 44.6221C147.461 44.723 146.911 44.5988 146.387 44.557C141.982 44.2088 137.586 43.7836 133.147 43.6636L133.13 43.663C133.215 46.9477 133.487 50.2162 133.736 53.4818C133.755 53.7356 134.372 54.6052 134.562 54.6655C142.066 57.0364 148.014 63.4589 149.731 71.1582C151.374 78.5267 149.011 86.6727 143.56 92.0273C138.282 97.2123 130.36 99.5236 123.08 97.9368C115.006 96.1774 108.143 89.6277 106.116 81.4411C104.644 75.4952 105.735 68.9497 109.109 63.7969C111.909 59.5197 116.191 56.2565 121.084 54.6918C121.358 54.6046 121.969 53.7858 121.994 53.4579C122.246 50.1637 122.508 46.885 122.598 43.6684L122.599 43.663C117.967 43.7741 113.357 44.2369 108.733 44.6054L108.337 44.637L108.194 44.649L107.83 44.6221C107.48 44.4824 107.159 44.2811 107.01 43.9491C106.913 43.7353 106.912 43.4755 106.912 43.4755L106.924 43.1118C106.943 43.0132 106.961 42.9147 106.979 42.8161C107.245 41.3267 107.535 39.8205 107.572 38.3119C107.572 38.3119 107.511 37.2101 107.37 36.1876C107.244 35.2823 107.095 34.3799 106.929 33.4799L106.915 33.0785L106.912 32.9692L107.01 32.6175C107.215 32.3016 107.476 32.0256 107.83 31.9444C108.27 31.8429 108.823 31.9683 109.352 32.0101C113.759 32.3583 118.149 32.7835 122.583 32.903L122.599 32.9035C122.471 28.0219 122.01 23.1588 121.625 18.2939L121.648 17.9481C121.813 17.5073 122.135 17.1162 122.585 17.0278C122.969 16.9519 123.361 17.0517 123.762 17.0875C126.687 17.3455 129.601 17.3174 132.76 17.0146L133.144 17.0278C133.252 17.066 133.361 17.1048 133.47 17.143Z" fill="black"/>
<path fill-rule="evenodd" clip-rule="evenodd" d="M120.42 90.2273L120.444 90.1957H135.776C135.776 90.1957 139.535 94.8766 138.529 95.057C136.714 95.3813 143.778 104.101 143.169 104.378C142.116 104.857 142.704 105.623 142.741 107.197C142.774 108.578 140.774 110.603 139.56 112.272C138.735 113.406 138.725 115.118 138.725 115.118L138.299 115.155C138.157 115.755 138.096 116.16 138.096 116.16L127.607 116.068L127.32 116.043L117.621 116.128C117.621 116.128 117.565 115.752 117.434 115.188L116.992 115.15C116.992 115.15 116.982 113.438 116.157 112.303C114.943 110.635 112.944 108.61 112.976 107.228C113.013 105.655 113.601 104.89 112.549 104.411C111.94 104.133 119.003 95.4135 117.188 95.0886C116.184 94.9089 119.93 90.2404 119.941 90.2273H120.42Z" fill="black"/>
<path fill-rule="evenodd" clip-rule="evenodd" d="M37.7065 213.056C40.1975 213.056 42.2197 215.079 42.2197 217.57C42.2197 220.06 40.1975 222.083 37.7065 222.083C35.2155 222.083 33.1934 220.06 33.1934 217.57C33.1934 215.079 35.2155 213.056 37.7065 213.056ZM202.996 212.339C205.487 212.339 207.509 214.362 207.509 216.853C207.509 219.344 205.487 221.366 202.996 221.366C200.505 221.366 198.483 219.344 198.483 216.853C198.483 214.362 200.505 212.339 202.996 212.339ZM187.97 211.479C190.461 211.479 192.483 213.502 192.483 215.993C192.483 218.484 190.461 220.506 187.97 220.506C185.479 220.506 183.457 218.484 183.457 215.993C183.457 213.502 185.479 211.479 187.97 211.479ZM172.943 210.619C175.434 210.619 177.456 212.642 177.456 215.133C177.456 217.624 175.434 219.646 172.943 219.646C170.452 219.646 168.43 217.624 168.43 215.133C168.43 212.642 170.452 210.619 172.943 210.619ZM157.917 210.189C160.408 210.189 162.43 212.212 162.43 214.703C162.43 217.194 160.408 219.216 157.917 219.216C155.426 219.216 153.404 217.194 153.404 214.703C153.404 212.212 155.426 210.189 157.917 210.189ZM127.864 209.616C130.355 209.616 132.377 211.639 132.377 214.13C132.377 216.62 130.355 218.643 127.864 218.643C125.373 218.643 123.351 216.62 123.351 214.13C123.351 211.639 125.373 209.616 127.864 209.616ZM52.7329 212.053C55.2239 212.053 57.246 214.076 57.246 216.567C57.246 219.057 55.2239 221.08 52.7329 221.08C50.2419 221.08 48.2197 219.057 48.2197 216.567C48.2197 214.076 50.2419 212.053 52.7329 212.053ZM67.7588 211.336C70.2497 211.336 72.2725 213.359 72.2725 215.85C72.2725 218.34 70.2497 220.363 67.7588 220.363C65.2684 220.363 63.2456 218.34 63.2456 215.85C63.2456 213.359 65.2684 211.336 67.7588 211.336ZM24.5801 214.11C25.0381 214.084 25.2776 214.412 25.2776 214.744C25.2788 215.922 25.2896 220.481 25.3033 221.695C25.3075 222.096 24.6368 222.4 24.6368 222.4C24.0832 222.444 22.973 222.881 22.9759 224.508C22.9769 225.013 22.9761 225.812 22.9751 226.658C22.9738 227.84 22.9725 229.112 22.9759 229.795C22.9837 231.373 24.0802 231.441 24.6326 231.397C58.232 228.682 91.9108 227.323 125.493 227.307C133.957 227.306 142.322 227.386 150.735 227.551C177.512 228.078 204.288 229.462 231.009 231.707C231.586 231.755 232.707 231.298 232.74 230.175C232.764 229.393 232.754 227.798 232.746 226.432C232.742 225.667 232.738 224.975 232.74 224.538C232.747 223.32 232.095 222.781 231.558 222.736C231.267 222.711 230.734 222.21 230.747 221.918C230.78 221.168 230.773 219.989 230.767 218.804C230.76 217.621 230.753 216.432 230.786 215.659C230.832 214.581 231.361 214.432 233.482 214.642C234.071 214.7 235.219 214.234 235.254 213.11C235.277 212.334 235.268 210.754 235.26 209.394C235.255 208.619 235.251 207.915 235.254 207.473C235.26 206.255 234.153 205.716 233.603 205.671C197.848 202.758 162.015 201.301 126.288 201.285C123.865 201.284 121.445 201.29 119.025 201.302C86.6666 201.468 54.368 202.809 22.1631 205.335C21.5958 205.379 20.4587 205.817 20.4623 207.443C20.463 207.921 20.4622 208.664 20.4613 209.459C20.4601 210.678 20.4586 212.022 20.4623 212.73C20.47 214.308 21.5928 214.377 22.1584 214.332C22.5677 214.3 22.8969 214.264 23.2152 214.23C23.6362 214.184 24.0379 214.141 24.5801 214.11ZM222.536 217.856C222.536 215.366 220.514 213.343 218.023 213.343C215.532 213.343 213.509 215.366 213.509 217.856C213.509 220.347 215.532 222.37 218.023 222.37C220.514 222.37 222.536 220.347 222.536 217.856ZM82.7856 210.476C85.2766 210.476 87.2988 212.499 87.2988 214.99C87.2988 217.48 85.2766 219.503 82.7856 219.503C80.2946 219.503 78.2725 217.48 78.2725 214.99C78.2725 212.499 80.2946 210.476 82.7856 210.476ZM97.8116 210.189C100.303 210.189 102.325 212.212 102.325 214.703C102.325 217.194 100.303 219.216 97.8116 219.216C95.3206 219.216 93.2979 217.194 93.2979 214.703C93.2979 212.212 95.3206 210.189 97.8116 210.189ZM112.838 209.903C115.329 209.903 117.352 211.926 117.352 214.417C117.352 216.907 115.329 218.93 112.838 218.93C110.347 218.93 108.325 216.907 108.325 214.417C108.325 211.926 110.347 209.903 112.838 209.903ZM142.891 209.759C145.382 209.759 147.404 211.782 147.404 214.273C147.404 216.764 145.382 218.786 142.891 218.786C140.4 218.786 138.377 216.764 138.377 214.273C138.377 211.782 140.4 209.759 142.891 209.759Z" fill="black"/>
<path fill-rule="evenodd" clip-rule="evenodd" d="M25.4238 231.245C25.4238 231.245 26.8757 230.961 27.2226 232.825C27.5726 234.704 26.7473 234.764 26.7473 234.764L31.5907 234.238C31.5907 234.238 30.9194 234.095 30.7176 233.301C30.4613 232.295 30.1305 231.107 30.6298 230.985C31.8003 230.7 32.0452 230.775 32.0452 230.775L25.4238 231.245Z" fill="black"/>
<path fill-rule="evenodd" clip-rule="evenodd" d="M230.342 231.531C230.342 231.531 228.89 231.247 228.543 233.111C228.193 234.991 229.018 235.05 229.018 235.05L224.175 234.525C224.175 234.525 224.847 234.382 225.048 233.588C225.304 232.581 225.635 231.393 225.136 231.271C223.965 230.986 223.72 231.062 223.72 231.062L230.342 231.531Z" fill="black"/>
</svg>
