<svg width="256" height="256" viewBox="0 0 256 256" fill="none" xmlns="http://www.w3.org/2000/svg">
<path d="M167.42 122.995L157.398 112.162C156.985 121.672 154.812 129.405 152.522 136.784C158.129 133.311 163.167 128.629 167.42 122.995ZM149.006 138.772C149.053 138.618 149.098 138.468 149.146 138.314C151.937 129.422 154.823 120.225 154.703 108.204L154.783 108.204L153.391 83.9296L132.746 91.9609C126.772 98.1898 115.265 115.64 106.488 137.116C113.906 141.531 122.059 143.77 130.457 143.548C137.021 143.371 143.267 141.685 149.006 138.772ZM104.121 135.616C109.878 121.683 117.198 108.465 123.487 99.2937L101.616 79.6573C100.882 79.397 100.166 79.1478 99.4721 78.9117C97.3772 81.1269 94.8739 83.6085 92.2974 86.1608C88.1547 90.2664 83.87 94.5126 81.2092 97.7479C80.5826 98.5096 79.8847 99.3389 79.0809 100.278C81.9623 109.507 86.4515 117.913 92.3519 124.94C95.9356 129.207 99.8967 132.77 104.121 135.616ZM79.0709 95.9908C81.8228 92.6457 86.1577 88.35 90.3512 84.1955C93.99 80.5895 97.7168 76.8949 100.051 74.148C93.9677 74.9072 85.127 75.8189 75.3695 76.8199C75.3745 77.0963 75.3677 77.3697 75.3751 77.6467C75.5542 84.3517 76.5037 90.8849 78.1592 97.0878C78.4803 96.7054 78.784 96.341 79.0709 95.9908ZM75.3565 74.0395C88.3939 72.7026 100.568 71.4419 105.405 70.5928C112.893 67.4765 140.407 55.5299 148.016 52.2227C127.297 36.9813 111.381 14.3557 111.215 14.1183L111.117 13.9553L110.84 13.387L110.56 12.593C90.2613 21.541 75.7854 45.6764 75.3565 74.0395ZM126.842 8.88786C122.085 9.01554 117.497 9.94275 113.145 11.5462L113.536 12.6085C114.443 13.8791 126.815 30.9972 143.182 44.8664C141.417 40.7534 139.414 35.6543 137.599 29.9628L137.545 29.7198C136.915 24.8637 136.696 17.9852 136.905 9.82437C134.067 9.22317 131.179 8.89096 128.257 8.87361C127.786 8.87051 127.315 8.87547 126.842 8.88786ZM139.66 10.5024C139.481 18.1823 139.689 24.6524 140.273 29.2407C142.868 37.3501 145.856 44.2757 147.924 48.6911C149.399 49.8229 150.896 50.9218 152.416 51.9661L167.811 59.9714L171.891 57.499C172.436 57.0565 173.597 56.7466 178.347 55.6471C178.616 55.5851 178.89 55.5213 179.165 55.4574C176.372 44.9308 171.543 35.35 164.945 27.4947C157.746 18.9217 149.039 13.1353 139.66 10.5024ZM181.922 74.787C181.769 69.0818 181.058 63.5017 179.83 58.1424C179.543 58.2093 179.256 58.2762 178.971 58.3426C176.87 58.8291 174.282 59.4284 173.593 59.7024L168.468 62.8082C165.095 66.0596 158.446 78.0087 156.128 82.4235L156.081 82.5133L157.559 108.26L169.069 120.702C177.479 108.472 182.393 92.3334 181.922 74.787ZM155.071 144.885C157.499 146.714 159.069 149.62 159.049 152.894C159.017 158.393 154.532 162.825 149.033 162.793C147.559 162.784 146.166 162.447 144.911 161.865L142.443 166.247L145.726 167.876C143.646 172.381 137.78 173.005 136.939 188.794L136.955 211.767C137.166 213.071 137.671 214.335 138.904 215.896C141.433 219.098 144.898 228.246 142.535 233.603C140.174 238.958 131.332 247.174 128.017 255.67C124.724 247.166 115.903 238.927 113.556 233.565C111.208 228.204 114.695 219.064 117.232 215.868C119.299 213.266 119.349 211.487 119.352 208.97H119.508L119.495 191.013C119.34 172.958 113.024 172.411 110.902 167.67L114.204 166.08L111.788 161.669C110.526 162.236 109.13 162.557 107.657 162.547C102.157 162.515 97.7249 158.03 97.7571 152.531C97.7751 149.49 99.1585 146.779 101.318 144.965C80.414 132.657 65.9623 106.424 66.0001 76.1356C66.0261 55.8807 72.4769 36.8096 84.165 22.4341C95.9275 7.96499 111.559 0 128.185 0H128.252C162.523 0.0433857 190.361 34.2691 190.309 76.2937C190.269 106.458 175.869 132.566 155.071 144.885ZM142.727 59.8914L123.159 67.5973C117.81 71.9545 114.622 77.2011 113.043 80.8263C127.637 88.2223 149.347 83.9042 158.159 61.0405C152.378 59.7848 147.26 59.4979 142.727 59.8914Z" fill="black"/>
</svg>
