<svg width="256" height="256" viewBox="0 0 256 256" fill="none" xmlns="http://www.w3.org/2000/svg">
<path d="M205.835 8.55021C205.821 8.60763 205.818 8.65631 205.806 8.71062C203.724 16.2597 202.014 22.518 200.762 28.2982C200.345 30.225 199.979 32.098 199.667 33.948C198.899 41.381 198.272 49.4949 199.525 56.9847C196.392 51.9915 192.633 46.9983 189.179 42.5581C188.143 40.8673 187.331 39.2314 186.701 37.5824C183.234 28.898 184.487 18.2875 190.364 11.0424C192.497 10.4688 194.568 9.83408 196.58 9.14565C198.592 8.45784 200.55 7.71884 202.436 6.92555C204.182 6.30827 206.41 6.22901 205.835 8.55021ZM118.128 72.0335V78.3274C118.128 85.4845 107.42 89.8597 96.2079 91.8807C93.9654 92.2858 91.7034 92.596 89.5015 92.8176C81.7255 93.8093 74.2063 93.1852 68.567 98.8025C71.6999 94.4335 75.4595 90.0645 80.7962 87.8968C83.1992 86.7078 85.5552 85.8771 87.5208 85.5169C94.3582 84.2661 97.6216 83.9534 105.715 81.1735C111.472 79.1962 115.991 76.4612 118.128 72.0335ZM91.4252 58.2442C78.8174 64.6442 71.8936 74.0208 68.6923 82.8662C68.0519 84.635 67.5607 86.3832 67.2023 88.0822C66.0606 91.3127 66.6872 94.4335 66.6872 97.5542C64.8074 95.0576 64.8074 91.9369 63.8262 88.8823C63.5962 87.4318 63.4765 85.9719 63.4671 84.5027C63.4383 80.0962 64.4014 75.608 66.3601 71.0635C69.8621 62.9359 76.6068 54.7627 85.3534 48.0506C90.4533 44.136 96.1209 42.4526 101.602 40.8242C107.173 39.1702 112.907 37.4676 118.128 33.4643V47.3959C113.272 54.0955 96.6716 55.5809 91.4252 58.2442ZM149.231 81.4263C164.409 87.5729 178.821 95.0626 190.726 105.673C173.181 98.8075 155.01 94.4385 139.376 84.029C137.724 82.3712 136.761 80.4744 136.761 78.3274V72.0353C137.562 73.6956 138.698 75.1174 140.109 76.3507C141.52 77.584 143.206 78.632 145.118 79.5875C146.392 80.2242 147.77 80.8377 149.231 81.4263ZM163.462 58.2442C162.588 57.8004 161.398 57.3891 160 56.9809C153.009 54.9412 140.808 52.9795 136.761 47.3971V33.4643C138.066 34.4648 139.403 35.3218 140.761 36.0701C146.891 40.1327 155.037 40.1327 161.551 43.5792C162.922 44.1372 164.28 44.7651 165.614 45.4991C166.948 46.2331 168.258 47.0719 169.533 48.0506C170.991 49.1691 172.394 50.3287 173.735 51.5215C174.859 52.6187 175.99 53.7503 177.109 54.9144C178.229 56.0784 179.34 57.2755 180.424 58.5038C189.473 70.7209 202.005 88.8212 193.232 103.801C191.353 86.3246 181.327 70.0967 167.078 60.2621C165.927 59.5568 164.724 58.8846 163.462 58.2442ZM169.206 206.366C170.697 181.973 170.217 164.671 168.6 154.599C168.377 153.209 168.397 150.773 167.589 147.147C166.667 143.018 164.611 137.92 163.56 133.968C163.078 132.461 162.504 131 161.819 129.552C160.45 126.659 158.636 123.825 156.266 120.812C155.56 120.143 154.551 118.914 153.457 117.761C152.363 116.608 151.185 115.532 150.14 115.168C148.574 114.544 147.196 113.873 145.981 113.12C142.333 110.865 140.147 107.888 138.714 103.311C138.194 101.641 137.738 99.9166 137.361 98.179C136.608 94.7037 136.167 91.1779 136.167 87.9436C136.167 87.1559 136.168 85.9857 136.17 84.5227C136.918 85.5232 137.838 86.4357 138.887 87.2677C139.935 88.1009 141.114 88.8567 142.385 89.562C159.861 98.1066 192.422 109.025 193.616 108.052C195.991 106.116 206.314 91.0793 185.866 60.6752C184.959 59.3265 183.844 58.1312 182.783 56.9129C180.662 54.4762 178.424 52.1868 176.158 50.0716C174.549 48.6074 172.884 47.2186 171.184 45.9142C160.05 38.8844 146.265 37.6361 134.869 29.3112C134.375 29.5241 134.054 30.009 134.052 30.5464L133.576 30.5452C133.576 30.5452 133.572 32.0206 133.566 34.4654H133.889V81.8538C133.889 84.9983 133.951 91.06 134.566 97.7109C134.774 99.9279 135.042 102.211 135.398 104.478C136.239 110.661 137.638 115.056 142.025 120.049C143.278 118.177 145.95 117.594 148.457 118.218C150.336 118.843 151.904 121.272 152.54 123.154C145.012 123.768 139.999 130.635 133.965 133.639C132.456 134.391 130.884 134.888 129.193 134.962C127.501 135.038 125.691 134.692 123.707 133.755C116.815 130.01 111.175 123.144 102.403 123.144C104.283 118.775 109.296 118.775 113.055 121.272C116.188 116.279 118.695 110.661 119.452 104.472C119.775 102.363 120.029 100.236 120.228 98.1603C120.825 91.9344 120.932 86.1773 120.945 82.7732C120.923 67.6413 120.836 30.5452 120.836 30.5452C120.834 30.0084 120.514 29.5241 120.02 29.3112C119.527 29.0984 118.948 29.1976 118.555 29.5665C113.221 34.5603 107.202 36.3491 100.829 38.2409C95.1114 39.9392 89.1989 41.6949 83.7024 45.9142C71.512 55.2707 61.0973 68.9508 60.8179 83.7986C60.7784 85.9195 60.9451 88.0647 61.343 90.2242C62.3016 95.0576 64.1814 99.4267 67.3144 103.172C69.8208 99.4267 74.207 97.5542 78.5931 96.3059C79.2197 105.668 72.9538 112.534 71.7006 121.272C70.4474 126.265 75.4601 130.01 80.4729 128.762C84.8591 126.889 86.7388 122.52 85.4857 118.151C82.3527 111.285 80.4729 103.796 79.2197 96.3059C84.2325 96.9301 88.6186 95.0576 93.4585 95.052C94.9153 94.8429 96.5689 94.5714 98.3246 94.2207C105.347 92.8169 114.003 90.1325 118.242 85.1144C118.243 86.294 118.244 87.2689 118.244 87.9436C118.244 94.4129 116.485 102.045 113.971 108.114C113.342 109.63 112.667 111.05 111.96 112.329C111.252 113.608 110.514 114.747 109.76 115.703C108.109 114.97 106.049 115.266 104.039 116.282C93.0048 123.144 92.3782 137.5 92.0868 149.142C92.0054 150.88 91.9377 152.736 91.8863 154.692C91.8437 156.323 91.813 158.022 91.7961 159.78C91.7792 161.539 91.776 163.356 91.7898 165.221C91.7516 179.318 93.6314 193.674 95.0506 207.976C95.3796 210.014 95.7393 212.027 96.1309 214.005C96.9135 217.962 97.8227 221.779 98.8735 225.376C96.6065 222.953 94.4247 220.458 92.3293 217.905C91.2817 216.63 90.2553 215.34 89.2521 214.037C77.3399 197.418 80.4729 175.573 72.8197 156.972C72.1856 155.014 71.4994 153.072 70.7525 151.152C67.7649 143.466 63.8055 136.127 58.5421 129.386C57.3929 127.618 56.4881 125.832 55.7782 124.031C52.2279 115.031 53.5538 105.67 53.6772 96.3184C53.7837 94.0415 53.9303 91.8158 54.0989 89.6294C54.7725 80.8864 55.7913 72.775 56.8083 65.6928C56.8346 65.5124 56.8515 65.347 56.8766 65.1678C59.346 59.4669 62.4213 53.9444 65.934 49.4662C72.1242 41.5726 74.4256 35.4971 74.4294 27.0531C74.4319 21.3009 73.4463 17.267 70.2306 12.149C92.9967 17.8132 118.843 18.4904 128.25 18.5297C130.134 18.5216 132.673 18.4848 135.651 18.3518C152.531 17.0386 169.449 14.542 186.367 12.0454C181.355 18.2869 181.355 27.6491 183.014 34.8549C183.597 37.3059 184.481 39.6409 185.745 42.0245C191.257 48.5081 195.667 55.6933 198.896 63.3497C199.704 65.264 200.44 67.2069 201.119 69.1736C202.259 73.4328 203.436 77.6589 204.432 81.8838C204.93 83.9959 205.382 86.1086 205.762 88.2295C206.418 95.057 207.672 102.547 207.531 109.193C207.382 111.187 207.163 113.167 206.886 115.136C205.477 119.262 203.354 122.914 200.958 126.4C199.759 128.142 198.492 129.846 197.213 131.549C195.545 133.464 194.045 135.46 192.704 137.526C191.362 139.592 190.18 141.729 189.146 143.923C188.326 145.851 187.637 147.801 187.062 149.77C186.486 151.739 186.025 153.726 185.659 155.727C184.36 162.243 184.521 169.108 184.903 176.012C185.03 178.314 185.575 185.76 185.718 188.093C188.356 204.499 180.701 224.885 161.277 231.75C164.939 229.06 165.163 225.903 169.207 206.365M201.319 157.764C199.897 165.498 199.889 173.731 199.308 181.587C199.164 183.551 198.982 185.492 198.735 187.395C198.549 188.962 198.307 190.511 197.995 192.03C197.682 193.549 197.301 195.038 196.835 196.486C195.112 202.416 191.353 207.409 186.34 211.778C192.606 202.416 189.045 192.817 187.908 181.476C187.752 179.555 187.615 177.633 187.527 175.711C187.264 169.946 187.443 164.179 188.858 158.463C189.274 156.768 189.789 155.096 190.415 153.453C191.041 151.811 191.78 150.199 192.647 148.625C193.442 146.986 194.296 145.369 195.202 143.772C197.919 138.983 201.092 134.38 204.538 130.01C202.658 137.5 202.032 144.99 201.716 152.783C201.623 154.451 201.5 156.119 201.319 157.764ZM128.372 248.851C127.112 248.162 125.88 247.453 124.678 246.724C122.877 245.63 121.126 244.484 119.41 243.291C117.694 242.098 116.011 240.858 114.36 239.576V213.163H114.368C114.368 211.625 114.525 210.223 114.925 208.986C115.325 207.749 115.966 206.678 116.936 205.797C120.864 203.212 125.153 202.46 129.119 203.147C131.101 203.491 133.003 204.196 134.739 205.215C142.478 209.906 144.358 219.268 143.925 227.071C143.926 228.49 143.857 229.903 143.721 231.295C143.312 235.468 142.295 239.437 140.741 242.69C139.512 244.074 137.373 245.946 135.055 246.496C132.59 247.51 130.646 247.742 128.372 248.851ZM103.127 229.745C100.666 222.866 98.9023 214.948 97.6403 206.993C97.3252 205.005 97.0419 203.013 96.7982 201.027C95.5106 189.304 94.884 176.822 94.5061 165.049C94.493 163.074 94.498 161.156 94.518 159.308C94.5575 155.612 94.6584 152.195 94.8 149.157C94.8852 147.334 94.9848 145.649 95.082 144.121C95.5106 139.373 95.5106 133.755 98.0169 128.762C98.9568 127.201 100.523 126.733 102.189 126.815C111.802 128.762 116.188 136.876 121.828 143.118C123.394 144.678 125.274 145.77 127.232 146.16C129.19 146.55 131.235 146.231 133.142 144.971C140.625 139.997 144.781 129.354 152.437 130.422C154.936 130.77 156.748 131.696 158.105 133.007C160.243 136.778 161.853 140.743 163.032 144.84C163.623 146.889 164.105 148.97 164.492 151.079C165.724 157.047 166.257 163.007 166.319 168.943C166.339 170.923 167.048 177.573 166.982 179.577C165.875 213.174 165.079 223.527 154.456 235.285C153.493 236.445 152.395 237.521 151.141 238.496C149.887 239.472 148.477 240.348 146.891 241.109C146.891 238.508 146.843 235.858 146.762 233.188C146.721 231.853 146.672 230.512 146.619 229.171C145.611 217.395 148.744 201.168 135.515 195.042C134.112 194.399 132.612 193.91 131.074 193.592C124.919 192.322 118.154 193.778 114.568 198.981C113.624 200.46 112.826 202.298 112.259 204.585C111.692 206.872 111.356 209.607 111.337 212.88H111.332V213.163L111.333 237.148C108.495 234.796 105.755 232.325 103.127 229.745ZM54.4172 131.931C54.9999 133.275 55.6541 134.556 56.3603 135.794C59.8341 140.238 62.8299 144.921 65.3626 149.807C66.2072 151.436 66.9999 153.086 67.7417 154.758C73.5797 168.083 76.7127 181.815 78.5925 196.17C72.3265 183.687 62.9276 173.077 59.1731 159.503C58.5759 157.617 58.0483 155.704 57.5759 153.774C56.1648 147.98 55.2543 142.04 54.9191 135.96C54.7468 134.615 54.5833 133.27 54.4172 131.931ZM50.5467 8.06088C50.4095 6.18344 52.6051 6.36632 54.2399 7.00607C54.2399 7.00607 54.2367 6.98922 54.2361 6.98672C58.0051 8.56332 62.0554 9.92271 66.2523 11.0999C70.8246 17.4843 71.725 21.2691 71.7219 27.0524C71.7187 34.8212 69.572 40.4466 63.7998 47.8066C61.6162 50.5909 59.6054 53.7784 57.7852 57.1538C59.2301 39.6908 56.2375 28.6883 50.5467 8.06088ZM202.44 1.05046C202.44 1.05046 202.438 1.03548 202.437 1.03298C200.651 1.85124 198.778 2.61207 196.837 3.3211C194.891 4.02951 192.876 4.68549 190.784 5.27593C171.955 10.1736 152.531 10.7978 133.267 12.5254C131.524 12.5741 129.843 12.5928 128.259 12.5991C109.219 12.5204 75.4382 10.8452 54.0068 0.993035C54.0018 1.02175 53.9968 1.05046 53.9968 1.05046C48.8568 -1.35875 43.3008 0.732766 44.287 5.7041L45.2338 9.15376C45.8742 11.4731 46.4908 13.6682 47.0785 15.7641C52.4165 34.7856 55.3577 45.2638 52.5318 64.9282C51.2924 73.5533 50.0511 83.6788 49.4138 94.6282C49.286 96.8184 49.1833 99.0416 49.1219 101.309C48.7428 110.275 49.0905 119.001 49.9352 127.76C50.1044 129.512 50.293 131.265 50.4997 133.022C50.6564 139.421 51.3864 145.697 52.6289 151.818C53.0431 153.858 53.5143 155.881 54.04 157.884C61.0478 178.694 73.5797 196.794 83.5276 215.942C84.7651 217.712 86.0258 219.433 87.3047 221.109C97.5357 234.521 108.867 245.158 121.138 252.861C122.842 253.931 124.564 254.944 126.305 255.9C133.233 255.02 139.605 253 145.36 250.042C147.284 249.057 149.146 247.968 151.025 246.811C153.887 244.821 156.793 242.815 159.693 240.762C161.143 239.735 162.59 238.697 164.029 237.643C176.314 228.006 190.726 219.268 197.146 204.514C197.99 202.704 198.738 200.851 199.401 198.955C204.05 185.691 204.61 170.438 206.465 156.258C206.774 154.027 207.06 151.791 207.323 149.55C208.114 142.829 208.706 136.072 209.15 129.308C209.446 127.138 209.716 124.966 209.954 122.792C211.141 111.924 211.478 101.015 209.646 90.12C209.479 88.1365 209.258 86.1692 208.974 84.2075C208.407 80.2834 207.588 76.3719 206.47 72.4804C206.121 70.3938 205.799 68.3516 205.471 66.3013C205.165 64.2491 204.851 62.1863 204.538 60.1054C202.658 51.9915 202.658 44.5017 204.224 37.0843C204.501 35.4285 204.833 33.7595 205.21 32.0493C206.344 26.9195 207.88 21.4183 209.716 14.8422C210.224 13.0266 210.751 11.1354 211.298 9.15189L211.81 7.29193C211.849 6.99858 211.912 6.67402 212.023 6.29267C213.595 0.893796 207.781 -1.453 202.44 1.05046Z" fill="black"/>
<path d="M154.769 202.9C159.396 194.303 159.396 184.316 156.696 174.657C156.163 172.838 155.51 171.06 154.749 169.338C153.228 165.892 151.277 162.664 148.987 159.815C147.62 158.208 146.09 156.755 144.396 155.477C142.702 154.199 140.843 153.096 138.82 152.202C137.597 151.69 136.301 151.291 134.93 151.02C133.558 150.749 132.108 150.606 130.582 150.605C128.698 150.453 126.737 150.415 124.775 150.541C118.896 150.911 113 152.746 109.155 157.276C107.857 158.637 106.699 160.232 105.749 162.094C104.797 163.955 104.053 166.084 103.58 168.512C100.814 182.713 102.445 188.277 104.355 198.946C105.192 195.83 106.785 193.052 108.95 190.733C110.033 189.573 111.258 188.529 112.608 187.614C117.465 184.738 123.144 183.556 128.771 183.846C130.647 183.942 132.516 184.202 134.348 184.617C136.64 185.557 139.073 186.53 141.441 187.71C145.611 190.558 151.251 193.054 153.442 198.952C154.098 200.266 154.546 201.583 154.769 202.9Z" fill="black"/>
</svg>
