<svg width="256" height="256" viewBox="0 0 256 256" fill="none" xmlns="http://www.w3.org/2000/svg">
<path fill-rule="evenodd" clip-rule="evenodd" d="M182.265 55.7574C182.337 56.0977 182.507 56.371 182.868 56.6676C184.626 58.1051 186.326 59.6136 187.965 61.1903C203.02 75.6756 212.418 95.733 214.328 116.62C214.385 117.244 214.386 117.631 214.147 117.967C213.861 118.37 213.238 118.282 213.238 118.282C213.238 118.282 207.543 117.322 206.216 117.111C205.719 117.032 206.403 116.211 205.961 116.141C205.575 116.079 204.499 116.89 204.122 116.829C203.754 116.77 203.016 116.653 203.016 116.653C203.016 116.653 202.4 116.566 202.061 116.087C201.833 115.765 201.75 115.287 201.68 114.699C200.685 106.34 198.281 98.3743 194.456 90.7146C192.796 87.3896 190.881 84.2039 188.74 81.1796C188.445 80.7631 190.852 79.4689 190.549 79.0595C190.313 78.7405 187.368 79.3043 187.128 78.9884C184.097 75.0244 180.669 71.3642 176.912 68.0667C176.581 67.7762 176.177 67.6898 175.919 67.7223C175.662 67.7548 175.367 68.2628 175.367 68.2628C175.367 68.2628 173.218 72.4472 172.451 73.9395C171.891 75.0315 171.103 77.1171 171.103 77.1171L168.756 79.2342L145.435 102.606C145.435 102.606 144.967 103.17 144.932 103.407C144.9 103.633 145.016 103.836 145.23 104.025C150.81 108.965 154.269 116.177 154.246 124.067C154.245 124.483 154.336 124.89 154.495 125.08C154.653 125.268 155.196 125.202 155.196 125.202C155.196 125.202 181.132 122.096 187.147 121.376C188.528 121.21 191.25 120.34 191.25 120.34C191.25 120.34 193.629 121.337 194.801 121.567C205.449 123.649 255.177 133.374 255.177 133.374L214.768 135.566C214.768 135.566 214.341 135.622 214.189 135.769C214.035 135.916 213.889 136.17 213.849 136.449C213.818 136.667 213.786 136.884 213.754 137.101C210.433 159.143 198.139 179.685 180.435 193.315C179.979 193.665 179.572 193.779 179.268 193.735C178.831 193.671 178.616 193.038 178.616 193.038L175.308 183.212C175.308 183.212 175.073 182.71 175.207 182.065C175.285 181.695 175.626 181.353 175.991 181.052C183.953 174.476 189.779 166.723 194.468 157.323C197.675 150.897 199.892 144.01 201.106 136.942C201.143 136.729 201.165 136.573 201.09 136.472C201.015 136.37 200.655 136.331 200.655 136.331C200.655 136.331 195.124 136.631 193.34 136.728C192.211 136.79 189.879 137.568 189.879 137.568C189.879 137.568 187.863 136.336 186.818 136.049C180.987 134.445 154.966 127.285 154.966 127.285C154.966 127.285 154.354 127.177 154.182 127.305C154.011 127.433 153.989 127.718 153.938 128.053C152.922 134.722 149.468 140.508 144.573 144.56C144.33 144.761 144.245 145.025 144.222 145.257C144.2 145.488 144.441 145.95 144.441 145.95C144.441 145.95 160.001 166.403 163.59 171.122C164.385 172.167 166.592 173.665 166.592 173.665C166.592 173.665 166.678 176.305 167.029 177.327C170.544 187.578 187.064 235.762 187.064 235.762C187.064 235.762 169.91 208.255 166.422 202.663C166.328 202.511 166.251 202.391 166.12 202.355C165.99 202.32 165.808 202.371 165.642 202.452C156.423 206.978 147.308 209.714 137.05 210.684C136.35 210.75 136.354 210.193 135.643 210.243C135.643 210.243 135.503 210.269 135.399 210.165C135.311 210.078 135.277 209.849 135.277 209.849C135.277 209.849 134.519 210.216 134.459 209.91C134.388 209.546 134.301 209.101 134.261 208.893C134.214 208.651 134.892 208.486 134.851 208.273C134.814 208.091 134.047 207.801 134.012 207.618C133.733 206.186 132.444 199.577 132.444 199.577C132.444 199.577 132.379 199.361 132.491 199.237C132.561 199.16 132.665 199.084 132.818 199.074C135.808 198.875 137.875 198.136 140.92 197.584C147.119 196.462 153.144 194.51 158.84 191.842C159.055 191.741 159.12 191.557 159.157 191.393C159.194 191.229 159.06 190.858 159.06 190.858C159.06 190.858 155.522 185.185 154.451 183.468C153.847 182.499 151.955 181.147 151.955 181.147C151.955 181.147 151.93 178.156 151.575 176.954C151.373 176.27 151.089 175.305 150.744 174.137C150.621 173.72 150.96 173.04 150.822 172.574C150.728 172.254 150.161 172.158 150.062 171.819C147.389 162.752 142.762 147.054 142.762 147.054C142.762 147.054 142.577 146.553 142.407 146.478C142.237 146.404 141.994 146.449 141.743 146.607C138.539 148.622 134.888 149.969 131.002 150.471C130.718 150.508 130.466 150.554 130.332 150.462C130.199 150.37 130.199 149.919 130.199 149.919C130.199 149.919 133.533 121.872 134.04 115.475C134.084 114.937 135.475 112.824 135.515 112.309C135.554 111.819 134.798 111.839 134.614 111.572C134.484 111.386 134.41 110.713 134.41 110.713L135.231 100.37C135.231 100.37 135.217 99.827 135.335 99.7152C135.454 99.6035 135.729 99.639 135.942 99.7C138.628 100.471 140.132 100.32 142.385 101.828C142.671 102.02 142.998 102.208 143.217 102.13C143.435 102.053 143.697 101.362 143.697 101.362C143.697 101.362 154.506 76.6397 156.907 71.1489C157.306 70.2376 157.787 68.0291 157.787 68.0291C157.787 68.0291 159.747 66.5084 160.57 65.5545C167.651 57.3431 200.592 19.1473 200.592 19.1473L182.36 54.646C182.36 54.646 182.144 55.1793 182.265 55.7574ZM134.834 37.2756C134.997 37.1618 135.319 37.1933 135.391 37.1994C146.446 38.1716 156.836 41.2405 166.71 46.2021C166.985 46.3402 167.238 46.5881 167.226 46.7872C167.211 47.0503 166.952 47.3744 166.952 47.3744L160.206 56.1211C160.206 56.1211 159.917 56.499 159.715 56.5325C159.514 56.566 159.254 56.4461 158.999 56.3242C151.187 52.6193 143.115 49.9456 134.286 49.1938C134.227 49.1887 133.977 49.1349 133.917 49.0658C133.759 48.8819 133.797 48.5396 133.797 48.5396L134.559 37.6738C134.559 37.6738 134.582 37.4503 134.834 37.2756Z" fill="black"/>
<path fill-rule="evenodd" clip-rule="evenodd" d="M84.0168 51.0071C84.2352 51.0569 84.3662 50.9848 84.545 50.8832C92.6801 46.2772 99.71 43.3647 109.416 41.784C109.487 41.7729 109.714 41.7302 109.833 41.8094C109.957 41.8927 109.97 42.0979 109.97 42.0979C109.97 42.0979 110.229 43 110.335 43.3647C110.422 43.6715 109.795 44.0789 109.882 44.3857C109.99 44.7585 110.851 45.1618 110.977 45.6007C111.387 47.0249 113.057 52.8316 113.057 52.8316C113.057 52.8316 113.139 53.1618 113.072 53.2603C112.963 53.4188 112.921 53.4584 112.771 53.4828C105.15 54.7313 99.1187 57.2659 92.3794 60.7839C92.2565 60.8479 92.226 60.919 92.2138 61.0125C92.2016 61.1059 92.3073 61.3416 92.3073 61.3416C92.3073 61.3416 95.7816 65.593 96.9448 67.0163C97.7249 67.9712 99.7628 69.1232 99.7628 69.1232C99.7628 69.1232 99.9792 71.6416 100.327 72.5223C102.532 78.1188 112.519 103.458 112.519 103.458C112.519 103.458 112.728 103.925 112.918 103.988C113.109 104.051 113.388 103.984 113.663 103.837C115.316 102.952 115.1 103.107 116.942 102.582C117.532 102.413 117.819 103.142 118.426 103.014C118.641 102.969 119.267 102.235 119.679 103.028C119.747 103.158 120.105 102.783 120.228 102.871C120.351 102.959 120.422 103.556 120.422 103.556L123.09 153.079C123.09 153.079 123.096 153.549 122.978 153.663C122.859 153.778 122.624 153.801 122.378 153.766C118.311 153.175 114.528 151.66 111.258 149.436C111.025 149.278 110.775 149.218 110.621 149.252C110.468 149.287 110.339 149.645 110.339 149.645C110.339 149.645 101.943 175.338 100.058 181.105C99.7161 182.151 99.7008 184.624 99.7008 184.624C99.7008 184.624 97.7585 186.14 97.1205 187.086C91.1624 195.948 63.2797 237.413 63.2797 237.413L77.1048 200.254C77.1048 200.254 77.2246 199.862 77.1667 199.66C77.1098 199.459 76.9707 199.187 76.7604 199.043C66.6677 192.093 57.987 183.076 51.5962 172.54C50.2085 170.251 48.9336 167.899 47.7735 165.493C47.5632 165.057 48.4551 164.241 48.2519 163.803C48.0914 163.454 46.8348 163.483 46.6794 163.132C44.0411 157.203 42.0815 150.979 40.8168 144.612C40.7507 144.283 40.704 144.013 40.8188 143.857C40.9336 143.699 41.5045 143.669 41.5045 143.669L52.1041 144.234C52.1041 144.234 52.8945 144.328 53.1779 144.635C53.4268 144.904 53.7102 145.66 53.7803 145.935C57.918 162.122 67.7242 176.671 80.9559 186.829C81.2516 187.056 81.5248 187.184 81.7249 187.126C81.9241 187.069 82.1536 186.482 82.1536 186.482C82.1536 186.482 83.649 181.49 84.1417 179.844C84.4658 178.765 84.4526 175.931 84.4526 175.931C84.4526 175.931 86.5981 174.838 87.3417 173.953C91.2599 169.288 108.626 148.616 108.626 148.616C108.626 148.616 108.981 148.241 108.976 148.032C108.97 147.824 108.799 147.549 108.591 147.365C106.632 145.636 104.927 143.622 103.543 141.386C103.277 140.958 105.306 137.1 103.671 138.706C103.31 139.061 102.311 139.179 102.094 138.72C100.964 136.321 100.179 133.724 99.8065 130.989C99.7689 130.707 99.712 130.48 99.5748 130.357C99.3615 130.165 98.9267 130.324 98.9267 130.324C98.9267 130.324 74.6006 136.064 68.927 137.403C67.5809 137.721 64.9214 139.159 64.9214 139.159C64.9214 139.159 62.0251 138.124 60.5938 138.009C59.4143 137.913 57.7707 137.781 55.7785 137.619C55.2462 137.577 55.1741 136.798 54.594 136.751C54.2466 136.723 53.4055 137.427 53.0418 137.398C35.4824 135.979 0 133.111 0 133.111L38.1836 126.688C38.1836 126.688 38.722 126.578 38.8785 126.367C39.0339 126.155 39.1121 125.791 39.1192 125.42C39.3194 115.25 41.2627 105.102 45.0113 95.5674C49.0159 85.3802 54.9943 76.0616 62.4488 68.0951C62.5981 67.9356 63.5601 67.3119 64.5547 67.2499C65.8976 67.1666 67.3625 67.6573 67.5677 67.446C67.9487 67.0529 64.2753 66.1985 64.6634 65.8115C66.2329 64.2501 67.8613 62.7456 69.5436 61.303C69.7417 61.1334 69.9896 61.0937 70.1531 61.1496C70.3167 61.2055 70.5249 61.6372 70.5249 61.6372C70.5249 61.6372 72.3088 65.5219 72.77 66.5246C72.8422 66.681 72.577 67.0305 71.9716 67.2327C71.1263 67.5141 69.8484 67.6502 69.9378 67.8442C70.0709 68.1348 69.9693 67.2459 72.0376 68.1683C72.1615 68.2231 72.6827 67.5151 73.1296 67.7436C73.5909 67.9793 73.9769 69.1527 74.0358 69.2807C74.24 69.7246 74.9115 71.1875 74.9115 71.1875C74.9115 71.1875 75.0872 71.7594 75.0639 72.0123C75.0405 72.2653 74.9613 72.5254 74.7723 72.7052C72.9305 74.4636 71.7552 76.1205 69.9875 78.1401C59.0263 90.6587 52.6009 106.905 51.651 123.541C51.6338 123.837 51.8349 124.051 51.9792 124.173C52.1234 124.296 52.5166 124.277 52.5166 124.277C52.5166 124.277 57.9312 123.366 59.9142 123.033C61.4136 122.78 64.3545 121.567 64.3545 121.567C64.3545 121.567 67.1015 122.698 68.4455 122.91C74.1587 123.808 98.6941 127.667 98.6941 127.667C98.6941 127.667 99.2477 127.759 99.394 127.513C99.5068 127.326 99.5606 127.061 99.5698 126.694C99.778 118.125 104.063 110.497 110.604 105.754C110.863 105.566 111.013 105.295 111.022 105.07C111.03 104.845 110.654 104.403 110.654 104.403C110.654 104.403 92.4079 84.7179 88.3241 80.313C87.6018 79.5339 85.6594 78.4022 85.6594 78.4022C85.6594 78.4022 85.1637 75.9082 84.6669 74.8751C79.9695 65.1024 57.9738 19.3353 57.9738 19.3353L83.6053 50.6953C83.6053 50.6953 83.7923 50.9553 84.0168 51.0071ZM130.058 202.845C130.256 203.048 130.23 203.874 130.23 203.874L130.684 213.689C130.684 213.689 130.649 214.176 130.23 214.604C129.959 214.882 129.354 214.947 129.274 214.949C126.165 215.057 120.698 214.464 117.986 214.209C109.576 213.42 101.33 211.335 93.5365 208.135C93.118 207.964 92.8579 207.712 92.7522 207.472C92.6466 207.231 92.9026 206.695 92.9026 206.695L98.497 198.416C98.497 198.416 99.008 197.687 99.3646 197.559C99.7211 197.431 100.206 197.488 100.635 197.648C109.673 201.024 119.385 202.898 129.041 202.651C129.418 202.641 129.86 202.64 130.058 202.845Z" fill="black"/>
</svg>
