<svg width="256" height="256" viewBox="0 0 256 256" fill="none" xmlns="http://www.w3.org/2000/svg">
<path fill-rule="evenodd" clip-rule="evenodd" d="M2.24378 172.765C4.22758 172.653 8.71167 175.471 11.9104 173.987C15.1092 172.502 21.1829 167.986 25.981 164.807C30.7792 161.628 42.7388 153.422 54.8019 152.967C66.865 152.513 81.6152 159.96 86.6714 165.737C91.7272 171.513 96.0465 176.026 100.499 175.977C104.951 175.928 107.559 173.982 109.062 173.425C110.565 172.868 111.929 173.742 111.929 174.908C111.929 176.073 112.158 190.565 111.929 194.208C111.869 195.173 111.84 195.984 110.557 196.765C109.274 197.546 104.695 195.308 99.3574 195.727C87.5184 196.654 75.3641 214.498 52.2321 214.09C31.9831 213.734 18.6932 194.479 13.2031 194.169C7.71302 193.86 4.99067 195.279 3.7487 195.738C2.45439 196.216 1.87696 197.062 0.507401 195.724C0.312334 195.534 0.0121674 194.376 0.00807794 192.72C-0.00500832 187.601 -0.000100974 179.291 0.00807794 174.655C0.00971372 173.575 1.1658 172.825 2.24378 172.765ZM24.3682 183.528C24.5043 180.869 41.6208 166.433 55.253 166.508C68.9731 166.584 85.8347 182.867 85.7619 184.472C85.6274 187.435 68.7715 197.693 54.9328 197.53C39.4918 197.347 24.268 185.488 24.3682 183.528Z" fill="black"/>
<path fill-rule="evenodd" clip-rule="evenodd" d="M55.0648 171.866C60.669 171.866 65.219 176.416 65.219 182.02C65.219 187.624 60.669 192.174 55.0648 192.174C49.4611 192.174 44.9111 187.624 44.9111 182.02C44.9111 176.416 49.4611 171.866 55.0648 171.866Z" fill="black"/>
<path fill-rule="evenodd" clip-rule="evenodd" d="M74.0275 81.1337C76.0113 81.0224 80.4954 83.8401 83.6941 82.356C86.8933 80.8715 92.1184 75.8869 96.9166 72.7082C101.715 69.5294 113.423 62.0212 127.803 61.7864C142.278 61.5505 152.891 68.5529 158.235 74.0638C163.668 79.6656 167.83 84.395 172.282 84.3463C176.735 84.2973 179.343 82.3511 180.846 81.7941C182.349 81.2375 183.713 82.1115 183.713 83.2769C183.713 84.442 183.942 98.9343 183.713 102.577C183.652 103.542 183.624 104.353 182.341 105.133C181.058 105.915 176.479 103.678 171.141 104.096C159.302 105.023 151.481 122.42 126.849 122.51C103.32 122.595 90.4773 102.848 84.9872 102.539C79.4971 102.229 76.7748 103.649 75.5324 104.107C74.2381 104.585 71.7959 102.745 71.7918 101.089C71.7787 95.9706 71.7836 87.6596 71.7918 83.0238C71.7934 81.9438 72.9495 81.1942 74.0275 81.1337ZM95.9727 91.2068C96.1089 88.5479 111.784 75.3516 127.037 74.8776C142.525 74.3963 157.707 89.6017 157.634 91.2068C157.5 94.1692 142.252 105.798 126.717 105.899C109.507 106.01 95.8725 93.1669 95.9727 91.2068Z" fill="black"/>
<path fill-rule="evenodd" clip-rule="evenodd" d="M18.9175 199.435C18.9175 199.435 20.7468 201.634 22.7633 203.24C25.412 205.35 28.7404 207.789 28.7404 207.789L23.9692 215.391C23.9692 215.391 23.5529 215.986 23.8547 216.529C24.0461 216.873 24.6379 216.894 24.6379 216.894L230.857 216.957C230.857 216.957 231.901 217.104 232.033 216.549C232.144 216.081 231.231 214.616 231.231 214.616L226.717 207.377C226.717 207.377 230.184 204.768 231.748 203.522C233.426 202.184 236.804 199.564 236.804 199.564L254.032 226.906C254.032 226.906 254.3 227.321 254.357 227.432C254.64 227.989 254.957 228.452 254.616 229.145C254.311 229.765 253.041 229.647 253.041 229.647H2.6689C2.6689 229.647 1.38808 229.718 1.05356 229.225C0.871584 228.958 0.835597 228.523 1.04375 228.127C1.10632 228.007 1.25804 227.783 1.25804 227.783L18.9175 199.435Z" fill="black"/>
<path fill-rule="evenodd" clip-rule="evenodd" d="M127.804 80.2291C133.407 80.2291 137.957 84.779 137.957 90.3828C137.957 95.987 133.407 100.537 127.804 100.537C122.199 100.537 117.649 95.987 117.649 90.3828C117.649 84.779 122.199 80.2291 127.804 80.2291Z" fill="black"/>
<path fill-rule="evenodd" clip-rule="evenodd" d="M253.355 172.765C251.371 172.653 246.887 175.471 243.688 173.987C240.489 172.502 234.416 167.986 229.618 164.807C224.819 161.628 212.859 153.422 200.797 152.967C188.734 152.513 173.983 159.96 168.928 165.737C163.871 171.513 159.553 176.026 155.1 175.977C150.648 175.928 148.039 173.982 146.537 173.425C145.034 172.868 143.669 173.742 143.669 174.908C143.669 176.073 143.441 190.565 143.669 194.208C143.73 195.173 143.759 195.984 145.042 196.765C146.325 197.546 150.903 195.308 156.242 195.727C168.08 196.654 180.235 214.498 203.367 214.09C223.616 213.734 236.905 194.479 242.396 194.169C247.886 193.86 250.608 195.279 251.85 195.738C253.145 196.216 253.722 197.062 255.092 195.724C255.286 195.534 255.587 194.376 255.591 192.72C255.604 187.601 255.599 179.291 255.591 174.655C255.589 173.575 254.433 172.825 253.355 172.765ZM231.23 183.528C231.094 180.869 213.978 166.433 200.346 166.508C186.626 166.584 169.764 182.867 169.837 184.472C169.971 187.435 186.828 197.693 200.666 197.53C216.107 197.347 231.331 185.488 231.23 183.528Z" fill="black"/>
<path fill-rule="evenodd" clip-rule="evenodd" d="M200.534 171.866C194.929 171.866 190.38 176.416 190.38 182.02C190.38 187.624 194.929 192.174 200.534 192.174C206.138 192.174 210.688 187.624 210.688 182.02C210.688 176.416 206.138 171.866 200.534 171.866Z" fill="black"/>
<path fill-rule="evenodd" clip-rule="evenodd" d="M108.053 120.222C108.053 120.222 115.878 124.988 126.803 124.824C138.672 124.645 147.235 119.793 147.235 119.793L172.635 160.348C172.635 160.348 166.795 165.843 164.295 168.064C162.125 169.991 160.045 172.897 157.634 173.671C155.223 174.444 152.661 174.026 150.754 173.308C149.427 172.807 146.686 171.487 145.494 171.352C144.53 171.243 142.018 171.577 142.009 174.525C141.999 178.356 142.009 194.872 142.009 194.872H113.376C113.376 194.872 113.476 180.638 113.376 177.007C113.339 175.684 113.231 174.033 112.914 173.083C112.538 171.957 110.693 171.212 108.448 171.921C107.141 172.334 104.654 173.898 102.869 174.167C101.166 174.423 98.6072 174.139 97.1632 173.2C94.6498 171.565 90.2553 166.534 87.7881 164.36C86.2357 162.993 82.7568 160.338 82.7568 160.338L108.053 120.222Z" fill="black"/>
<path fill-rule="evenodd" clip-rule="evenodd" d="M48.1289 152.334L78.2396 104.474C78.2396 104.474 82.7543 103.483 84.8244 104.091C88.6399 105.213 90.622 108.5 90.622 108.5L63.3306 152.334C63.3306 152.334 59.6321 151.051 55.0843 151.089C52.7672 151.108 48.1289 152.334 48.1289 152.334Z" fill="black"/>
<path fill-rule="evenodd" clip-rule="evenodd" d="M100.229 69.2198L126.804 26.7917C126.804 26.7917 127.275 26.0012 127.804 26C128.309 25.9988 128.726 26.6052 128.726 26.6052L156.148 70.4127C156.148 70.4127 148.926 65.2678 145.487 63.9056C140.727 62.0204 135.459 61.1239 135.459 61.1239L128.54 50.3265C128.54 50.3265 128.069 49.5279 127.804 49.5553C127.538 49.5827 127.091 50.3797 127.091 50.3797L120.239 61.0855C120.239 61.0855 114.657 62.5397 109.617 64.3988C104.983 66.1082 100.229 69.2198 100.229 69.2198Z" fill="black"/>
<path fill-rule="evenodd" clip-rule="evenodd" d="M164.708 108.128C164.708 108.128 166.644 106.526 169.837 105.899C174.137 105.055 178.513 106.335 178.513 106.335L207.303 152.331C207.303 152.331 202.285 151.296 198.71 151.374C195.366 151.447 192.397 152.334 192.397 152.334L164.708 108.128Z" fill="black"/>
</svg>
