<svg width="256" height="256" viewBox="0 0 256 256" fill="none" xmlns="http://www.w3.org/2000/svg">
<path d="M93.3785 72.0239C81.6909 79.3529 72.3086 90.4911 67.138 103.34C60.3293 120.259 60.8753 139.972 68.7965 156.505C74.809 169.054 84.8818 179.64 97.152 186.224C110.228 193.24 125.672 195.699 140.229 193.106C156.735 190.167 172.004 180.676 181.929 167.183C193.706 151.17 197.766 129.826 192.411 110.448C188.045 94.6503 177.617 80.6386 163.615 71.9353C146.271 61.1551 123.958 58.9194 104.712 66.3497C100.865 67.8343 97.1647 69.6812 93.6498 71.8551C93.5589 71.9114 93.4687 71.9676 93.3785 72.0239ZM109.573 97.5824C119.504 91.4201 132.469 90.4826 143.297 95.3213C152.702 99.5249 160.128 107.973 163.056 117.96C166.133 128.456 164.049 140.334 157.573 149.197C151.077 158.086 140.3 163.714 129.178 163.884C118.436 164.049 107.71 159.211 100.809 150.807C94.2113 142.774 91.3347 131.858 93.2369 121.547C95.025 111.86 100.883 103.051 109.424 97.6752C109.474 97.6443 109.524 97.6133 109.573 97.5824Z" fill="black"/>
<path fill-rule="evenodd" clip-rule="evenodd" d="M16.1325 142.837L0 177.768L35.847 163.9L103.352 100.937L83.638 79.8748L16.1325 142.837Z" fill="black"/>
<path fill-rule="evenodd" clip-rule="evenodd" d="M239.866 114.805L256 79.8748L220.152 93.7431L152.646 156.706L172.361 177.768L239.866 114.805Z" fill="black"/>
<path d="M143.291 113.366H113.857V142.747H143.291V113.366Z" fill="black"/>
</svg>
