<svg width="256" height="256" viewBox="0 0 256 256" fill="none" xmlns="http://www.w3.org/2000/svg">
<path fill-rule="evenodd" clip-rule="evenodd" d="M221.694 213.554C206.205 230.741 186.118 243.811 163.745 250.544C136.007 258.893 105.516 257.476 78.4054 246.137C49.7754 234.164 25.8196 211.293 12.4132 183.232C-1.80976 153.465 -3.93878 118.129 6.69037 86.7438C15.6716 60.2237 33.6246 36.864 56.8629 21.3317C77.5081 7.53355 102.331 0.0596126 127.016 0H127.427C151.912 0.0596126 176.507 7.38132 197.102 21.0135C202.722 24.7329 208.037 28.9111 212.996 33.48C236.934 54.3625 252.723 84.4402 255.533 116.778C257.464 139.007 253.389 161.729 243.704 181.842C238.087 193.505 230.603 204.208 221.694 213.554ZM128.036 13.9142C127.704 13.911 127.371 13.91 127.039 13.911C105.086 13.9632 83.2649 20.5099 64.9532 32.6315C36.7213 51.318 17.4057 82.9787 14.2537 117.37C12.3781 137.841 16.0687 158.753 24.8871 177.21C40.1969 209.252 70.8538 233.335 106.099 240.014C113.326 241.384 120.684 242.034 128.036 241.974V13.9142Z" fill="black"/>
</svg>
