<svg width="256" height="256" viewBox="0 0 256 256" fill="none" xmlns="http://www.w3.org/2000/svg">
<path d="M77.0746 197.996C91.1857 193.249 93.8725 188.836 99.1263 179.013L119.754 183.617C113.314 196.006 94.1927 203.892 89.9008 206.162C89.8065 207.322 90.4697 208.716 92.0975 209.915C94.9033 211.982 99.0328 214.094 105.862 212.751C97.9357 218.425 85.9198 218.447 79.9251 212.191C35.2701 223.342 15.6938 231.518 3 256C5.83051 231.939 17.0035 224.925 29.5776 215.555C26.7899 206.52 31.7376 193.673 41.7955 190.709C36.5343 195.265 36.3457 207.247 38.1795 209.775C39.2839 211.296 60.0808 203.712 77.0746 197.996Z" fill="black"/>
<path d="M169.971 191.801C185.821 174.373 201.336 166.071 212.518 146.359C192.719 168.171 161.042 177.203 131.533 166.756C116.631 161.479 104.426 151.994 95.7793 140.109C102.43 161.66 136.291 193.157 144.264 199.242C150.883 204.295 155.669 216.985 157.817 217.886C153.821 216.21 165.646 196.555 169.971 191.801Z" fill="black"/>
<path d="M64.6947 45.7401C64.692 45.8109 64.1606 51.5061 64.1592 51.5749C62.9699 82.1042 70.4467 103.271 86.4771 123.109C80.1241 106.847 79.3446 90.2474 85.6287 72.4982C96.1064 42.9042 116.405 24.8087 152.518 21.8726C122.353 12.0447 97.8706 13.0983 75.9492 25.276C72.5077 26.8197 61.314 29.9844 60.6194 28.3994C59.6487 31.141 64.9935 38.6137 64.799 43.3354C64.7776 43.7258 64.809 45.3677 64.6947 45.7401C64.7141 45.3062 63.8564 48.4696 64.6947 45.7401Z" fill="black"/>
<path d="M200.081 7.87449C178.67 3.40142 169.765 9.85798 145.554 15.5718C167.24 18.3662 178.598 25.8556 191.788 39.7682C215.407 52.9373 228.832 79.2028 231.6 109.784C237.236 71.6231 234.897 41.3298 223.056 19.0668C221.328 15.4013 215.687 3.2236 211.892 0C212.446 2.44009 205.597 7.81432 200.081 7.87449Z" fill="black"/>
<path d="M133.979 161.159C136.761 162.144 139.565 162.941 142.375 163.558C121.831 149.413 111.99 131.477 108.882 115.489C100.911 109.201 92.2996 87.0679 91.7126 75.9905C79.5255 112.36 100.04 149.143 133.979 161.159Z" fill="black"/>
<path d="M156.668 24.9545C132.316 28.9101 110.727 41.4368 98.8257 61.9643C124.356 40.2709 153.585 31.9799 192.309 54.1019C180.834 34.6935 167.79 26.9988 156.668 24.9545Z" fill="black"/>
<path d="M226.658 122.346C224.019 92.7951 217.085 67.0926 195.035 48.606C235.135 105.198 183.744 154.045 159.709 163.788C190.421 164.98 222.326 131.384 226.658 122.346Z" fill="black"/>
<path d="M177.395 123.368C187.414 109.677 185.008 92.3338 177.957 82.2399C178.702 94.5353 176.294 100.222 173.036 105.391C164.126 109.132 154.676 114.8 139.809 106.682C153.476 121.288 165.643 124.563 177.395 123.368Z" fill="black"/>
<path d="M158.139 127.823C136.736 120.974 130.326 104.907 130.326 104.907C130.326 104.907 128.519 92.6708 134.099 76.9098C124.094 83.3196 115.287 103.772 114.288 111.779C122.53 120.019 138.098 130.257 158.139 127.823Z" fill="black"/>
<path d="M98.1313 69.6322C95.6204 80.4536 102.421 94.4263 109.905 103.817C113.357 84.8511 127.36 70.5849 147.866 59.8993C130.839 56.7258 114.299 58.8664 98.1313 69.6322Z" fill="black"/>
<path d="M156.212 79.9629C160.753 80.4262 171.625 89.1697 173.422 94.5112C176.177 78.9374 168.616 70.4612 158.403 63.0306C146.929 66.8018 137.453 77.9493 135.565 91.0723C143.767 82.2766 151.671 79.4996 156.212 79.9629Z" fill="black"/>
<path d="M43.9556 149.421C49.8285 154.259 73.8471 167.244 116.618 177.906C101.288 163.287 92.1551 151.732 86.0328 132.456C71.8749 119.857 63.0679 97.2294 61.2087 81.0559C55.791 90.5155 53.0541 118.854 52.0152 130.553C50.9757 142.253 47.5622 148.974 43.9556 149.421Z" fill="black"/>
<path d="M253.174 159.118C250.012 159.076 248.206 155.153 247.92 145.59C248.739 124.423 245.357 103.506 239.983 83.9673C239.116 100.989 238.534 122.448 223.304 139.47C214.755 157.719 205.21 172.181 182.392 185.283C198.371 185.666 216.518 181.314 235.79 170.428C242.929 166.816 251.134 161.96 253.174 159.118Z" fill="black"/>
<path d="M196.513 63.528C188.887 56.1336 155.207 35.8955 127.773 52.6773C136.387 51.5495 164.456 50.3161 182.686 75.7118C191.751 88.3388 191.355 108.043 185.594 118.944C203.511 98.4488 205.03 78.0322 196.513 63.528Z" fill="black"/>
<path d="M201.905 105.206C178.407 139.795 150.418 151.603 118.505 121.604C122.799 138.656 141.089 156.321 151.854 161.694C167.748 155.122 197.339 128.445 201.905 105.206Z" fill="black"/>
</svg>
