<svg width="256" height="256" viewBox="0 0 256 256" fill="none" xmlns="http://www.w3.org/2000/svg">
<path d="M115.733 37.7638C59.4548 37.7638 13.6704 83.6415 13.6704 140.033C13.6704 196.424 59.4548 242.301 115.733 242.301C172.011 242.301 217.797 196.424 217.797 140.033C217.797 83.6415 172.011 37.7638 115.733 37.7638ZM115.733 256C51.9172 256 0 203.977 0 140.033C0 76.0881 51.9172 24.0659 115.733 24.0659C179.548 24.0659 231.467 76.0881 231.467 140.033C231.467 203.977 179.548 256 115.733 256Z" fill="black"/>
<path d="M187.841 67.7795H43.626V212.285H187.841V67.7795ZM183.737 71.892V208.173H47.7295V71.892H183.737Z" fill="black"/>
<path d="M145.793 109.913H85.6753V170.151H145.793V109.913Z" fill="black"/>
<path d="M115.733 71.405C77.9685 71.405 47.2441 102.192 47.2441 140.033C47.2441 177.874 77.9685 208.66 115.733 208.66C153.498 208.66 184.223 177.874 184.223 140.033C184.223 102.192 153.498 71.405 115.733 71.405ZM115.733 74.3223C151.893 74.3223 181.311 103.8 181.311 140.033C181.311 176.266 151.893 205.743 115.733 205.743C79.5732 205.743 50.1555 176.266 50.1555 140.033C50.1555 103.8 79.5732 74.3223 115.733 74.3223Z" fill="black"/>
<path d="M163.641 0.998627L256 2.3111L254.69 94.8559L163.641 0.998627Z" fill="black"/>
</svg>
