<svg width="256" height="256" viewBox="0 0 256 256" fill="none" xmlns="http://www.w3.org/2000/svg">
<path fill-rule="evenodd" clip-rule="evenodd" d="M48.4438 42.267C48.4438 42.267 53.2819 43.1307 55.3637 42.2173C58.1376 41.0002 59.0084 38.6567 59.0084 38.6567C59.0084 38.6567 57.0395 37.3915 55.7698 35.6747C53.8271 33.0471 53.5355 29.5471 53.5355 29.5471C53.5355 29.5471 60.1273 33.8799 65.463 33.6759C70.7987 33.4718 78.6259 31.4639 78.6259 31.4639C78.6259 31.4639 78.1277 31.9145 74.9963 27.8121C70.9871 22.5594 70.8165 18.4028 70.8165 18.4028C70.8165 18.4028 75.9719 21.7727 78.9261 22.8764C81.8797 23.9795 86.7284 24.5172 86.7284 24.5172C86.7284 24.5172 85.2738 23.7087 83.9221 21.0553C82.5698 18.4018 81.5962 13.5552 81.5962 13.5552C81.5962 13.5552 88.6999 23.0019 101.176 21.5869C120.113 19.4387 134.632 0 134.632 0C134.632 0 134.762 5.08257 133.954 7.58613C133.043 10.4087 131.631 12.4115 131.631 12.4115C131.631 12.4115 133.693 12.7375 136.35 11.322C138.256 10.3069 142.022 5.31292 142.022 5.31292C142.022 5.31292 142.099 11.4693 139.032 15.6411C137.766 17.364 135.672 18.3487 135.672 18.3487C135.672 18.3487 143.045 21.7975 145.999 24.3167C152.407 29.781 154.365 34.692 154.365 34.692C154.365 34.692 149.96 32.682 147.931 32.2492C145.901 31.8168 143.382 32.0907 143.382 32.0907C143.382 32.0907 149.495 38.4536 151.316 43.1049C152.709 46.663 155.728 53.0634 155.728 53.0634C155.728 53.0634 137.862 45.2748 121.506 42.5338C113.013 41.1101 100.589 39.9052 94.0852 42.8178C92.7329 43.4233 91.1118 45.4221 91.247 47.6006C91.3396 49.0997 93.3789 53.1551 93.3789 53.1551C93.3789 53.1551 86.5031 51.2479 83.5616 49.3919C81.541 48.117 76.3197 45.8737 74.0982 46.9723C72.3915 47.8163 73.2663 52.0828 74.202 54.0142C75.1371 55.9457 76.6483 58.3156 76.6483 58.3156C76.6483 58.3156 71.8984 57.6438 68.5939 54.5028C67.3758 53.3449 65.2053 50.7983 65.2053 50.7983C65.2053 50.7983 59.2894 49.8369 55.6928 48.0006C52.649 46.4468 48.4438 42.267 48.4438 42.267ZM98.5445 32.7944C98.5445 32.7944 103.153 28.4242 107.981 27.5154C116.8 25.8558 124.996 28.8834 124.996 28.8834C124.996 28.8834 119.964 29.3178 118.48 29.5086C117.379 29.6499 116.09 30.0291 116.09 30.0291C116.09 30.0291 115.059 35.2787 109.059 35.1588C103.06 35.0388 98.5445 32.7944 98.5445 32.7944Z" fill="black"/>
<path fill-rule="evenodd" clip-rule="evenodd" d="M100.602 60.728L96.5018 64.1773C96.5018 64.1773 97.566 66.6125 94.7571 67.6767C89.6401 69.6153 82.2515 63.8649 82.2515 63.8649C82.2515 63.8649 82.5046 67.3851 85.4502 71.1341C88.3243 74.792 90.6487 74.9814 90.6487 74.9814C90.6487 74.9814 90.3515 80.2695 92.2688 82.731C94.1866 85.1926 97.2546 87.7645 97.2546 87.7645C97.2546 87.7645 93.6777 81.9402 100.354 74.148C107.777 65.4825 119.954 61.7031 119.954 61.7031C119.954 61.7031 114.786 60.8779 109.155 60.5123C104.869 60.2339 100.602 60.728 100.602 60.728Z" fill="black"/>
<path fill-rule="evenodd" clip-rule="evenodd" d="M99.215 196.308C134.237 205.045 189.758 190.328 188.371 135.573C188.008 121.222 177.758 117.218 177.758 117.218C177.758 117.218 179.663 116.641 182.995 116.908C184.655 117.041 186.712 118.082 186.712 118.082C186.712 118.082 181.412 72.3001 127.009 60.6602C64.275 47.2381 21.4668 96.5768 24.2772 133.632C24.3375 134.421 32.8293 129.167 32.8293 129.167C32.8293 129.167 29.5684 133.84 28.6353 135.819C26.7691 139.776 26.1803 142.544 26.9053 148.65C28.048 158.275 46.9505 231.42 124.996 230.149C179.805 229.257 215.453 184.426 216.248 146.094C217.703 75.9458 159.913 54.1474 159.913 54.1474C159.913 54.1474 157.793 49.7604 156.21 45.2019C154.923 41.4989 149.196 35.1608 149.196 35.1608C149.196 35.1608 153.289 36.5049 155.057 37.2198C156.616 37.8496 159.808 39.449 159.808 39.449C159.808 39.449 157.947 33.2688 154.932 29.1578C150.583 23.2267 141.916 18.4028 141.916 18.4028C141.916 18.4028 251.27 27.4309 248.645 144.099C247.642 188.687 208.617 255.981 120.691 256C79.224 256.009 16.7984 228.253 7.68128 147.575C-0.232415 77.5502 63.4093 52.226 63.4093 52.226C63.4093 52.226 67.8737 57.2311 70.9716 58.3156C73.7648 59.2937 78.5122 59.717 78.5122 59.717C78.5122 59.717 76.3564 54.08 75.8066 51.5759C75.2563 49.0714 77.0698 49.4323 79.2569 50.249C81.5711 51.1127 84.7668 52.8573 88.4383 53.9251C90.9809 54.6648 95.9186 55.0121 95.9186 55.0121C95.9186 55.0121 95.2255 52.5829 94.42 50.0333C93.7082 47.7804 93.9335 46.2261 95.2048 45.3851C96.6882 44.4035 117.473 41.9328 142.214 50.9168C172.842 62.0383 188.43 84.8311 194.967 101.903C195.509 103.321 199.136 97.2517 199.136 97.2517C199.136 97.2517 196.615 105.409 197.927 110.829C198.529 113.312 199.066 115.273 199.332 116.606C201.265 126.294 201.296 145.102 193.273 162.181C191.599 165.744 191.939 168.417 193.114 169.272C194.289 170.127 199.015 169.574 199.015 169.574C199.015 169.574 193.067 170.776 187.882 175.223C178.701 183.099 171.283 195.761 147.929 203.004C124.754 210.192 109.677 205.065 100.35 202.012C102.686 203.939 105.284 205.87 107.275 206.774C115.584 210.546 122.667 209.65 122.667 209.65C122.667 209.65 125.617 217.475 127.846 219.822C130.074 222.168 137.357 225.242 137.357 225.242C137.357 225.242 104.059 232.532 82.2516 210.596C59.5615 187.773 58.3292 164.846 58.3292 164.846C58.3292 164.846 62.7511 173.723 69.1302 179.444C75.4557 185.116 82.4105 185.287 89.0494 184.377C99.2591 182.977 111.364 172.585 124.996 171.256C129.474 170.82 136.687 174.6 136.687 174.6C136.687 174.6 126.836 175.01 123.602 183.074C121.729 187.742 123.573 195.803 123.573 195.803C123.573 195.803 113.759 195.548 110.044 195.676C105.692 195.825 101.943 196.081 99.215 196.308Z" fill="black"/>
</svg>
