<svg width="256" height="256" viewBox="0 0 256 256" fill="none" xmlns="http://www.w3.org/2000/svg">
<path fill-rule="evenodd" clip-rule="evenodd" d="M230.035 30.046C231.328 30.9595 235.715 26.5702 235.715 26.5702C234.808 25.6537 231.662 23.1933 231.662 23.1933C231.561 23.1154 231.465 23.0308 231.367 22.9492L231.326 22.9185C231.298 22.8968 231.271 22.8713 231.245 22.8428C231.07 22.6654 230.975 22.3472 230.978 22.0319C230.973 21.7399 231.049 21.4561 231.233 21.3004C231.272 21.26 231.316 21.2255 231.364 21.1971L231.368 21.1948C232.684 20.3405 233.88 19.4247 234.939 18.4521C235.975 17.4547 236.962 16.3174 237.896 15.0564L237.898 15.0527C237.925 15.013 237.957 14.9763 237.992 14.9441L238.002 14.9344L238.009 14.9284C238.015 14.9224 238.021 14.9164 238.028 14.9104L238.037 14.9007C238.208 14.7487 238.481 14.697 238.755 14.7187C239.071 14.7352 239.383 14.8505 239.549 15.0355C239.576 15.0624 239.599 15.0909 239.619 15.1208L239.647 15.1643C239.723 15.2661 239.801 15.3672 239.873 15.4735C240.871 16.9613 241.916 18.3795 242.993 19.7272C242.993 19.7272 246.592 15.4039 246.614 15.3784L246.644 15.3372C246.666 15.3088 246.692 15.2811 246.72 15.2556C246.898 15.0811 247.216 14.9853 247.531 14.989C247.823 14.9831 248.107 15.0602 248.263 15.2436C248.303 15.2826 248.338 15.3267 248.367 15.3747L248.369 15.3784C249.223 16.6947 250.138 17.8905 251.111 18.9493C252.108 19.9856 253.246 20.9724 254.506 21.9061L254.51 21.9091C254.55 21.9361 254.587 21.9675 254.619 22.0027L254.629 22.0132L254.635 22.02C254.641 22.0259 254.647 22.0319 254.652 22.0379L254.662 22.0484C254.815 22.2184 254.867 22.4917 254.844 22.7665C254.828 23.0817 254.712 23.3939 254.527 23.5602C254.5 23.5864 254.472 23.6096 254.442 23.629L254.399 23.6575C254.297 23.7339 254.196 23.8118 254.089 23.8836C252.602 24.8825 251.183 25.927 249.836 27.0045C251.115 28.1621 252.466 29.292 253.889 30.3807C253.991 30.4585 254.087 30.5424 254.184 30.6248L254.226 30.6555C254.254 30.6772 254.281 30.7019 254.307 30.7303C254.482 30.9078 254.578 31.226 254.574 31.5413C254.579 31.8176 254.511 32.0864 254.348 32.2473L254.338 32.2571C254.332 32.2623 254.326 32.2683 254.319 32.2736L254.302 32.2908C254.268 32.3237 254.229 32.3529 254.188 32.3769L254.184 32.3791C252.868 33.2335 251.672 34.1485 250.614 35.1219C249.577 36.1192 248.59 37.2566 247.657 38.5175L247.655 38.5213C247.623 38.5677 247.586 38.6089 247.543 38.6455C247.376 38.8193 247.088 38.8784 246.797 38.8552C246.482 38.8387 246.17 38.7234 246.003 38.5385C244.244 36.0383 242.559 33.8475 242.559 33.8475C241.679 34.7018 237.555 37.5711 238.481 39.5201C239.407 41.4691 244.8 42.0068 248.114 45.5402L248.214 45.6465C249.072 46.5697 249.955 47.6233 250.886 48.8355C255.468 54.8032 256 58.0109 256 58.0109C256 58.0109 252.697 60.9977 251.505 62.3867C250.216 63.8894 249.192 68.6598 249.192 68.6598C249.192 68.6598 243.703 69.4962 241.158 71.6017C239.575 72.9113 236.46 75.1831 235.706 75.7304L235.539 75.8517C235.539 75.8517 235.151 74.4762 233.957 73.1794L233.897 73.1142C232.534 71.6699 230.16 70.352 226.195 71.1854C218.62 72.7773 208.219 83.3671 208.219 83.3671C208.219 83.3671 196.939 82.5023 193.111 85.0922C190.652 86.7552 194.896 90.4631 191.406 93.8341C187.76 97.3533 183.131 97.4267 180.845 97.3039C180.626 97.2926 179.782 102.807 176.271 102.246C176.271 102.246 172.954 101.403 171.538 102.101C169.809 102.953 167.242 105.167 165.9 107.358C164.511 109.626 166.171 112.917 163.829 115.119L155.958 122.52C153.586 124.75 148.86 123.538 146.564 125.403C138.382 132.048 115.623 153.247 108.121 161.215C106.167 163.29 107.736 167.392 105.458 169.534L95.5128 178.886C93.2059 181.055 89.477 178.877 87.2509 180.707C81.0571 185.797 58.0423 207.151 52.2394 213.151C51.4142 214.004 53.0466 215.69 52.4341 216.707C51.2001 218.755 46.5922 220.211 44.8356 225.441C43.0782 230.672 44.2171 233.37 42.6043 235.399C40.9929 237.427 38.4741 234.894 35.157 237.62C31.8408 240.347 27.4186 244.543 24.8091 244.235C22.1989 243.926 18.059 241.672 14.9673 243.197C13.326 244.007 11.6473 245.261 10.8731 245.558C10.7877 245.591 10.0225 245.472 10.1767 244.817C10.3669 244.011 11.8757 242.465 12.7847 240.876C14.4971 237.885 12.5016 233.613 12.3541 230.989C12.2066 228.366 16.667 224.21 19.5917 221.067C22.5171 217.924 20.1435 215.255 22.267 213.771C24.392 212.286 27.015 213.588 32.3432 212.156C37.6714 210.724 39.4123 206.214 41.5283 205.108C42.5713 204.563 44.1415 206.286 45.0363 205.521C51.3791 200.095 74.1213 178.427 79.5858 172.556C81.5491 170.446 79.6045 166.591 81.9115 164.422L91.8573 155.07C94.1358 152.927 98.1335 154.746 100.324 152.924C108.738 145.926 131.296 124.513 138.432 116.755C140.435 114.577 139.516 109.786 141.887 107.555L149.758 100.154C152.1 97.9523 155.292 99.8032 157.631 98.5648C159.88 97.375 162.221 94.9782 163.168 93.3144C163.949 91.9427 163.314 88.5807 163.314 88.5807C163.262 84.1465 168.726 84.6183 168.75 84.3255C168.998 81.1754 168.976 77.1164 172.842 73.8031C176.47 70.6935 179.861 74.9854 181.56 72.5938C184.924 67.8624 184.178 57.8005 184.178 57.8005C184.178 57.8005 195.388 48.0703 197.442 40.6073C198.502 36.7594 197.383 34.3237 196.051 32.8666L195.99 32.8014C194.834 31.569 193.541 31.0613 193.377 30.9999L193.359 30.9939C193.359 30.9939 196.341 27.3609 197.947 25.647C200.204 23.2367 201.377 17.8089 201.377 17.8089C201.377 17.8089 206.201 17.0803 207.78 15.8861C209.24 14.7824 212.424 11.6683 212.424 11.6683C212.424 11.6683 215.593 12.3968 221.268 17.3372C222.465 18.3795 223.494 19.3588 224.387 20.306L224.485 20.4109C227.738 23.8919 228.387 28.8809 230.035 30.046ZM187.012 87.6732L182.912 91.4972L182.951 91.5144C183.78 91.8948 184.699 92.0348 185.583 91.5975C187.727 90.5365 187.567 88.9132 187.037 87.7294L187.012 87.6732ZM178.72 78.5668C177.568 77.946 175.926 77.645 174.717 79.7513C174.217 80.6214 174.311 81.5618 174.652 82.4244L178.72 78.5668ZM240.081 50.035C239.954 49.901 239.822 49.7662 239.687 49.6307C230.05 40.0517 221.768 51.8583 225.971 56.3681L225.996 56.395C226.152 56.559 226.324 56.7125 226.513 56.8548C227.176 57.3542 229.093 56.1487 230.398 57.5414L230.428 57.5751C230.439 57.5863 230.449 57.5976 230.459 57.6095C231.807 59.1587 230.02 61.0127 231.081 62.4735C231.129 62.5394 231.182 62.6016 231.237 62.6615L231.256 62.6809C234.363 65.9051 248.968 59.5391 240.135 50.0919L240.081 50.035ZM206.188 36.0219C206.239 36.0735 206.291 36.123 206.347 36.1686C207.74 37.318 209.7 35.649 211.164 37.0889C212.58 38.4831 211.209 40.3707 211.674 41.0738C211.812 41.2827 211.964 41.4729 212.127 41.6451L212.153 41.6721C216.42 46.086 228.645 38.5557 219.695 28.3695C210.595 18.0133 203.045 32.6876 206.169 36.0017L206.188 36.0219ZM232.971 38.7938C233.549 38.3251 230.785 35.2117 230.21 35.795C229.165 36.8552 229.541 38.4 229.939 38.8312C230.262 39.1824 231.576 39.9252 232.971 38.7938Z" fill="black"/>
<path fill-rule="evenodd" clip-rule="evenodd" d="M0 10L36.3406 30.3417C36.3406 30.3417 40.6617 31.9209 44.1293 34.9863C46.6309 37.1982 171.449 159.59 182.965 170.882L185.181 168.611C185.181 168.611 185.184 168.61 185.188 168.606L185.931 167.845C185.931 167.845 186.074 167.74 186.294 167.662C186.378 167.628 186.469 167.602 186.568 167.59C186.844 167.547 187.177 167.581 187.496 167.836C187.653 167.933 187.82 168.063 187.996 168.231C188.408 168.628 188.905 169.107 189.448 169.646C191.384 171.517 193.661 173.859 194.094 174.305C194.855 175.086 197.206 176.499 196.419 181.204C196.154 182.79 195.588 184.448 194.833 186.076C194.417 187.106 193.894 188.172 193.248 189.252C193.502 190.165 194.568 192.445 195.619 193.487C196.726 194.586 198.626 194.589 199.975 195.675C202.463 197.68 202.123 199.805 203.537 201.196C205.204 202.833 207.032 202.492 209.072 204.763C209.713 205.477 210.157 207.251 211.61 208.651C213.167 210.149 212.993 209.914 214.543 210.374C216.092 210.835 216.94 212.006 217.2 213.345C217.397 214.357 218.139 216.054 218.783 217.04C218.902 217.222 219.083 217.208 219.151 217.159C225.818 212.333 231.504 213.913 235.927 218.208C240.668 222.81 242.273 229.017 236.359 236.445L238.109 238.159C239.297 239.322 239.317 241.231 238.154 242.419L238.117 242.456C237.996 242.58 237.866 242.692 237.73 242.79C237.634 242.928 237.526 243.06 237.404 243.184L237.368 243.222C236.204 244.409 234.296 244.43 233.108 243.266L231.357 241.553C224.055 247.621 217.816 246.146 213.115 241.504C208.733 237.177 206.886 231.683 211.549 224.927C211.597 224.858 211.668 224.604 211.508 224.494C211.499 224.488 211.496 224.479 211.49 224.473C210.645 223.711 208.873 223.058 207.861 222.883C206.516 222.651 205.327 221.828 204.835 220.289C204.341 218.749 204.581 218.918 203.05 217.392C201.62 215.969 199.837 215.562 199.11 214.936C196.797 212.945 197.1 211.109 195.427 209.478C194.007 208.093 191.889 208.478 189.833 206.032C188.719 204.707 188.676 202.806 187.555 201.723C186.491 200.695 184.188 199.677 183.27 199.442C182.204 200.11 181.149 200.655 180.128 201.092C178.516 201.882 176.871 202.483 175.291 202.781C170.603 203.666 169.14 201.346 168.344 200.601C167.889 200.177 165.5 197.949 163.589 196.054C163.038 195.522 162.549 195.036 162.144 194.631C161.972 194.459 161.839 194.296 161.737 194.141C161.477 193.827 161.435 193.495 161.472 193.218C161.483 193.118 161.507 193.026 161.538 192.942C161.613 192.721 161.714 192.575 161.714 192.575L162.46 191.817C162.463 191.812 162.464 191.81 162.464 191.81L164.688 189.546C153.157 178.27 28.1723 56.0476 25.9088 53.5931C22.7715 50.19 21.1017 45.9033 21.1017 45.9033L0 10Z" fill="black"/>
</svg>
