<svg width="3999" height="665" viewBox="0 0 3999 665" fill="none" xmlns="http://www.w3.org/2000/svg">
<path fill-rule="evenodd" clip-rule="evenodd" d="M1.00003 300.176C7.62175 298.369 31.5002 292.383 45.7469 277.926C54.4648 269.081 63.0644 262.915 78.053 232.952C82.1058 224.85 86.0412 223.952 88.5811 224.973C87.7847 226.611 85.2705 227.117 85.9402 231.016C86.1893 233.904 91.698 257.246 129.221 258.451C166.745 259.656 208.482 243.192 217.913 240.18C227.343 237.168 287.32 217.431 314.831 173.922C315.454 181.611 311.04 209.923 359.8 254.295C389.297 277.987 418.392 301.88 455.715 311.718C468.016 314.96 495.796 312.922 504.475 297.864C505.73 295.455 506.332 291.64 502.72 290.435C506.533 289.833 510.163 294.843 509.944 298.868C509.487 307.271 511.951 330.189 520.178 346.051C524.592 342.838 552.484 326.174 561.714 285.014C563.721 277.184 564.724 264.418 571.948 263.213C572.288 264.282 569.623 266.937 572.453 270.798C574.66 273.809 591.813 300.675 648.8 268.751C669.669 257.106 743.311 218.357 755.752 165.147C758.16 171.971 766.587 212.931 849.46 239.635C862.904 244.654 897.974 259.814 933.335 246.06C941.753 242.786 955.408 225.781 945.575 222.167C948.987 221.765 951.595 221.364 954.806 231.403C956.812 237.025 974.671 289.83 1027.24 299.266C1032.66 294.448 1056.54 270.555 1065.17 225.781C1067.17 219.758 1067.17 209.116 1075.6 207.911C1074.62 210.291 1073.54 211.198 1074.3 213.571C1075.05 215.946 1083.23 234.013 1111.32 234.415C1120.35 234.415 1151.85 235.819 1230.31 180.003C1249.17 166.35 1294.72 131.211 1306.36 85.2328C1309.57 93.4647 1315.49 139.245 1418.13 176.188C1442.3 184.821 1471.2 197.671 1510.53 192.05C1524.57 188.837 1540.66 184.119 1548.28 163.037C1549.16 160.611 1548.25 157.515 1544.84 156.712C1549.26 155.105 1553.47 157.314 1555.88 163.739C1558.29 170.164 1571.73 220.16 1610.06 239.234C1616.88 238.43 1655.2 233.811 1680.89 187.03C1683.54 182.194 1684.5 178.999 1691.32 181.207C1688.61 183.757 1687.52 185.327 1689.87 190.854C1690.62 192.606 1702.36 215.742 1750.92 210.923C1756.34 210.12 1804.09 204.498 1847.84 183.215C1856.67 177.995 1870.11 170.164 1885.36 150.889C1886.16 159.321 1878.34 191.248 1947.56 247.867C1958.4 256.701 1977.66 273.366 2007.16 278.185C2014.79 278.988 2042.88 276.378 2037.86 261.119C2041.67 261.721 2043.48 264.532 2043.28 281.397C2043.48 285.814 2042.68 342.032 2105.69 362.713C2112.51 359.299 2137.79 348.256 2145.82 302.077C2146.65 297.307 2146.45 283.405 2152.24 284.208C2151.79 285.686 2149.43 286.818 2152.44 290.432C2155.65 294.046 2177.32 316.935 2236.11 267.945C2244.74 260.918 2287.68 227.788 2293.3 189.64C2297.72 197.47 2302.13 221.967 2374.37 241.643C2386.41 244.655 2407.68 249.473 2425.13 245.859C2430.95 245.257 2463.06 234.013 2453.03 219.356C2456.64 218.955 2459.44 219.732 2462.06 226.183C2471.59 249.733 2485.95 259.689 2488.48 261.582C2494.81 266.31 2509.01 271.961 2518.24 273.768C2525.87 272.161 2566.2 266.138 2592.89 213.333C2597.3 207.309 2600.11 200.884 2606.93 202.089C2604.93 204.9 2598.97 216.899 2623.19 230.399C2649.47 245.056 2680.84 234.018 2699.03 230.399C2726.9 224.857 2766.86 212.128 2782.51 202.892C2798.16 193.656 2818.35 181.277 2834.88 157.716C2835.5 170.045 2840.04 189.686 2843.04 195.521C2846.12 201.51 2859.01 228.813 2910.45 266.736C2970.02 310.656 2987.91 305.383 3011.45 296.895C3016.42 295.102 3026.06 287.249 3019.68 280.268C3029.75 281.876 3026.43 301.022 3028.11 309.707C3029.99 319.432 3031.47 352.067 3061.88 375.596C3067.53 370.577 3087.43 348.754 3090.44 308.799C3090.77 304.393 3091.64 301.772 3096.26 301.772C3095.46 303.981 3092.22 312.654 3113.51 318.003C3116.6 318.781 3144.17 324.451 3200.9 274.569C3214.45 262.652 3239.53 247.159 3255.18 198.169C3257.99 204.594 3266.42 236.519 3335.24 254.589C3353.1 259.408 3394.96 276.5 3428.75 250.774C3431.73 248.161 3438.98 237.322 3431.36 234.11C3435.57 233.307 3437.58 235.515 3440.19 240.535C3444 248.365 3457.04 281.293 3496.57 293.741C3503.6 287.718 3525.47 270.852 3536.7 217.445C3538.11 212.626 3539.31 209.815 3544.33 208.811C3543.93 211.622 3539.51 211.823 3545.53 219.051C3550.75 223.87 3560.18 233.507 3578.04 231.901C3584.26 231.299 3605.73 235.313 3675.36 187.528C3689.81 177.89 3740.37 141.146 3749 98.5807C3750.61 103.801 3755.62 147.171 3851.34 180.501C3861.77 183.512 3895.88 198.972 3926.79 193.953C3957.69 188.933 3971.53 166.044 3961.1 161.627C3965.71 160.824 3969.12 162.229 3970.93 169.257C3972.74 176.284 3987.99 211.02 3999.83 219.453L4000.79 663.893L1.29614 664.658L1.0015 300.175L1.00003 300.176Z" fill="#9ea8df" fill-opacity="0.5"/>
<path fill-rule="evenodd" clip-rule="evenodd" d="M3999.79 214.942C3993.17 213.135 3969.29 207.149 3955.05 192.693C3946.33 183.847 3937.73 177.681 3922.74 147.718C3918.69 139.616 3914.75 138.719 3912.21 139.739C3913.01 141.377 3915.52 141.883 3914.85 145.782C3914.6 148.67 3909.09 172.013 3871.57 173.217C3834.05 174.422 3792.31 157.958 3782.88 154.946C3773.45 151.935 3713.47 132.197 3685.96 88.6884C3685.34 96.3781 3689.75 124.689 3640.99 169.061C3611.5 192.753 3582.4 216.646 3545.08 226.484C3532.78 229.726 3505 227.688 3496.32 212.63C3495.06 210.221 3494.46 206.406 3498.07 205.201C3494.26 204.599 3490.63 209.609 3490.85 213.634C3491.31 222.037 3488.84 244.956 3480.61 260.817C3476.2 257.604 3448.31 240.94 3439.08 199.78C3437.07 191.95 3436.07 179.184 3428.84 177.98C3428.5 179.048 3431.17 181.703 3428.34 185.564C3426.13 188.575 3408.98 215.441 3351.99 183.517C3331.12 171.872 3257.48 133.124 3245.04 79.9142C3242.63 86.7377 3234.21 127.697 3151.33 154.401C3137.89 159.42 3102.82 174.58 3067.46 160.826C3059.04 157.552 3045.38 140.547 3055.22 136.933C3051.81 136.532 3049.2 136.13 3045.99 146.169C3043.98 151.791 3026.12 204.596 2973.55 214.032C2968.13 209.214 2944.25 185.321 2935.62 140.547C2933.62 134.524 2933.62 123.882 2925.19 122.678C2926.17 125.057 2927.25 125.964 2926.5 128.337C2925.74 130.712 2917.56 148.779 2889.47 149.181C2880.44 149.181 2848.94 150.586 2770.48 94.769C2751.62 81.116 2706.07 45.9787 2694.43 0.000235555C2691.22 8.23213 2685.3 54.0109 2582.66 90.9541C2558.49 99.5877 2529.59 112.438 2490.26 106.816C2476.22 103.603 2460.14 98.8855 2452.51 77.8037C2451.63 75.378 2452.54 72.2814 2455.95 71.4782C2451.54 69.872 2447.32 72.0808 2444.91 78.5057C2442.51 84.9306 2429.06 134.925 2390.74 154C2383.91 153.196 2345.59 148.578 2319.9 101.796C2317.25 96.9603 2316.29 93.7651 2309.47 95.9735C2312.18 98.5231 2313.27 100.093 2310.92 105.621C2310.18 107.372 2298.43 130.508 2249.87 125.689C2244.46 124.886 2196.7 119.264 2152.96 97.9815C2144.13 92.7611 2130.68 84.9305 2115.43 65.6556C2114.63 74.0883 2122.46 106.013 2053.23 162.633C2042.39 171.467 2023.13 188.132 1993.63 192.951C1986.01 193.754 1957.91 191.144 1962.93 175.884C1959.12 176.487 1957.31 179.298 1957.51 196.163C1957.31 200.58 1958.11 256.798 1895.11 277.478C1888.29 274.065 1863 263.022 1854.98 216.843C1854.15 212.073 1854.34 198.171 1848.55 198.974C1849 200.452 1851.36 201.584 1848.35 205.198C1845.14 208.812 1823.47 231.701 1764.68 182.711C1756.05 175.684 1713.11 142.554 1707.49 104.406C1703.08 112.237 1698.66 136.733 1626.42 156.409C1614.39 159.42 1593.12 164.239 1575.66 160.625C1569.84 160.023 1537.73 148.779 1547.77 134.122C1544.15 133.721 1541.35 134.498 1538.74 140.949C1529.2 164.499 1514.84 174.455 1512.31 176.347C1505.99 181.076 1491.78 186.726 1482.55 188.533C1474.93 186.927 1434.59 180.903 1407.91 128.099C1403.49 122.075 1400.68 115.65 1393.86 116.855C1395.87 119.666 1401.82 131.664 1377.61 145.165C1351.32 159.822 1319.96 148.784 1301.76 145.165C1273.89 139.622 1233.94 126.894 1218.28 117.658C1202.63 108.422 1182.45 96.0435 1165.91 72.482C1165.29 84.8118 1160.76 104.452 1157.75 110.287C1154.67 116.276 1141.78 143.579 1090.34 181.502C1030.77 225.422 1012.88 220.149 989.346 211.66C984.376 209.868 974.732 202.015 981.108 195.033C971.039 196.642 974.364 215.788 972.684 224.473C970.803 234.198 969.322 266.833 938.91 290.362C933.266 285.342 913.363 263.52 910.353 223.565C910.021 219.159 909.149 216.538 904.534 216.538C905.337 218.746 908.576 227.419 887.287 232.768C884.191 233.546 856.625 239.217 799.893 189.335C786.34 177.418 761.264 161.925 745.612 112.935C742.803 119.36 734.375 151.285 665.549 169.355C647.691 174.173 605.833 191.265 572.042 165.54C569.059 162.926 561.808 152.088 569.434 148.875C565.22 148.072 563.213 150.281 560.605 155.3C556.792 163.13 543.75 196.058 504.22 208.506C497.197 202.483 475.325 185.617 464.088 132.21C462.684 127.392 461.48 124.581 456.463 123.577C456.865 126.388 461.279 126.588 455.259 133.817C450.042 138.635 440.611 148.273 422.753 146.667C416.532 146.064 395.062 150.079 325.433 102.294C310.985 92.6563 260.419 55.9127 251.791 13.3477C250.186 18.5679 245.169 61.9372 149.455 95.2665C139.02 98.278 104.908 113.738 74.0068 108.719C43.1053 103.699 29.2598 80.8102 39.6941 76.3929C35.0789 75.5898 31.6678 76.9954 29.8619 84.0227C28.0558 91.0498 12.8058 125.785 0.966843 134.218L6.69544e-08 662.892L3999.5 663.658L3999.79 214.941L3999.79 214.942Z" fill="#9ea8df" fill-opacity="0.5"/>
</svg>
