<svg viewBox="0 0 1913 1917" xmlns="http://www.w3.org/2000/svg" xml:space="preserve" style="fill-rule:evenodd;clip-rule:evenodd;stroke-linejoin:round;stroke-miterlimit:2"><path d="M408.74 228.225c0 101.636-82.393 184.028-184.028 184.028-101.637 0-184.029-82.392-184.029-184.028S123.075 44.197 224.712 44.197c101.635 0 184.028 82.392 184.028 184.028Z" style="fill-rule:nonzero" transform="scale(4.16667)"/><path d="M85.067 68.923c-.093 1.01-1.475 2.451-4.146 4.325 1.605 2.37 2.447 3.951 2.527 4.743l-.05-.495c.044-.204-.005-.533-.148-.985-.143-.452-.225-.777-.245-.975l-3.474.355-.32-3.168c-.394-3.895-.572-5.977-.534-6.248.47.152 1.307.717 2.511 1.694 1.204.977 1.967 1.45 2.288 1.417.258-.027.788-.248 1.591-.663Zm-19.07 39.961-.612 1.664-.812-.318.526-1.554.898.208Zm77.198 82.737c.858 7.848-.393 15.411-3.752 22.69-3.743 7.985-9.08 13.066-16.01 15.241-.881.29-2.266.732-4.157 1.326l-1.6.563c-.63.198-.845.32-.646.366l-37.733 3.858-9.015-89.207c-.206-.112-.374-.161-.503-.148-.193.019-.376.138-.549.356-.073-.726.179-1.452.755-2.178-2.922-1.902-4.674-5.724-5.253-11.467-.107-1.056.057-2.973.491-5.752.509-3.319.792-5.349.847-6.088l1.278 1.07c.171-.885.059-3.274-.334-7.168-.674-6.667-1.684-11.198-3.032-13.595-.25.092-.589-.04-1.015-.396-.683 1.603-.944 3.197-.784 4.781.173 1.717.836 3.449 1.987 5.199l-3.763.385-1.171-.981c-.541 1.723-1.559 3.227-3.054 4.514-.812-.317-2.071-1.189-3.775-2.615-.993 1.101-1.594 3.197-1.802 6.286a1812.59 1812.59 0 0 1-.255 7.128c-1.322-.865-2.07-2.156-2.243-3.872-.034-.33.235-2.491.807-6.484-1.21-1.677-1.804-2.417-1.784-2.219-.1-.99-.186-2.482-.258-4.475-.071-1.993-.157-3.485-.257-4.475-.08-.792-.393-1.96-.939-3.505-.546-1.545-.859-2.713-.939-3.505-.014-.132.021-2.036.105-5.713l2.026-.207 1.821 1.614 1.377-3.741c.459.686.736 1.491.829 2.416.127 1.254-.019 2.702-.438 4.346.348.231.844.314 1.487.248 1.416-.145 2.234-.729 2.456-1.752-.013-.132-.059-1.227-.137-3.287.812.317 2.215.374 4.21.17 1.672-.171 3.414-2.55 5.226-7.136l.24 2.376 37.444-3.828c8.042-.823 15.447 2.022 22.215 8.532 6.484 6.272 10.182 13.597 11.093 21.973l8.504 78.356Zm-92.966-59.317-.965.098-1.04-4.495.965-.099 1.04 4.496Zm13.251 75.169-1.191 1.722-3.184.326c.377-.772.908-1.627 1.593-2.564l2.782.516ZM54.374 98.069l-.898-.208-.526 1.554.812.317.612-1.663Zm65.807 85.801-1.521-15.049c-1.56-.641-2.379-1.991-2.457-4.05l-.13-1.287.483-.05c1.127 2.152 1.686 3.496 1.675 4.03l-3.766-38.227-.07-.693c-.751-4.858-1.597-9.373-2.539-13.545-.269-1.373-1.289-3.102-3.059-5.189-3.174-3.743-7.27-5.358-12.288-4.845-.772.079-1.573.194-2.402.345.801.852 1.815 1.882 3.042 3.09-.08-.792.137-1.214.652-1.267.643-.065 1.252.172 1.827.714-.796.481-1.981 1.303-3.554 2.464-.707.072-1.659-1.631-2.856-5.11-.222 1.023-.841 2.287-1.859 3.791a16.297 16.297 0 0 0-2.87-3.307l1.441 14.257c.049-.805.523-1.254 1.424-1.346.342.165.761.456 1.258.872-.487 2.25-1.267 3.864-2.338 4.84l.75 7.426c.772-.079 1.542.142 2.31.664-.366.237-1.046.907-2.04 2.009l7.905 78.217 8.782-.898c9.908-1.013 13.974-10.297 12.2-27.856Zm-51.483-54.055-.701-6.93-.965.098.701 6.931.965-.099Zm.32 6.069-.35-3.465c-.321.033-.845.32-1.57.861.086.858.727 1.726 1.92 2.604Zm24.854-23.247-.612 1.663-.812-.317.622-1.564.802.218Zm5.173 4.873-.612 1.663-.812-.317.621-1.564.803.218Zm15.305 20.242-1.733 1.177-.646-2.535c1.479-.151 2.273.302 2.379 1.358Zm-12.867-7.688-.965.099-.22-2.178.965-.099.22 2.178Zm4.937 19.902-.965.099-.401-3.961.965-.098.401 3.96Zm8.427 8.141-.965.099-.34-3.366.965-.099.34 3.366Zm.88 2.911-.965.099-.221-2.178.966-.099.22 2.178Zm-16.264-1.738-.299 2.831c-.965.099-1.728-.056-2.289-.466l.405-2.742c.528.079 1.256.205 2.183.377Zm.274 17.177-.965.099-.161-1.584.966-.099.16 1.584Zm6.559 14.735c-1.442 1.814-2.806 2.787-4.093 2.919.872-1.023 1.896-2.461 3.074-4.316.162.317.502.783 1.019 1.397Zm-8.074-.775-.965.098-.16-1.584.965-.098.16 1.584Zm2.078 6.089-1.544.158-.1-.99 1.544-.158.1.99Z" style="fill:#fff;fill-rule:nonzero" transform="scale(4.16667)"/><path d="M150.549 67.402c.285 3.55.1 8.784-.556 15.703-.655 6.918-.876 12.089-.662 15.514.125 2.004.339 3.904.643 5.702-.463-2.307-1.193-5.797-2.188-10.471a45.473 45.473 0 0 1-.473-1.43l-.072.394c.04-.392.495-3.859 1.366-10.401.487-3.469 1.122-8.667 1.905-15.593l.037.582Zm79.31 111.73c.065 1.034-.112 1.791-.529 2.271-.383.024-1.11-.871-2.183-2.686.47.36 1.375.498 2.712.415Zm-10.306 11.641c-1.901-1.763-2.872-2.968-2.912-3.614-.02-.323.415-1.031 1.307-2.125.143.25.678 2.163 1.605 5.739Zm7.035 28.172-22.267 1.391c-2.506-11.457-4.946-21.848-7.318-31.172-7.69-.233-14.466-.167-20.327.2-1.848.115-2.942 1.027-3.283 2.735-.099.46-.096 2.05.01 4.768.06.969.015 1.783-.136 2.442-.284 3.651-.722 8.933-1.313 15.847-.146 1.761-.775 2.968-1.885 3.621l1.075.322.206 3.296-21.694 1.355 4.967-49.553c-1.048-.389-3.986-1.86-8.814-4.413-2.514-1.335-6.254-2.853-11.221-4.554-3.976-1.179-9.883-3.081-17.722-5.705-.458-.166-1.464-.914-3.018-2.245-1.215-1.027-2.396-1.504-3.543-1.433l-1.034-1.2c.051-.198.075-.329.071-.394-.032-.517-.397-.721-1.094-.613 1.362-.734 3.094-1.166 5.196-1.298 1.147-.071 3.681 1.328 7.601 4.197 3.921 2.869 6.55 4.262 7.888 4.178 5.607-.35 11.65 2.192 18.129 7.627 1.274-.08 2.676-.687 4.204-1.82l-1.829-1.638 3.631-.226 1.237-.175c.318-.02.475-.062.471-.127l.896-1.029.071-.394c-.053-.84-2.522-1.983-7.41-3.429l-.285 1.574-.203-.181c.279.371.532.842.759 1.412-.577-.029-.998.143-1.263.517-.264.373-.378.851-.342 1.432l-2.102.131c-.208-.246-1.26-1.218-3.157-2.917-1.625-1.455-2.452-2.409-2.481-2.861-.028-.453.137-.885.495-1.296l-.206-3.296c-.271-.243-.693-.346-1.266-.311-1.274.08-1.791 1.021-1.551 2.822l-3.44.215c.633-.104 1.383-.378 2.251-.822-1.128-1.681-2.553-2.987-4.274-3.917.45.036.962.037 1.535.001 1.402-.088 3.201-.46 5.399-1.116l-2.439-2.183c2.04.911 3.5 1.76 4.381 2.548-.109-.706-.213-1.868-.314-3.483 2.303 1.024 3.932 1.506 4.887 1.446.383-.024.753-.242 1.111-.653.358-.412.728-.63 1.11-.653.526.226 1.474.556 2.844.99.12-.138.175-.271.167-.4l-.975-1.788c1.565-.552 2.283-.824 2.156-.816.446-.028.992.522 1.638 1.649.306-.213.571-.587.794-1.12.7-.043 1.639.644 2.815 2.063 1.531-7.233 1.343-8.729 1.13-12.154-.025-.388-.012-5.79-1.654-8.542-1.787-3.003-2.832-4.884-3.135-5.644-.77-2.092-1.356-4.813-1.756-8.162-.058-1.943-.392-4.744-1.005-8.404.212.311 1.138 3.887 2.78 10.726 1.379 5.688 3.242 9.919 5.589 12.692l5.806-53.012 28.002-1.749c.171.703 8.104 34.042 23.798 100.016.618.675 1.15.999 1.596.971-.326.929-.425 2.427-.295 4.495l-.383.024c-.963-.07-2.299.565-4.006 1.905.463 1.268 1.338 2.479 2.625 3.631l-.329-.661.097 1.551c.185 2.973.934 5.749 2.246 8.327l.74-.436c-.629-.869-.989-2.014-1.077-3.436.096.513.761 1.445 1.997 2.795a4.984 4.984 0 0 0-.035.975c.092 1.487.848 2.834 2.267 4.043 1.174 4.468 2.912 11.302 5.213 20.501Zm-103.613-69.144-6.363-2.036 2.622-1.039c.872.659 2.12 1.684 3.741 3.075Zm2.071 5.515-1.529.095-.06-.969 1.529-.096.06.97Zm-18.736-5.058-1.253 1.44c-1.31-.502-2.829-1.769-4.554-3.802 2.645 1.391 3.999 2.085 4.063 2.081.446-.028.663-.138.651-.332a1.526 1.526 0 0 0-.419-.558c.339.303.843.693 1.512 1.171Zm-7.634-.886-3.286-.379-.066-1.066 3.291.476.061.969Zm88.418-72.867-.061-.969-2.102.131.06.969 2.103-.131Zm3.511 82.404-10.095-46.472-3.92 43.26c-.02.715.517 1.622 1.609 2.722 1.367 1.406 2.086 2.172 2.158 2.298-.358.411-1.111.653-2.258.725 1.642.676 2.453 1.371 2.433 2.086-.935.383-2.052.939-3.349 1.669.637-.04 1.603-.181 2.899-.424 1.296-.244 2.263-.385 2.9-.425.032.517-.163.984-.584 1.399l2.384 1.311c.024.388-.322.993-1.038 1.817l2.771-.174-.03-.484c-.072-1.164.436-2.752 1.526-4.767a255.254 255.254 0 0 0 2.594-4.541Zm23.294 19.663c-.463-.231-1.935-1.274-4.417-3.13-2.216-1.679-3.514-2.506-3.897-2.482-.637.04-1.659.315-3.066.824-1.408.51-2.495.756-3.264.739l-.382.024c.231.634.393 1.176.485 1.624.438-.157.816-.245 1.135-.265.637-.04 1.16.154 1.571.583a10.375 10.375 0 0 0-.207 2.835l.055.872c.024.388.092.968.204 1.739.719-1.796 1.24-3.191 1.562-4.185 1.808.277 2.772 1.384 2.893 3.323.012.194-.009.358-.065.491 1.246-.532 1.71-.788 1.391-.768.128-.008.225.018.293.079-1-.651-1.646-1.26-1.937-1.826l.901-.932c.335.239.833.532 1.494.88.175-.27.442-.611.8-1.023.279.372.494.748.646 1.127-.452-2.112-.671-3.072-.659-2.878l1.434 1.468c.025.387-.018.99-.127 1.808-.108.818-.151 1.42-.127 1.808a68.926 68.926 0 0 0 2.067-.713c-.041-.646-.163-1.579-.367-2.799.331.174.859.433 1.584.777Zm-1.323 4.948-.133-2.132-1.051.065.133 2.133 1.051-.066Zm-3.367 1.378-.875-3.254-.956.06.779 3.26 1.052-.066Zm.754 2.873-.169-2.714-1.051.065.169 2.715 1.051-.066Zm-9.204-7.6-.206-3.296-.956.06.206 3.296.956-.06Zm10.291 6.559-.956.06-.249 2.156.956-.06.249-2.156Zm-13.45-12.59-1.051.066-.368 3.332.956-.06.463-3.338Zm-19.907-13.062-.169-2.715-1.052.066.17 2.714 1.051-.065Zm44.906 44.686-.097-1.551-.955.06.096 1.551.956-.06Zm-40.109-37.006-.067-1.066-4.933.892.066 1.066 4.934-.892Zm20.982 21.073c-.697-.93-1.089-2.073-1.173-3.43a12.444 12.444 0 0 1-.001-1.557c.024.387-.322.993-1.038 1.816l-2.439-2.183a98.38 98.38 0 0 0 .695 3.46c1.752-.629 2.676-.167 2.773 1.384.032.517-.055 1.171-.261 1.962l1.444-1.452Zm-17.486-11.17c-.049-.776-.583-1.651-1.603-2.625l.072 1.163c.041.647.115 1.323.223 2.03.307-.214.742-.403 1.308-.568Zm-29.531-28.908-2.676.167.133 2.133 2.007-.126c.422-.415.601-1.14.536-2.174Zm26.589 32.498-.878-.237-.579 1.496.789.34.668-1.599Zm-39.934-26.507-2.247-.638.055.873 1.954.559.238-.794Zm2.331 1.996c-.339-.303-.805-.599-1.398-.886-.956.06-1.388.833-1.295 2.319.617-.363 1.515-.841 2.693-1.433Zm8.848 63.385-.096-1.551-1.052.066.097 1.551 1.051-.066Zm53.014-43.698-2.102.131c-.841-1.18-1.676-1.744-2.504-1.693l1.241-1.634c1.378.562 2.5 1.628 3.365 3.196Zm-20.071-17.237c-.088.654-.31 1.187-.668 1.599-.892.056-1.841-.794-2.845-2.547.637-.04 1.808.276 3.513.948ZM321.106 58.036c-1.943 1.215-3.518 1.876-4.726 1.985-.318.029-.846-.135-1.582-.492-.737-.356-1.322-.45-1.756-.281 1.359-.577 2.642-.92 3.85-1.028.382-.035 1.053-.046 2.016-.036.962.011 1.695-.038 2.198-.148Zm-9.138-.056-1.969 1.64-.554-.828 1.882-1.535.641.723Zm-16.471-1.444-.304.905-2.696-1.123.208-.896 2.792 1.114Zm-4.109-.801-.4.914-2.227-1.263.503-.825 2.124 1.174Zm-36.076 2.952c-1.144.103-1.699.348-1.665.735l-.017-.193c-.011-.844.142-1.281.46-1.309.433.546.841.802 1.222.767Zm48.572 145.909-22.793 2.05-19.806-59.363-9.156.824 5.406 60.658-9.919.892-9.63-108.063c-.132-1.483-.568-2.777-1.307-3.881l9.932 111.45-12.303 1.106-1.724-19.349c-.763-.646-1.369-.982-1.82-1.006l1.544-2.089-11.087-124.413c1.74.103 3.531.072 5.375-.094a45.38 45.38 0 0 0 6.442-1.067c.214.956.401 2.337.562 4.143.156.311.424.449.806.415-.286-6.085-.413-12.543-.381-19.372.69 7.739 1.572 12.959 2.645 15.658 1.769-.289 3.861-.543 6.278-.76 4.704-.423 10.608-.694 17.712-.813.294-.287.428-.591.398-.914a1.443 1.443 0 0 0-.441-.642c1.046.946 1.759 1.402 2.141 1.367.636-.057.893-.405.772-1.044l1.378 1.436c.907-.602 1.584-.923 2.029-.963.381-.034.572.307.572 1.022 14.586 3.304 22.896 16.371 24.931 39.203.776 8.707.593 15.647-.548 20.821-1.419 6.369-4.708 12.613-9.867 18.734l21.859 64.054Zm-77.125-15.395-.954.086-.138-1.548.954-.086.138 1.548Zm9.03-114.422-.604-6.772-1.049.094.604 6.772 1.049-.094Zm.259 2.902-.19-2.128-1.049.094.189 2.128 1.05-.094Zm34.483 25.569c-1.046-11.738-4.3-18.402-9.762-19.991.082.903.006 1.495-.225 1.776-.197-.763-.823-1.682-1.88-2.757l-2.098.189c.173.504.276.95.311 1.337.058.645-.056 1.175-.338 1.591-.832-.705-1.274-1.348-1.326-1.929.138 1.548-.365 2.374-1.51 2.477.573-.052.87.051.893.309a2.569 2.569 0 0 1-.495.922c.486-.303.951-.475 1.397-.515.952-.086 1.525.22 1.715.918.306 1.273.496 1.971.572 2.094-.111.205-.292.319-.547.342-.064.006-.228-.045-.495-.151-.264-.106-.412-.32-.44-.643-.018.522-.322 1.07-.912 1.643l-1.04-.882c.405-.491.683-.972.833-1.44l-1.605 3.557c-.555-.47-1.398-.946-2.531-1.43-.209 1.969-.699 4.744-1.469 8.324l-.945-.89c.434-.884.628-1.584.582-2.1-.04-.452-.262-.789-.667-1.013.035.387-.128.905-.486 1.555-.359.65-.521 1.168-.486 1.555l2.586 29.024 11.063-.995c7.502-.675 10.604-8.301 9.305-22.877ZM339.801 46.856l-.527.659-1.622-1.347.528-.659 1.621 1.347Zm-9.284 20.811-1.586.969-.091-.898 1.302-.839.375.768Zm-5.898 1.41-2.255.231-.111-1.098 2.255-.231.111 1.098Zm61.363 135.889-23.425 2.395c-7.348-19.145-11.062-29.116-11.143-29.915-.101-.997.126-1.693.681-2.086-2.243-2.593-4.88-8.104-7.91-16.533-3.734-10.171-6.173-16.341-7.317-18.509-2.461 5.696-5.009 12.813-7.646 21.35.225.918.395 1.942.509 3.073.336 3.327.378 7.658.125 12.994.967 2.388 1.66 5.644 2.076 9.769.175 1.73.395 5.539.66 11.427.151 4.757.469 8.556.954 11.396l-22.249 2.275a68.39 68.39 0 0 0-.19-11.676 73.154 73.154 0 0 0-2.011-11.087l-1.163 1.228c.909-2.109.99-6.857.244-14.241L296.579 62.063l22.543-2.305 5.879 58.18 20.026-60.526 22.837-2.335-20.013 54.778c6.399 16.284 9.639 24.826 9.72 25.624.289 2.861-.895 4.864-3.552 6.009l.171 1.697c.081.798.691 1.609 1.831 2.434a285.724 285.724 0 0 1 3.543-2.177c1.241-.127 2.247.678 3.016 2.414.968 2.388 2.422 6.003 4.364 10.846a4306.552 4306.552 0 0 0 9.832 23.798c5.915 14.115 8.893 21.373 8.934 21.772l.272 2.694Zm-54.425-74.087-1.682-1.945c-1.259.599-2.902 1.002-4.928 1.209l.343 3.393 2.647-.27a154.02 154.02 0 0 1 3.62-2.387Zm-9.749-1.423c-.054-.532-.36-1.274-.918-2.225-.558-.951-.861-1.66-.908-2.125-.307 2.182-.906 5.402-1.796 9.661.576.479 1.349.937 2.317 1.376.118-.146.136-.619.055-1.417-.154-1.53.03-2.642.555-3.334.524-.692.756-1.337.695-1.936Zm48.515 53.821-.815-.219-.632 1.577.824.319.623-1.677Zm-51.355 17.047-2.432-.558.09.898 2.031.498.311-.838ZM76.773 249.064c.281.244.106 3.577-.21 4-.316.423-1.718-.794-1.683-1.46.035-.667 1.613-2.783 1.893-2.54Zm-2.268 2.884c-.158.288-.902.364-1.115.114-.212-.25-.321-1.327-.163-1.615.159-.288.902-.364 1.115-.114.213.25.322 1.327.163 1.615Zm.622 6.158c.003.372-.965.455-1.114.114-.377-.862-1.143-4.388-1.149-5.288-.002-.372.966-.455 1.115-.114.377.862 1.143 4.388 1.148 5.288Zm4.069 6.826c.062.835.019 1.375-.105 2.51-.124 1.134.471 2.884-.094 2.61-.566-.274-2.879-3.326-3.297-4.253-.208-.462.447-1.32.79-1.304.343.016 1.059 1.2 1.267 1.4.049.047-.013-.135-.02-.202-.039-.387-.112-1.417-.214-2.12-.224-1.541-1.218-5.468-1.13-7.126.058-1.088 1.319-3.856 1.66-2.822.467 1.415.97 9.004 1.143 11.307Zm-4.441-2.402c.244.157.065.797-.222.839-.387.056-1.733-.265-2.098-.5-.256-.165-.394-.864-.092-.908.387-.057 2.048.334 2.412.569Zm-4.589 2.203c-.141.287-.817.356-1.013.104-.196-.252-.305-1.329-.163-1.615.142-.287.817-.356 1.013-.104.196.252.305 1.329.163 1.615Zm2.554-.057c.098.466-.184 2.399-.424 2.899-.146.306-.943.435-1.013.104-.098-.466.184-2.399.424-2.899.146-.306.943-.435 1.013-.104Zm7.725 18.692c-.028.65-1.602-.483-1.815-.733-.202-.237.524-.457.537-.769.04-.956-.511-5.217-.298-4.967.213.25 1.615 5.513 1.576 6.469Zm77.504 2.071c1.02 10.095 1.005 18.053-.045 23.872-1.716 8.675-5.833 15.216-12.35 19.622-4.726 3.203-12.764 5.384-24.113 6.545-.797.897-1.08 2.49-.848 4.778.108 1.077 1.1 4.478.681 3.704-.419-.773-1.729-4.617-3.198-8.342l-3.952.404c-.263.775-.36 1.499-.292 2.172l6.121 60.571-23.103 2.362c-.076-1.42-.27-3.678-.582-6.774-.32-3.163-1.365-4.722-3.135-4.677.56-.534.759-1.268.596-2.203l1.44 1.077-14.16-140.123 39.721-4.061c21.82-2.23 34.226 11.46 37.219 41.073ZM81.432 290.1c-.06.368-.982.462-1.115.114-.255-.671-.534-3.43-.418-4.139.06-.367.982-.461 1.115-.114.255.671.534 3.43.418 4.139Zm52.283 48.305c-.21.293-1.353.971-1.641.983-.289.013-.269-.66-.092-.908.209-.293 1.058-.839 1.347-.852.289-.012.554.541.386.777Zm-2.949.199c-.109.321-.843.396-1.014.104-.206-.353-.356-1.834-.224-2.221.108-.321.843-.396 1.013-.104.207.353.356 1.834.225 2.221Zm-1.977-1.328c.032.32-.4 1.452-.648 1.699-.205.204-.812.067-.841-.22-.032-.32.399-1.452.647-1.699.206-.204.812-.067.842.22Zm5.021 7.137c-.208.48-1.482 2.055-1.914 2.337-.262.171-.803-.358-.679-.644.207-.48 1.491-1.955 1.924-2.237.241-.157.783.28.669.544Zm-3.556 1.281c.167.264-.361.801-.648.678-.483-.205-1.957-1.465-2.241-1.912-.168-.264.249-.892.536-.769.481.206 2.069 1.556 2.353 2.003Zm4.684 3.805c.164.236-.282.781-.547.668-.481-.206-2.043-1.474-2.342-1.902-.164-.236.282-.781.547-.668.481.205 2.043 1.474 2.342 1.902Zm-4.38-2.816c.175.22-.616 3.361-.95 3.769-.334.408-1.192-.774-1.054-1.32.158-.628 1.828-2.669 2.004-2.449Zm-47.03-29.768c-.005.338-.942.434-1.014.103-.318-1.463-.917-7.385-.897-8.883.004-.339.941-.434 1.013-.104.318 1.463.917 7.386.898 8.884Zm.867 8.581c-.014.338-.933.432-1.014.103-.289-1.177-.772-5.955-.724-7.167.014-.338.933-.432 1.013-.104.29 1.178.773 5.956.725 7.168Zm38.563 36.141c.041.404-.026 1.431-.08 1.233-.054-.199.134-1.705-.245-2.423-.443-.839-2.232-1.44-2.414-2.609-.195-1.255 1.079-3.238 1.243-4.921.177-1.803-.381-7.152-.186-5.897s1.077 10.991 1.357 13.427c.047.409.284.787.325 1.19Zm5.684-1.499c.033.337-.398 1.469-.647 1.699-.224.205-.821-.02-.852-.321-.034-.337.398-1.469.648-1.699.223-.205.821.02.851.321Zm-47.44-35.846c.049.318-.383 1.45-.648 1.698-.235.22-.893.108-.942-.209-.049-.318.382-1.45.647-1.698.235-.22.894-.108.943.209Zm3.336 2.617c.186.661.272 3.373.104 4.069-.088.362-1.014.472-1.115.114-.186-.661-.171-3.382-.003-4.079.08-.329.922-.429 1.014-.104Zm39.448 41.865c.005.338-.864.407-1.013.104-.365-.745-1.168-3.791-1.179-4.572-.005-.372.951-.448 1.115-.114.365.745 1.067 3.801 1.077 4.582Zm-39.14-35.777c.375 1.016.357 3.874.602 6.977.246 3.102.822 6.443.603 6.976-.219.532-1.616-2.402-1.918-3.782-.476-2.178-1.057-7.593-.938-9.288.043-.62 1.435-1.466 1.651-.883Zm-.914 12.231c-.159.289-.902.364-1.115.114-.213-.25-.322-1.327-.163-1.615.159-.288.902-.364 1.115-.114.213.25.321 1.327.163 1.615Zm40.881 31.723c.125.565-.032 2.893-.261 3.495-.133.348-1.034.477-1.115.114-.125-.565.133-2.904.362-3.505.121-.317.941-.434 1.014-.104Zm1.699 10.74c-.126.35-.92.431-1.114.114-.225-.368-.382-1.916-.235-2.322.127-.35.921-.432 1.115-.114.225.368.381 1.916.234 2.322Zm-38.381-22.187c.034.337.023 1.069-.01.919-.032-.15.118-1.288-.183-1.817-.457-.803-2.176-1.746-2.556-3.003-.564-1.863-.949-6.524-.826-8.177.057-.776 1.48-1.222 1.564-1.741.084-.518.359-1.37.41-1.011.303 2.154 1.141 11.46 1.408 13.932.033.304.166.629.193.898Zm.998 6.834c-.063.367-.98.461-1.115.114-.254-.654-.526-3.346-.408-4.038.062-.367.98-.461 1.115-.114.253.654.525 3.346.408 4.038Zm1.234 12.215c-.062.367-.98.461-1.115.114-.253-.654-.525-3.346-.408-4.038.063-.367.98-.461 1.115-.114.254.654.526 3.346.408 4.038Zm2.152 5.084c-.067.517-1.831 2.482-2.117 2.358-.285-.124.051-2.708.404-3.101.352-.393 1.78.226 1.713.743Zm-.826 8.04c.051.335-.389 1.553-.637 1.799-.215.214-.806-.022-.851-.321-.051-.335.298-1.441.546-1.688.228-.226.894-.107.942.21Zm43.086-109.563c-.728-7.201-2.103-12.364-4.126-15.489-2.839-4.469-7.637-6.359-14.393-5.668a35.097 35.097 0 0 0-3.627.575c-.419-.093-2.351.036-5.796.388l4.662 46.136 6.586-.674c-.845-.933-1.328-2.006-1.451-3.217-.081-.808.365-5.511.645-5.778.28-.267.887 2.697 1.036 4.178.157 1.548.117 3.184-.118 4.908l6.282-.643c8.445-.863 11.878-9.102 10.3-24.716Zm-7.699-11.35c-.133.348-.915.428-1.115.114-.223-.351-.373-1.832-.224-2.221.132-.348.915-.428 1.114-.114.223.351.373 1.832.225 2.221Zm-2.465-3.114c.494.327.044 1.744-.546 1.688-.603-.057-3.163-1.75-3.072-2.032.091-.281 3.106.006 3.618.344Zm-1.27 9.718c-.06.333-.888.417-1.013.103-.229-.571-.467-2.927-.358-3.533.061-.333.888-.418 1.014-.104.228.572.466 2.928.357 3.534Zm-8.588-5.956c-.062.367-.98.461-1.114.114-.254-.654-.526-3.346-.408-4.038.062-.367.98-.461 1.114-.114.254.654.526 3.346.408 4.038Zm.6 1.877c.243.156.064.796-.223.838-.386.057-1.733-.264-2.098-.499-.256-.165-.394-.864-.092-.909.387-.056 2.048.335 2.413.57Zm13.932 13.263c-.158.288-.901.364-1.114.114-.213-.251-.322-1.328-.164-1.616.159-.288.902-.364 1.114-.114.214.251.323 1.327.164 1.616Zm-12.934-5.41c-.031.371-1.01.471-1.115.114-.286-.974-.687-4.944-.602-5.956.032-.371 1.01-.471 1.115-.114.286.974.688 4.945.602 5.956Zm8.912 6.127c-.253.196-1.334.306-1.621.166-.288-.141-.356-.814-.103-1.01.254-.196 1.335-.306 1.622-.166.287.141.355.814.102 1.01Zm-8.575-2.795c.051.334-.389 1.552-.637 1.799-.216.214-.806-.022-.852-.321-.051-.335.298-1.442.546-1.688.228-.227.895-.108.943.21Z" style="fill:#fff;fill-rule:nonzero" transform="scale(4.16667)"/><path d="M247.392 343.211c.111 1.092-.042 1.901-.458 2.427-.398.04-1.195-.878-2.39-2.757.506.362 1.455.472 2.848.33Zm-11.36 12.911c-2.058-1.79-1.891-1.764-1.96-2.447-.034-.341.391-1.109 1.276-2.303.16.259-.432 1.001.684 4.75Zm10.953 31.486-4.617.051c-.792.009-1.537-1.532-2.259-1.524-.652.007-1.42 1.565-2.072 1.572-.659.007-1.678.808-2.345.815-.932.011-2.049-.767-3.245-.754l-10 .11c-3.093-12.032-6.323-23.997-9.188-33.776-8.038.062-16.589 1.69-22.692 2.314-1.924.197-1.296.981-1.581 2.804-.085.491-.015 2.175.208 5.049.104 1.024.091 1.888-.039 2.591-.145 3.878-.724 3.834-1.054 11.18-.079 1.871-.684 3.174-1.816 3.911l2.873 1.04-1.044 8.397-25.824 1.895s1.64-16.385 2.227-20.996c.215-1.693.394-5.16.219-6.523-.269-2.09 2.7-2.673 2.832-3.705.187-1.471-.879-3.356-.636-5.264l1.458-11.462 2.528-1.248-2.379-1.258.107-1.81c-1.11-.369-3.399-3.641-4.366-5.25-.448-.744-2.279-1.319-1.978-1.66.301-.341 2.938-.283 3.782-.387.431-.053.988-.17 1.283-.234.166-.037-1.465-2.571-1.472-2.64l.892-1.125.058-.42c-.09-.888-1.291.813-2.642.537-.54-.11 1.709-3.524-.441-3.164-.914.153-6.253-1.725-6.21-1.638.105.213-5.434-.985-4.038-2.108 1.757-1.413 5.469-.05 5.581-2.425.051-1.075 4.13 1.057 2.903-3.336-.041-.148 2.809 2.6 2.751 2.459-.155-.381-3.873-4.276-3.686-4.743.187-.468 1.551-1.073 2.217-.951.665.121 1.351 1.603 1.778 1.68.427.077.652-1.687.782-1.218 1.302 4.699 3.13 6.59 3.268 5.354.528-4.757 1.394-17.221 2.277-31.092.034-.533 1.281-1.215 1.315-1.751.054-.849-1.106-1.554-1.052-2.41l.201-3.222c.029-.47 1.942-.147 3.432-.867 1.196-.579 2.032-2.213 2.055-2.591.063-1.013-4.197.247-4.136-.764.079-1.281-.851-3.92-.774-5.188.042-.698 1.458-1.054 1.5-1.745.032-.539-1.31-1.415-1.278-1.95 1.023-17.037 1.837-31.54 1.837-31.54l19.206-1.964.707 4.638 1.252-3.533 2.003-1.51 5.99-.613c.209.738 9.878 35.727 29.008 104.967.673.69 1.241 1.011 1.706.963-.302.997-.342 2.588-.121 4.773l.887 4.598c-1.009-.035-3.662-3.866-5.389-2.379.537 1.325 1.5 2.572 2.892 3.741l-.383-2.959c.055.546.122 3.365.178 3.911.317 3.141 1.214 6.05 2.691 8.728l.755-.492c-.694-.894-1.116-2.093-1.268-3.595.121.539.855 1.499 2.201 2.879-.032.348 1.206.394 1.24.735.159 1.571.721 2.572 1.299 4.49 1.412 4.685 4.861 13.953 7.646 23.602Zm-41.412-64.233-12.474-48.81-2.396 47.313c.009.758 1.308 2.076 1.999 2.936.69.861 2.243.355 2.247.889.004.534-2.376.364-2.326.859.05.495 2.76 1.442 2.626 2.111-.133.669-3.357 1.68-3.427 1.904-.07.222 1.666-.258 3.009-.567 1.343-.31 2.6-.723 3.01-.567.409.158-.861 1.072-.552 1.505.332.467 2.288.75 2.544 1.292.256.543-1.255 1.917-.942 2.196.313.278 2.347-.39 2.82-.525.16-.046 2.735-.456 2.775-.622.223-.937.889-2.695 1.53-4.336.652-1.671-1.28-3.906-.443-5.578Zm25.134 19.886c-.492-.226-3.259-1.959-5.928-3.825-2.382-1.688-5.333-1.349-5.732-1.308-.663.067 3.908 6.029 4.115 8.077.021.205.005.379-.047.523 1.278-.614 1.752-.904 1.42-.87.133-.013.236.011.309.072-1.071-.649-1.771-1.268-2.098-1.855l.902-1.024c.359.24-.095-2.532.61-2.19.171-.294 1.422 2.397 1.778 1.946.307.383.548.772.722 1.168-.56-2.219.137-1.968.158-1.763l.592.238c.042.409.023 1.049-.057 1.92-.079.87-.099 1.511-.057 1.92.517-.191 1.226-.47 2.127-.838-.069-.683-.235-1.666-.499-2.95.352.171.914.424 1.685.759Zm-1.174 5.294-.228-2.253-1.094.112.227 2.253 1.095-.112Zm-3.458 1.595-1.049-3.411-.995.102.949 3.421 1.095-.112Zm.907 3.012-.29-2.868-1.094.112.29 2.868 1.094-.112Zm1.091-1.146-.995.102-.171 2.294.996-.102.17-2.294Zm-37.28-27.491c.134-.497-.593-.821-1.053-.617-1.224.542-2.454-.15-2.552.213-.134.497 3.835 1.092 4.066 1.552.169.335-.559-.785-.461-1.148Zm50.129 47.184-.166-1.639-.995.102.166 1.639.995-.102Zm-49.787-38.094c.335-.152 2.36-1.771 1.993-1.77-.871.004-5.219.862-6.052 1.24-.335.152.686 1.032 1.053 1.031.871-.003 2.173-.123 3.006-.501Zm27.625 6.83c-.767-.956-1.223-2.151-1.368-3.585a13.729 13.729 0 0 1-.066-1.649c.041.409-.295 1.065-1.008 1.965l-2.637-2.214c.365 1.619.655 2.831.87 3.637 1.803-.736 2.787-.285 2.952 1.354.056.546-.008 1.242-.191 2.089l1.448-1.597Zm-48.113 46.612c.155-.292.95-3.171.74-3.426-.21-.254-1.845 1.607-2 1.899-.155.292-.045 1.384.165 1.639.211.254.94.18 1.095-.112Z" style="fill:#fff;fill-rule:nonzero" transform="scale(4.16667)"/><path d="m277.977 209.347-.813.051-.804-1.396.787-.464.83 1.809Zm36.43 125.099c2.062 32.413-8.597 49.364-31.975 50.853-10.707.682-19.661-2.643-26.863-9.976-6.841-7.011-10.612-16.01-11.31-26.997-.022-.344-.81-17.014-2.365-50.011.221.262.521 1.242.902 2.942.295 1.429 1.15 2.581 2.567 3.456.747-1.082 1.097-2 1.049-2.756-.035-.549-.404-1.267-1.106-2.153-.703-.886-1.07-1.569-1.1-2.05l-.013-.206c.365.391.842.946 1.432 1.667.698-.803 1.318-1.222 1.86-1.256l1.196 1.165.197-.116-.059-.927c.037-.485-.451-1.213-1.465-2.182-1.235-1.232-1.927-1.946-2.076-2.143-.087.764-.394 1.817-.921 3.161-1.423.091-2.314-.542-2.672-1.898-.073-.065-.189-1.367-.351-3.908 1.187.476 2.084 1.212 2.692 2.207-.236-3.708.124-6.075 1.079-7.101-1.316-1.433-2.738-1.86-4.266-1.28l-1.317-20.705c-.078-1.236.166-3.82.732-7.751.566-3.932 1.063-6.291 1.489-7.076.874-1.228 2.084-3.064 3.63-5.506-.518-.657-1.428-2.667-2.731-6.032 1.058-.481 2.408-1.187 4.05-2.119-.383-.666-.819-1.638-1.308-2.916.999-.34 1.994-1.265 2.987-2.776 1.705 1.132 4.023 2.812 6.954 5.038 2.56-1.473 3.951-3.664 4.174-6.575 1.908-1.017 2.789-2.694 2.64-5.029-.044-.686-.176-1.695-.396-3.025-.221-1.331-.353-2.34-.397-3.026-.052-.824.153-2.147.615-3.97.462-1.822.595-3.209.399-4.162 1.761-.112 3.87-.66 6.325-1.644.043.687-.238 2.153-.843 4.398 1.361 1.085 2.551 1.595 3.567 1.531.041 1.721 1.26 3.229 3.656 4.524.393-.232.877-.642 1.452-1.23.051-.279-.324-.824-1.124-1.635s-1.279-1.383-1.436-1.718c.507-.584 1.167-.902 1.98-.954.407-.026 1.764.991 4.072 3.05-.809 2.258-1.416 3.4-1.823 3.426-1.084.069-1.787.252-2.108.548l.144 2.266c.551.103 1.241.266 2.072.489l2.148 3.276c1.477-.301 3.656-.819 6.534-1.554-.19 2.357-1.268 3.597-3.233 3.723-.542.034-1.029-.142-1.462-.528l-1.426 1.642.452.696c17.883 4.101 27.446 15.937 28.691 35.509l.898 14.112-7.014.446c-.487-2.313-3.335-4.303-8.544-5.971-.072-.065-.142-.095-.21-.09a1.502 1.502 0 0 0-.685.457c.603.927 1.601 2.173 2.993 3.74.203-.013.836-.226 1.899-.638l.176 2.781-2.134.136c-.052-.824-.056-1.41-.01-1.758-.33.159-.81.638-1.439 1.436-.317.365-1.357.604-3.119.716-2.642.168-4.403-2.374-5.281-7.627-1.436-8.665-2.36-13.571-2.773-14.717-2.031-5.18-5.757-7.597-11.178-7.252-8.606.549-12.42 8.514-11.442 23.896l1.672 26.267c-.016-1.309-.516-2.225-1.502-2.748-.986-.524-2.154-.708-3.506-.553l-.646 1.076c.222.261.534.379.942.353-.063.073-.129.112-.197.116a.968.968 0 0 1-.731-.263l-.856.985c.428.318.994 1.178 1.695 2.581.254-.292.599-.728 1.039-1.307.361.322.905.839 1.629 1.551-1.463.507-2.168 1.207-2.11 2.099.026.412.156.852.39 1.32.677-.043.987-.511.931-1.404l-.23-.399c2.418 1.639 3.699 3.591 3.843 5.858l1.133 17.82c-.229-.399-.741-.953-1.534-1.661l-2.087 2.513c-.799.257-1.979.953-3.54 2.086-1.228-.058-3.013-2.98-5.354-8.76a12.564 12.564 0 0 0-.285 3.534c.078 1.237.36 2.46.846 3.67-.488-.176-1.372-.706-2.653-1.589l-.856.985c1.659 1.48 2.742 2.997 3.249 4.551-.33.158-.877.642-1.643 1.449.035.549.731.781 2.086.694.474-.03.749-.254.824-.673.076-.418.283-.638.622-.66.406-.026 1.376.774 2.907 2.4l.034.515c.108 1.717.85 4.29 2.225 7.719.512-.515.963-.923 1.352-1.224.122 1.923.142 3.301.057 4.134.17-.563.492-1.376.969-2.441l1.292 1.056c.325-.228.43-.717.315-1.468l-.174-1.127-.981-.972c-.334.09-.49.307-.468.651.063-2.211.091-4.454.082-6.728.308-2.64 1.211-4.49 2.709-5.551.153.266.397 3.043.734 8.331 1.052 16.55 5.848 24.553 14.386 24.009 3.93-.251 6.924-1.855 8.981-4.813 1.867-2.739 2.671-6.134 2.414-10.186l-1.265-19.88 22.362-1.424c.575 1.549.965 3.937 1.17 7.165Zm-59.016-2.033-.915.058-.803-1.396.895-.368.823 1.706Zm6.289 5.805-1.053 4.307-.833-.257 1.073-3.998.813-.052Zm12.194-114.751-.131-2.06c-.459-.798-1.007-1.936-1.646-3.412-.848-.498-2.113-1.141-3.796-1.93l-.715 1.597c.03.481.427 1.369 1.19 2.665.763 1.296 1.164 2.253 1.203 2.871a.904.904 0 0 0 .4-.129c.339-.022.904.046 1.697.202.792.157 1.392.222 1.798.196Zm.092 1.442c-.931.335-2.256.902-3.974 1.701 2.109.004 3.028.014 2.757.031l1.217-1.732Zm-4.83-.52c-.765-1.33-1.981-2.804-3.649-4.422l-.236 5.911c1.967-1.16 3.262-1.656 3.885-1.489Zm-.872 5.537c-.07-1.098-.981-2.04-2.731-2.825-.855.468-1.662 1.692-2.421 3.671 1.808-.46 3.525-.742 5.152-.846Zm24.369 44.576-2.846.181c.238.536.559 1.309.964 2.317.299-.639.65-1.006 1.052-1.101l.63.27c.177-.425.243-.981.2-1.667Zm-41.577-35.93c-.56-.24-2.96-.535-7.201-.886l.184 2.885c.474-.031 1.108.308 1.901 1.016.794.708 1.297 1.124 1.509 1.249a260.62 260.62 0 0 0 3.607-4.264Zm1.537 59.475-.649-.579-1.433 1.539.649.579 1.433-1.539Zm.233 2.054-1.017.065-.534 2.826 1.016-.065.535-2.826Zm-5.854 12.267-.105-1.648-1.016.064.105 1.648 1.016-.064Zm7.154 9.783-.098-1.545-1.017.065.099 1.545 1.016-.065ZM355.907 209.053l-.534.688-1.651-1.414.534-.687 1.651 1.413Zm-9.366 21.737-1.607 1.008-.095-.94 1.319-.873.383.805Zm-5.986 1.456-2.289.234-.116-1.149 2.289-.234.116 1.149Zm62.743 142.31-23.784 2.431c-7.522-20.045-11.325-30.485-11.41-31.321-.105-1.044.123-1.77.685-2.179-2.286-2.72-4.981-8.492-8.084-17.316-3.825-10.649-6.321-17.109-7.489-19.381-2.482 5.95-5.048 13.385-7.699 22.305.231.961.406 2.034.526 3.216.351 3.48.407 8.01.166 13.59.99 2.5 1.704 5.908 2.14 10.224.182 1.809.418 5.793.705 11.952.167 4.975.502 8.949 1.003 11.922l-22.59 2.309a73.629 73.629 0 0 0-.228-12.212 78.885 78.885 0 0 0-2.078-11.601l-1.177 1.281c.917-2.204.985-7.168.204-14.894l-12.133-120.059 22.888-2.34 6.151 60.865 20.153-63.238 23.187-2.371-20.157 57.226c6.55 17.051 9.866 25.994 9.951 26.829.302 2.993-.894 5.084-3.589 6.274l.179 1.775c.085.835.707 1.685 1.867 2.551a286.384 286.384 0 0 1 3.592-2.265c1.26-.129 2.284.715 3.071 2.533.99 2.501 2.478 6.287 4.466 11.357a4625.027 4625.027 0 0 0 10.059 24.92c6.051 14.781 9.098 22.38 9.141 22.798l.284 2.819Zm-55.505-77.654-1.714-2.039c-1.278.622-2.945 1.039-5.002 1.249l.359 3.55 2.687-.275c.813-.575 2.037-1.403 3.67-2.485Zm-9.906-1.518c-.056-.557-.37-1.334-.939-2.33-.57-.997-.88-1.739-.929-2.226-.306 2.282-.904 5.648-1.795 10.099.587.502 1.373.984 2.358 1.446.119-.153.136-.647.052-1.482-.162-1.601.022-2.762.552-3.484.531-.723.764-1.397.701-2.023Zm49.44 56.439-.828-.232-.638 1.648.839.336.627-1.752Zm-52.106 17.668-2.473-.591.095.94 2.064.527.314-.876Z" style="fill:#fff;fill-rule:nonzero" transform="scale(4.16667)"/></svg>
