<svg viewBox="0 0 4655 1544" xmlns="http://www.w3.org/2000/svg" xml:space="preserve" style="fill-rule:evenodd;clip-rule:evenodd;stroke-linejoin:round;stroke-miterlimit:2">
  <path d="M69.232 345.343s52.59 258.098 288.034 263.762c119.459 2.873 195.331-92.535 343.051-88.19 55.018 1.618 128.645 14.563 211.98 166.671 13.755-27.509 66.345-162.626 203.08-165.053 122.496 3.722 253.729 88.999 347.097 88.19 50.973 0 218.328-24.111 283.989-266.998-4.729 135.765 3.362 156.801-68.647 385.772-72.008 228.97-68.686 327.269-73.627 356.806-7.281 43.528-32.363 286.415-271.043 449.041 5.664-20.227 31.555-72.817-41.263-134.308-21.845-21.036-134.308-83.335-270.234 2.428-60.681 38.836-120.554 77.672-224.925-4.855-30.746-18.609-148.872-80.908-266.998 4.045-24.273 23.464-84.954 72.818-27.509 140.781-35.6-20.227-238.68-135.926-287.225-436.905-12.136-118.127-50.972-314.734-84.954-406.16-33.981-91.427-74.686-248.875-60.806-355.027Z"/>
  <path d="M1050.79 1371.94c-17.623-33.281-88.028-215.541 7.768-389.656 10.356-18.771 89.97-129.454 209.715-127.512 34.305.647 269.911 34.784 385.124-189.65-36.247 101.142-137.868 383.999-156.639 417.009-18.77 33.011-80.261 132.691-206.478 140.458-101.314 6.234-186.656 58.449-239.49 149.351Z" style="fill:#c10"/>
  <path d="M767.445 1371.94c17.624-33.281 88.029-215.541-7.767-389.656-10.356-18.771-89.97-129.454-209.715-127.512-34.305.647-269.911 34.784-385.125-189.65 36.247 101.142 137.869 383.999 156.639 417.009 18.771 33.011 80.262 132.691 206.479 140.458 101.314 6.234 186.655 58.449 239.489 149.351Z" style="fill:#780600"/>
  <path d="M1041.41 1142.92c7.793-33.85 62.656-264.085 322.599-197.287 40.907 7.249 76.636 12.945 124.793 0-18.123 38.318-97.825 204.247-286.766 186.765-27.532-2.547-63.231-10.002-160.626 10.522ZM777.69 1142.92c-7.793-33.85-62.656-264.085-322.599-197.287-40.907 7.249-76.637 12.945-124.793 0 18.123 38.318 97.825 204.247 286.765 186.765 27.532-2.547 63.232-10.002 160.627 10.522Z" style="fill:#fff"/>
  <path d="M247.124 672.326c34.229 58.45 68.351 143.745 317.316 148.302 201.741 4.142 296.19 176.885 311.931 233.223-4.556-51.781-50.538-247.308-266.363-263.878-215.825-16.57-279.62-25.269-362.884-117.647Z" style="fill:#780606"/>
  <path d="M1575.47 672.326c-34.23 58.45-68.352 143.745-317.317 148.302-201.74 4.142-296.189 176.885-311.931 233.223 4.557-51.781 50.539-247.308 266.364-263.878 215.824-16.57 279.619-25.269 362.884-117.647Z" style="fill:#c10"/>
  <path d="M498.614 689.268s270.817 35.212 381.629 256.836c-32.104-70.941-79.761-233.534-381.629-256.836ZM1317.28 689.268s-270.817 35.212-381.629 256.836c32.105-70.941 79.762-233.534 381.629-256.836Z" style="fill:#fff"/>
  <path d="M1819.31 0s-51.242 98.024-192.239 117.803c-121.816 17.088-364.413 134.985-453.736 395.481 29.127 4.179 64.727 8.709 125.57 32.011 60.844 23.302 95.796 41.425 117.156 42.72 5.178-24.596 12.419-180.766 147.577-300.98 79.848-71.019 146.283-117.803 164.407-135.927C1746.168 132.985 1809.601 72.2 1819.31 0Z"/>
  <path d="M1613.26 174.416s-249.752 89.69-344.477 300.332c-10.328 22.969-17.366 44.514-46.591 46.906 10.817 3.113 80.41 24.212 130.608 45.297-11.185-18.142 12.165-93.05 25.114-122.996 72.195-166.957 126.346-171.874 235.346-269.539Z" style="fill:#c10"/>
  <path d="M0 0s51.242 98.024 192.239 117.803c121.816 17.088 364.412 134.985 453.736 395.481-29.128 4.179-64.727 8.709-125.571 32.011-60.843 23.302-95.795 41.425-117.155 42.72-5.178-24.596-12.419-180.766-147.578-300.98-79.847-71.019-146.283-117.803-164.406-135.927C73.141 132.985 9.709 72.2 0 0Z"/>
  <path d="M206.041 174.416s249.752 89.69 344.476 300.332c10.329 22.969 17.367 44.514 46.592 46.906-10.817 3.113-80.41 24.212-130.609 45.297 11.186-18.142-12.164-93.05-25.113-122.996-72.196-166.957-126.346-171.874-235.346-269.539Z" style="fill:#780606"/>
  <path d="M2354.43 289.54c0 34.179-25.025 62.256-75.073 84.228 41.504 7.731 68.562 26.551 81.176 56.458 4.069 9.969 6.104 23.193 6.104 39.673 0 16.276-2.441 33.976-7.324 53.1-4.68 18.921-12.207 36.825-22.583 53.711-10.173 16.683-23.194 31.942-39.063 45.777-15.869 13.834-34.892 25.736-57.068 35.705-46.59 20.956-104.166 31.433-172.729 31.433 6.51-15.462 10.274-28.381 11.291-38.757 1.221-10.376 2.238-21.464 3.052-33.264 1.628-24.007 2.442-56.254 2.442-96.741 0-49.032-.814-93.791-2.442-134.277l-3.357-83.924c-.814-21.159-2.645-35.909-5.493-44.25-4.476-13.224-11.8-25.126-21.973-35.706h161.438c49.235 0 84.839 4.883 106.812 14.649 23.193 10.172 34.79 27.567 34.79 52.185Zm-198.67 158.081.306 155.029c0 11.597 1.22 20.345 3.662 26.245 2.645 5.9 7.833 8.85 15.564 8.85 31.331 0 57.474-14.852 78.43-44.555 21.566-30.518 32.349-70.191 32.349-119.019 0-24.21-5.392-42.216-16.175-54.016-14.241-15.666-39.774-23.499-76.599-23.499-8.341 0-14.954.407-19.836 1.221-4.883.611-8.647 2.543-11.292 5.799-4.272 5.289-6.409 19.938-6.409 43.945Zm100.708-105.896c6.307-6.104 10.783-12.614 13.428-19.531 2.645-6.918 3.968-13.326 3.968-19.226 0-6.104-.916-12.208-2.747-18.311-1.628-6.104-4.985-11.495-10.071-16.174-11.393-10.173-30.924-15.259-58.594-15.259-20.955 0-33.467 2.136-37.536 6.409-4.069 4.069-6.612 9.562-7.63 16.479-1.017 6.917-1.526 15.869-1.526 26.856 0 10.782.306 19.836.916 27.16.61 7.121 2.238 13.123 4.883 18.006 5.086 9.969 15.462 14.953 31.128 14.953 15.869 0 28.89-2.034 39.062-6.103 10.376-4.069 18.616-9.156 24.719-15.259ZM2646.18 526.661l-.916 58.594c0 36.418 3.357 61.239 10.071 74.463 4.069 7.935 8.85 14.038 14.343 18.311l14.344 11.596h-88.501l-9.461-35.4c-22.99 27.669-55.745 41.504-98.266 41.504-24.211 0-43.742-8.138-58.594-24.414-13.021-14.649-19.531-31.942-19.531-51.88 0-19.938 4.679-37.333 14.038-52.185 9.562-14.852 22.074-27.161 37.536-36.927 30.518-18.92 68.868-28.788 115.052-29.602v-3.357c0-49.438-7.63-78.43-22.888-86.975-5.494-3.051-12.614-4.577-21.363-4.577-8.545 0-17.09 2.848-25.635 8.545-8.544 5.696-16.276 13.021-23.193 21.972-13.835 18.107-23.702 39.47-29.602 64.087-18.107-10.783-27.161-31.433-27.161-61.95 0-12.411 1.628-26.347 4.883-41.81 7.731 0 15.056-1.118 21.973-3.356l23.498-7.325c22.99-7.12 45.472-10.681 67.444-10.681 21.973 0 39.47 3.255 52.49 9.766 13.225 6.51 23.499 16.174 30.823 28.992 12.411 21.769 18.616 59.305 18.616 112.609Zm-170.593 98.877c0 12.614 2.848 22.38 8.545 29.297 5.9 6.918 13.224 10.376 21.972 10.376 8.749 0 17.192-2.238 25.33-6.714 8.138-4.679 15.462-10.986 21.973-18.921 15.258-18.107 22.888-39.367 22.888-63.781v-45.166c-28.483 2.645-51.982 12.105-70.496 28.381-20.142 17.497-30.212 39.673-30.212 66.528ZM2736.81 689.625c9.359-32.145 14.038-87.382 14.038-165.71 0-55.746-4.476-93.791-13.427-114.136-3.663-8.341-10.173-17.802-19.532-28.381h108.338c-3.662 12.817-6.612 30.416-8.85 52.795 19.124-24.007 45.776-40.995 79.956-50.964 14.648-4.273 25.329-10.987 32.043-20.142 6.714 16.073 10.071 29.907 10.071 41.504 0 11.597-.61 22.38-1.831 32.349a223.33 223.33 0 0 1-5.493 28.686c-5.29 20.142-12.309 35.808-21.057 46.997-7.528-39.673-19.227-62.866-35.096-69.58-18.31-7.934-36.214 2.849-53.711 32.349-3.662 6.103-6.713 12.614-9.155 19.531a330.996 330.996 0 0 0-.305 14.343v14.649c0 78.328 4.679 133.565 14.038 165.71h-90.027ZM3179.01 363.087c5.086 12.207 7.629 25.635 7.629 40.283 0 14.445-.508 26.449-1.526 36.011-1.017 9.562-2.543 18.819-4.577 27.771-4.273 18.921-10.885 34.078-19.837 45.471-8.951-55.338-23.498-88.908-43.64-100.708-7.121-4.069-14.852-6.103-23.193-6.103-8.138 0-15.259 1.933-21.362 5.798-6.104 3.866-11.292 9.461-15.564 16.785-8.749 14.648-13.123 33.671-13.123 57.068 0 23.193 2.34 43.233 7.019 60.119 4.679 16.683 10.783 31.739 18.311 45.166 7.731 13.225 16.377 24.72 25.94 34.485 9.765 9.562 19.531 17.599 29.296 24.109 19.735 12.614 37.232 18.921 52.491 18.921-.814 5.29-3.459 10.478-7.935 15.564-4.476 5.086-9.359 9.053-14.648 11.902-21.566 0-46.285-7.324-74.158-21.973-51.88-27.466-86.873-67.545-104.981-120.239-6.713-19.328-10.07-39.063-10.07-59.204 0-20.345 2.339-37.435 7.019-51.27 4.679-14.038 11.495-26.041 20.446-36.011 18.311-21.158 43.742-31.738 76.294-31.738 10.987 0 21.668.712 32.044 2.136 19.531 2.645 33.162 3.968 40.893 3.968 7.935 0 14.954-1.018 21.058-3.052 6.103-2.238 11.495-7.324 16.174-15.259ZM3460.08 585.865c7.324 4.883 10.986 13.428 10.986 25.635 0 12.004-1.628 22.583-4.883 31.739-3.255 9.155-8.952 17.7-17.09 25.634-18.31 17.904-46.183 26.856-83.618 26.856-43.538 0-76.701-16.073-99.487-48.218-20.142-28.687-30.212-67.444-30.212-116.272 0-49.235 13.631-87.891 40.893-115.967 25.838-26.652 60.832-39.978 104.981-39.978 30.721 0 54.728 8.952 72.021 26.856 13.631 14.241 20.447 30.721 20.447 49.438 0 18.514-3.662 35.299-10.986 50.354-7.121 14.852-17.701 27.669-31.739 38.452-28.89 22.38-69.275 34.18-121.155 35.401 4.273 40.893 17.09 68.257 38.453 82.092 7.731 4.883 18.005 7.324 30.822 7.324 12.818 0 26.449-6.714 40.894-20.141 14.445-13.428 27.669-33.163 39.673-59.205Zm-151.673-39.062c64.291-4.272 96.436-35.4 96.436-93.384 0-21.769-6.51-36.417-19.531-43.945-4.476-2.442-10.376-3.662-17.7-3.662-7.325 0-14.751 2.238-22.278 6.714-7.325 4.476-13.733 11.8-19.226 21.972-11.801 22.176-17.701 56.458-17.701 102.845v9.46ZM3622.74 549.855c0 65.918 3.968 112.508 11.902 139.77h-90.027c5.697-19.734 9.257-43.03 10.682-69.885 3.051-64.901 4.577-115.255 4.577-151.062 0-35.807-.101-59.814-.305-72.022l-.61-37.231c-1.221-44.149-3.357-71.92-6.409-83.313-2.848-11.597-5.595-19.938-8.24-25.024-2.441-5.29-5.289-10.071-8.545-14.344l-10.07-14.038h111.389c-5.697 20.549-9.054 40.283-10.071 59.204-.814 18.718-1.526 35.299-2.136 49.744-.407 14.445-.814 29.5-1.221 45.166-.407 26.042-.61 57.068-.61 93.079l-.306 79.956ZM3844.6 405.812c-18.31 0-31.535 9.155-39.673 27.466-7.934 18.31-11.901 49.133-11.901 92.468 0 92.977 17.191 139.465 51.574 139.465 18.311 0 31.433-12.41 39.368-37.231 8.138-24.821 12.207-58.899 12.207-102.234 0-43.335-4.069-74.158-12.207-92.468-7.935-18.311-21.057-27.466-39.368-27.466Zm-128.479 108.337c0-92.57 42.827-138.855 128.479-138.855 85.653 0 128.479 46.285 128.479 138.855 0 56.153-11.8 100.606-35.4 133.362-22.99 32.145-54.016 48.218-93.079 48.218-39.062 0-70.088-16.073-93.078-48.218-23.601-32.756-35.401-77.209-35.401-133.362ZM4049.68 689.625c9.359-32.145 14.038-87.382 14.038-165.71 0-55.746-4.882-93.791-14.648-114.136a109.55 109.55 0 0 0-8.24-14.343l-10.071-14.038h105.896c-3.051 10.172-5.086 19.734-6.103 28.686l-2.441 21.973c24.617-37.842 55.948-56.763 93.994-56.763 24.617 0 43.843 9.562 57.678 28.687 13.428 18.717 20.142 44.047 20.142 75.988v32.654c0 55.949.508 90.129 1.525 102.539 1.018 12.411 1.831 21.871 2.442 28.382.61 6.51 1.322 12.308 2.136 17.395 1.424 9.562 3.56 19.124 6.409 28.686h-89.417c9.359-32.145 14.038-87.382 14.038-165.71 0-31.332-2.034-52.796-6.103-64.392-3.866-11.597-8.545-19.837-14.038-24.72-5.493-5.086-12.716-7.629-21.668-7.629-16.479 0-31.433 6.51-44.861 19.531-11.596 11.19-20.446 25.432-26.55 42.725-.407 5.493-.61 11.19-.61 17.09v17.395c0 78.328 4.679 133.565 14.038 165.71h-87.586ZM4616.69 526.661l-.916 58.594c0 36.418 3.357 61.239 10.071 74.463 4.069 7.935 8.85 14.038 14.344 18.311l14.343 11.596h-88.501l-9.461-35.4c-22.99 27.669-55.745 41.504-98.266 41.504-24.211 0-43.742-8.138-58.594-24.414-13.021-14.649-19.531-31.942-19.531-51.88 0-19.938 4.679-37.333 14.038-52.185 9.562-14.852 22.074-27.161 37.536-36.927 30.518-18.92 68.868-28.788 115.052-29.602v-3.357c0-49.438-7.63-78.43-22.888-86.975-5.494-3.051-12.614-4.577-21.363-4.577-8.545 0-17.09 2.848-25.635 8.545-8.544 5.696-16.276 13.021-23.193 21.972-13.835 18.107-23.702 39.47-29.602 64.087-18.107-10.783-27.161-31.433-27.161-61.95 0-12.411 1.628-26.347 4.883-41.81 7.731 0 15.056-1.118 21.973-3.356l23.498-7.325c22.99-7.12 45.472-10.681 67.444-10.681 21.973 0 39.47 3.255 52.491 9.766 13.224 6.51 23.498 16.174 30.822 28.992 12.411 21.769 18.616 59.305 18.616 112.609Zm-170.593 98.877c0 12.614 2.848 22.38 8.545 29.297 5.9 6.918 13.224 10.376 21.972 10.376 8.749 0 17.192-2.238 25.33-6.714 8.138-4.679 15.462-10.986 21.973-18.921 15.258-18.107 22.888-39.367 22.888-63.781v-45.166c-28.483 2.645-51.982 12.105-70.496 28.381-20.141 17.497-30.212 39.673-30.212 66.528ZM2142.94 982.289c-.407 21.159-.61 45.268-.61 72.326 0 38.453.712 82.5 2.136 132.142 1.424 49.438 2.543 77.616 3.357 84.533.814 6.714 1.831 12.614 3.052 17.7 2.034 8.342 5.188 16.887 9.46 25.635h-81.787c6.104-12.41 9.766-24.516 10.986-36.316a728.784 728.784 0 0 0 3.357-35.705c1.628-24.007 2.442-56.254 2.442-96.741 0-49.032-.814-93.791-2.442-134.277l-3.357-83.924c-1.22-30.924-6.103-52.897-14.648-65.918-3.459-4.882-7.731-9.562-12.817-14.038h94.909a1878.455 1878.455 0 0 0 38.147 82.398l41.504 81.177 89.111 163.879c.204-12.817.306-26.55.306-41.199v-47.607c0-101.726-6.206-175.171-18.616-220.337-2.442-8.342-5.086-14.445-7.935-18.311l91.858-.305c-10.172 20.345-16.581 77.616-19.226 171.814-.407 14.649-.61 28.687-.61 42.114l.305 25.635v124.512c0 52.694.407 87.077 1.221 103.149h-49.439l-88.501-164.795-92.163-167.541ZM2587.89 1030.81c-18.31 0-31.534 9.155-39.672 27.466-7.935 18.31-11.902 49.133-11.902 92.468 0 92.977 17.191 139.465 51.574 139.465 18.311 0 31.433-12.41 39.368-37.231 8.138-24.821 12.207-58.899 12.207-102.234 0-43.335-4.069-74.158-12.207-92.468-7.935-18.311-21.057-27.466-39.368-27.466Zm-128.479 108.337c0-92.57 42.827-138.855 128.479-138.855 85.653 0 128.479 46.285 128.479 138.855 0 56.153-11.8 100.606-35.4 133.362-22.99 32.145-54.016 48.218-93.079 48.218-39.062 0-70.088-16.073-93.078-48.218-23.6-32.756-35.401-77.209-35.401-133.362ZM2988.58 988.087c5.086 12.207 7.63 25.635 7.63 40.283 0 14.445-.509 26.449-1.526 36.011-1.018 9.562-2.543 18.819-4.578 27.771-4.272 18.921-10.885 34.078-19.836 45.471-8.952-55.338-23.499-88.908-43.64-100.708-7.121-4.069-14.852-6.103-23.194-6.103-8.138 0-15.259 1.933-21.362 5.798-6.104 3.866-11.292 9.461-15.564 16.785-8.749 14.648-13.123 33.671-13.123 57.068 0 23.193 2.34 43.233 7.019 60.119 4.68 16.683 10.783 31.739 18.311 45.166 7.731 13.225 16.378 24.72 25.94 34.485 9.765 9.562 19.531 17.599 29.297 24.109 19.734 12.614 37.231 18.921 52.49 18.921-.814 5.29-3.459 10.478-7.935 15.564-4.476 5.086-9.358 9.053-14.648 11.902-21.566 0-46.285-7.324-74.158-21.973-51.88-27.466-86.873-67.545-104.98-120.239-6.714-19.328-10.071-39.063-10.071-59.204 0-20.345 2.34-37.435 7.019-51.27 4.679-14.038 11.495-26.041 20.447-36.011 18.31-21.158 43.742-31.738 76.294-31.738 10.986 0 21.667.712 32.043 2.136 19.531 2.645 33.163 3.968 40.894 3.968 7.934 0 14.953-1.018 21.057-3.052 6.103-2.238 11.495-7.324 16.174-15.259ZM3145.75 884.327c-4.273 15.666-6.409 34.485-6.409 56.458 0 21.769.407 35.705 1.221 41.809 1.017 6.104 2.543 10.986 4.577 14.648 3.866 6.104 11.394 9.156 22.583 9.156h81.787c0 11.393-2.746 20.141-8.239 26.245-9.969 10.986-22.176 16.479-36.621 16.479-7.121 0-13.428-1.017-18.921-3.051-9.969-4.069-17.7-6.104-23.194-6.104-5.493 0-9.969 1.119-13.427 3.357-3.459 2.034-6.206 5.086-8.24 9.155-3.662 7.324-5.493 23.295-5.493 47.913 0 24.617.712 49.845 2.136 75.683 1.628 25.839 5.493 47.506 11.597 65.003 6.103 17.293 15.36 30.314 27.771 39.062 12.41 8.749 29.5 13.123 51.269 13.123 0 6.307-4.272 13.835-12.817 22.583-2.238 2.441-4.171 4.069-5.799 4.883-36.01 0-62.967-4.273-80.871-12.818-20.549-10.172-35.197-28.279-43.945-54.321-8.749-26.448-13.123-65.613-13.123-117.493 0-45.369-1.221-72.123-3.662-80.261-2.442-8.341-4.679-13.834-6.714-16.479-2.441-3.052-8.341-6.816-17.7-11.292 12.614-9.562 25.126-27.364 37.536-53.406l15.259-32.043c10.783-24.414 19.938-40.182 27.466-47.302 7.731-7.325 15.055-10.987 21.973-10.987ZM3531.49 1035.08l-4.578 136.414c0 55.542 4.883 93.689 14.649 114.441 3.458 7.527 9.562 17.09 18.31 28.686h-84.839c-4.679-13.834-7.731-31.331-9.155-52.49-23.6 39.063-54.016 58.594-91.247 58.594-25.635 0-45.268-9.562-58.899-28.687-13.428-18.514-20.142-43.945-20.142-76.294v-69.275l-.61-27.771c-.204-17.7-.814-31.433-1.831-41.198-.814-9.969-1.831-18.209-3.052-24.72-1.017-6.713-2.34-12.614-3.967-17.7-1.628-5.289-3.459-10.172-5.494-14.648l-6.713-14.038h88.195c.204 3.255.306 6.307.306 9.155v8.85l-5.188 153.198c0 29.908 1.932 50.253 5.798 61.035 3.865 10.783 8.443 18.514 13.733 23.194 5.493 4.679 12.715 7.019 21.667 7.019 24.211 0 43.844-13.224 58.899-39.673 4.069-7.528 7.426-15.157 10.071-22.888.407-11.393.61-24.313.61-38.757 0-74.26-5.493-123.292-16.479-147.095l-6.714-14.038h86.975a354.039 354.039 0 0 0-.305 14.038v14.648ZM3628.84 1314.62c9.359-32.145 14.038-87.382 14.038-165.71 0-55.746-4.476-93.791-13.428-114.136-3.662-8.341-10.172-17.802-19.531-28.381h108.337c-3.662 12.817-6.612 30.416-8.85 52.795 19.125-24.007 45.777-40.995 79.956-50.964 14.649-4.273 25.33-10.987 32.044-20.142 6.714 16.073 10.071 29.907 10.071 41.504 0 11.597-.611 22.38-1.831 32.349a223.16 223.16 0 0 1-5.494 28.686c-5.289 20.142-12.308 35.808-21.057 46.997-7.527-39.673-19.226-62.866-35.095-69.58-18.31-7.934-36.214 2.849-53.711 32.349-3.662 6.103-6.714 12.614-9.155 19.531a329.408 329.408 0 0 0-.305 14.343v14.649c0 78.328 4.679 133.565 14.038 165.71h-90.027ZM3875.42 1314.62c9.359-32.145 14.038-87.382 14.038-165.71 0-55.746-4.883-93.791-14.648-114.136-2.442-5.086-5.188-9.867-8.24-14.343l-10.071-14.038h105.896c-3.052 10.172-5.086 19.734-6.103 28.686l-2.442 21.973c24.618-37.842 55.949-56.763 93.994-56.763 24.618 0 43.844 9.562 57.679 28.687 13.427 18.717 20.141 44.047 20.141 75.988v32.654c0 55.949.509 90.129 1.526 102.539 1.017 12.411 1.831 21.871 2.441 28.382.611 6.51 1.323 12.308 2.137 17.395 1.424 9.562 3.56 19.124 6.408 28.686h-89.416c9.359-32.145 14.038-87.382 14.038-165.71 0-31.332-2.035-52.796-6.104-64.392-3.865-11.597-8.545-19.837-14.038-24.72-5.493-5.086-12.715-7.629-21.667-7.629-16.48 0-31.433 6.51-44.861 19.531-11.597 11.19-20.447 25.432-26.55 42.725a231.4 231.4 0 0 0-.611 17.09v17.395c0 78.328 4.68 133.565 14.038 165.71h-87.585ZM4442.44 1151.66l-.916 58.594c0 36.418 3.357 61.239 10.071 74.463 4.069 7.935 8.85 14.038 14.343 18.311l14.343 11.596h-88.501l-9.46-35.4c-22.99 27.669-55.745 41.504-98.267 41.504-24.21 0-43.741-8.138-58.593-24.414-13.021-14.649-19.532-31.942-19.532-51.88 0-19.938 4.68-37.333 14.038-52.185 9.563-14.852 22.075-27.161 37.537-36.927 30.518-18.92 68.868-28.788 115.051-29.602v-3.357c0-49.438-7.629-78.43-22.888-86.975-5.493-3.051-12.614-4.577-21.362-4.577-8.545 0-17.09 2.848-25.635 8.545-8.545 5.696-16.276 13.021-23.193 21.972-13.835 18.107-23.702 39.47-29.602 64.087-18.107-10.783-27.161-31.433-27.161-61.95 0-12.411 1.628-26.347 4.883-41.81 7.731 0 15.055-1.118 21.973-3.356l23.498-7.325c22.99-7.12 45.471-10.681 67.444-10.681 21.973 0 39.469 3.255 52.49 9.766 13.224 6.51 23.499 16.174 30.823 28.992 12.41 21.769 18.616 59.305 18.616 112.609Zm-170.594 98.877c0 12.614 2.849 22.38 8.545 29.297 5.9 6.918 13.225 10.376 21.973 10.376s17.191-2.238 25.33-6.714c8.138-4.679 15.462-10.986 21.972-18.921 15.259-18.107 22.888-39.367 22.888-63.781v-45.166c-28.483 2.645-51.981 12.105-70.495 28.381-20.142 17.497-30.213 39.673-30.213 66.528Z" style="fill:#fff;fill-rule:nonzero"/>
</svg>
