<svg xmlns="http://www.w3.org/2000/svg" width="179" height="359" fill="none"><g clip-path="url(#a)"><path fill="#000" fill-rule="evenodd" d="M166.7 108.833c.524.268.686.305 1.113.708.611.576 1 1.305 1.454 1.995 4.105 6.235 7.726 13.028 8.66 20.266.532 4.123-.089 9.163-3.085 12.412 0 0-.557.555-1.104.812a3.768 3.768 0 0 1-3.281-.073c-.533-.282-.615-.422-1.035-.83-.886-1.05-2.241-2.324-3.577-2.909-2.966-1.299-6.155-2.125-9.366-2.798-5.309-1.113-10.716-1.783-16.153-1.79-6.688 0-13.415-.005-19.924 1.183-3.114.569-6.17 1.485-8.853 3.125-3.307 2.023-6.032 4.948-7.325 8.511-.061.169-.12.348-.175.535-1.561 5.274-.229 18.761 5.032 20.047 1.948.476 2.275 1.697 2.171 2.869-.827 9.279-9.333 32.959-7.129 52.801.335 3.011 3.018 16.578 3.192 19.126 1.192 17.46 1.689 40.727-1.036 58.065-2.729 17.359-7.007 34.63-12.422 51.528a160.43 160.43 0 0 1-.728 2.225s-.138.398-.294.666c-.878 1.509-3.095 2.151-4.724 1.339a3.462 3.462 0 0 1-1.44-1.339c-.193-.33-.306-.695-.423-1.048-3.253-9.807-5.964-19.829-8.339-29.891-2.138-9.063-4.015-18.185-5.256-27.399-2.525-18.752-1.814-37.758-.049-56.556.408-4.335 1.894-12.028 2.295-16.397 2.388-26.013-6.247-44.196-7.002-53.621-.1-1.246.271-1.864 2.475-2.928 3.381-1.632 6.738-11.549 5.552-17.699-.622-3.225-2.352-6.235-4.846-8.512-2.397-2.188-5.362-3.758-8.54-4.662-5.39-1.531-11.107-1.781-16.762-1.909-4.037-.092-8.076-.146-12.095.188-5.307.44-10.599 1.298-15.67 2.795-2.473.73-4.987 2.219-7.02 3.667a4.913 4.913 0 0 0-.868.755l-.498.492c-.489.322-.597.442-1.17.622a3.733 3.733 0 0 1-2.63-.156c-.545-.247-.636-.38-1.078-.757 0 0-.494-.514-.9-1.007-1.917-2.322-3.122-5.798-3.592-8.708-.82-5.067.41-10.267 2.64-14.815 2.126-4.334 5.155-8.446 9.584-10.772l.582-.244c.547-.124.685-.192 1.255-.173.851.03 1.681.36 2.298.916.461.415.783.929 1.168 1.403 2.166 2.664 4.762 5.061 8.047 6.401 4.172 1.702 8.851 1.864 13.361 1.867h19.25c-16.262-10.91-27.535-28.083-31.593-46.391-1.002-4.521-1.588-9.133-1.582-13.75a56.222 56.222 0 0 1 9.591-31.264C41.851 17.393 52.454 9.298 64.588 4.815c20.102-7.427 44.153-5.373 62.062 5.853 9.043 5.668 16.456 13.626 21.2 22.834 5.672 11.008 7.371 23.701 5.289 35.786-3.151 18.29-13.342 35.52-28.507 47.164a72.721 72.721 0 0 1-3.772 2.707c6.538 0 13.075.005 19.613 0 5.053-.012 10.224-.24 14.598-2.505 3.013-1.56 5.389-4.08 7.412-6.713l.446-.477c.357-.259.719-.52 1.138-.673.421-.153.87-.228 1.321-.221.448.008.883.135 1.312.263ZM89.588 28.396c-8.232.019-16.482 2.424-22.962 7.424-5.008 3.865-8.802 9.089-11.179 14.764-2.375 5.67-3.443 11.761-3.313 17.915.202 9.544 2.801 17.58 8.51 25.516 3.981 5.535 9.265 11.85 14.88 15.916 1.325.961 1.8-.414 1.8-.414l-.002-2.892c.003-3.94.276-7.888-.238-11.798-.277-2.108-.935-4.205-2.207-5.95-1.282-1.759-3.038-3.18-4.896-4.44l-.108-.073-.525-.433c-.374-.461-.513-.56-.73-1.113-.49-1.24-.112-2.733.923-3.626.502-.433.636-.486 1.365-.735a24.096 24.096 0 0 0 8.77-5.372c2.936-2.816 5.143-6.251 6.886-9.797l.337-.545c.147-.158.278-.33.44-.474 1.45-1.293 4.067-1.123 5.282.495.412.548.64 1.183.954 1.784 3.183 6.076 8.008 11.595 15.124 13.944 0 0 .413.144.68.292 1.21.675 1.908 2.071 1.689 3.386a3.29 3.29 0 0 1-.91 1.759c-.282.284-.627.5-.948.722-2.36 1.639-4.552 3.607-5.712 6.153-1.537 3.373-1.37 7.248-1.347 10.983.01 1.613.03 3.227.031 4.838l-.012 3.285c.06 1.203 1.217.798 1.778.533 3.544-1.671 13.194-13.922 17.495-20.779 3.091-4.93 4.19-12.506 5.318-18.018.434-2.121.475-4.294.359-6.477-.576-10.883-5.048-21.815-13.904-28.932-6.413-5.154-14.913-7.797-23.355-7.841h-.273Z" clip-rule="evenodd"/></g><defs><clipPath id="a"><path fill="#fff" d="M0 0h179v359H0z"/></clipPath></defs></svg>